<svg width="20" height="16" viewBox="0 0 20 16" fill="none" xmlns="http://www.w3.org/2000/svg">
<path d="M19.2643 1.38237V11.9706C19.2643 12.3216 19.1248 12.6583 18.8766 12.9065C18.6284 13.1547 18.2918 13.2941 17.9407 13.2941H12.6466C12.1201 13.2941 11.6151 13.5033 11.2428 13.8756C10.8705 14.2479 10.6613 14.7529 10.6613 15.2794C10.6613 15.4549 10.5916 15.6233 10.4675 15.7474C10.3434 15.8715 10.1751 15.9412 9.99957 15.9412C9.82406 15.9412 9.65574 15.8715 9.53163 15.7474C9.40753 15.6233 9.3378 15.4549 9.3378 15.2794C9.3378 14.7529 9.12864 14.2479 8.75632 13.8756C8.38401 13.5033 7.87904 13.2941 7.35251 13.2941H2.05839C1.70737 13.2941 1.37073 13.1547 1.12252 12.9065C0.874306 12.6583 0.734863 12.3216 0.734863 11.9706V1.38237C0.734863 1.03135 0.874306 0.6947 1.12252 0.446491C1.37073 0.198281 1.70737 0.0588379 2.05839 0.0588379H6.69075C7.39279 0.0588379 8.06608 0.337724 8.5625 0.834143C9.05892 1.33056 9.3378 2.00385 9.3378 2.7059V9.98531C9.3378 10.1608 9.40753 10.3291 9.53163 10.4532C9.65574 10.5774 9.82406 10.6471 9.99957 10.6471C10.1751 10.6471 10.3434 10.5774 10.4675 10.4532C10.5916 10.3291 10.6613 10.1608 10.6613 9.98531V2.7059C10.6613 2.00385 10.9402 1.33056 11.4366 0.834143C11.9331 0.337724 12.6063 0.0588379 13.3084 0.0588379H17.9407C18.2918 0.0588379 18.6284 0.198281 18.8766 0.446491C19.1248 0.6947 19.2643 1.03135 19.2643 1.38237Z" fill="#97A4B0"/>
</svg>
