<svg width="14" height="12" viewBox="0 0 14 12" fill="none" xmlns="http://www.w3.org/2000/svg">
<path d="M13 0H9C8.61189 0 8.2291 0.0903627 7.88197 0.263932C7.53483 0.437501 7.23287 0.68951 7 1C6.76713 0.68951 6.46517 0.437501 6.11803 0.263932C5.7709 0.0903627 5.38811 0 5 0H1C0.734784 0 0.48043 0.105357 0.292893 0.292893C0.105357 0.48043 0 0.734784 0 1V9C0 9.26522 0.105357 9.51957 0.292893 9.70711C0.48043 9.89464 0.734784 10 1 10H5C5.39782 10 5.77936 10.158 6.06066 10.4393C6.34196 10.7206 6.5 11.1022 6.5 11.5C6.5 11.6326 6.55268 11.7598 6.64645 11.8536C6.74021 11.9473 6.86739 12 7 12C7.13261 12 7.25979 11.9473 7.35355 11.8536C7.44732 11.7598 7.5 11.6326 7.5 11.5C7.5 11.1022 7.65804 10.7206 7.93934 10.4393C8.22064 10.158 8.60218 10 9 10H13C13.2652 10 13.5196 9.89464 13.7071 9.70711C13.8946 9.51957 14 9.26522 14 9V1C14 0.734784 13.8946 0.48043 13.7071 0.292893C13.5196 0.105357 13.2652 0 13 0ZM5 9H1V1H5C5.39782 1 5.77936 1.15804 6.06066 1.43934C6.34196 1.72064 6.5 2.10218 6.5 2.5V9.5C6.06766 9.17467 5.54106 8.99914 5 9ZM13 9H9C8.45893 8.99914 7.93234 9.17467 7.5 9.5V2.5C7.5 2.10218 7.65804 1.72064 7.93934 1.43934C8.22064 1.15804 8.60218 1 9 1H13V9ZM9 2.5H11.5C11.6326 2.5 11.7598 2.55268 11.8536 2.64645C11.9473 2.74021 12 2.86739 12 3C12 3.13261 11.9473 3.25979 11.8536 3.35355C11.7598 3.44732 11.6326 3.5 11.5 3.5H9C8.86739 3.5 8.74021 3.44732 8.64645 3.35355C8.55268 3.25979 8.5 3.13261 8.5 3C8.5 2.86739 8.55268 2.74021 8.64645 2.64645C8.74021 2.55268 8.86739 2.5 9 2.5ZM12 5C12 5.13261 11.9473 5.25979 11.8536 5.35355C11.7598 5.44732 11.6326 5.5 11.5 5.5H9C8.86739 5.5 8.74021 5.44732 8.64645 5.35355C8.55268 5.25979 8.5 5.13261 8.5 5C8.5 4.86739 8.55268 4.74021 8.64645 4.64645C8.74021 4.55268 8.86739 4.5 9 4.5H11.5C11.6326 4.5 11.7598 4.55268 11.8536 4.64645C11.9473 4.74021 12 4.86739 12 5ZM12 7C12 7.13261 11.9473 7.25979 11.8536 7.35355C11.7598 7.44732 11.6326 7.5 11.5 7.5H9C8.86739 7.5 8.74021 7.44732 8.64645 7.35355C8.55268 7.25979 8.5 7.13261 8.5 7C8.5 6.86739 8.55268 6.74021 8.64645 6.64645C8.74021 6.55268 8.86739 6.5 9 6.5H11.5C11.6326 6.5 11.7598 6.55268 11.8536 6.64645C11.9473 6.74021 12 6.86739 12 7Z" fill="#232323"/>
</svg>
