<svg width="98" height="155" viewBox="0 0 98 155" fill="none" xmlns="http://www.w3.org/2000/svg">
<g opacity="0.5">
<path d="M97.7207 0H66.3501V148.165H97.7207V0Z" fill="#F3F2F4"/>
<path d="M77.5645 6.83691H72.0776V12.3238H77.5645V6.83691Z" fill="#DED9E9"/>
<path d="M84.7749 6.83691H79.2881V12.3238H84.7749V6.83691Z" fill="#DED9E9"/>
<path d="M91.9864 6.83691H86.4995V12.3238H91.9864V6.83691Z" fill="#DED9E9"/>
<path d="M77.5645 15.2778H72.0776V20.7647H77.5645V15.2778Z" fill="#DED9E9"/>
<path d="M84.7749 15.2778H79.2881V20.7647H84.7749V15.2778Z" fill="#DED9E9"/>
<path d="M91.9864 15.2778H86.4995V20.7647H91.9864V15.2778Z" fill="#DED9E9"/>
<path d="M77.5645 23.7251H72.0776V29.2119H77.5645V23.7251Z" fill="#DED9E9"/>
<path d="M84.7749 23.7251H79.2881V29.2119H84.7749V23.7251Z" fill="#DED9E9"/>
<path d="M91.9864 23.7251H86.4995V29.2119H91.9864V23.7251Z" fill="#DED9E9"/>
<path d="M77.5645 32.1724H72.0776V37.6592H77.5645V32.1724Z" fill="#DED9E9"/>
<path d="M84.7749 32.1724H79.2881V37.6592H84.7749V32.1724Z" fill="#DED9E9"/>
<path d="M91.9864 32.1724H86.4995V37.6592H91.9864V32.1724Z" fill="#DED9E9"/>
<path d="M77.5645 40.6133H72.0776V46.1001H77.5645V40.6133Z" fill="#DED9E9"/>
<path d="M84.7749 40.6133H79.2881V46.1001H84.7749V40.6133Z" fill="#DED9E9"/>
<path d="M91.9864 40.6133H86.4995V46.1001H91.9864V40.6133Z" fill="#DED9E9"/>
<path d="M77.5645 49.061H72.0776V54.5479H77.5645V49.061Z" fill="#DED9E9"/>
<path d="M84.7749 49.061H79.2881V54.5479H84.7749V49.061Z" fill="#DED9E9"/>
<path d="M91.9864 49.061H86.4995V54.5479H91.9864V49.061Z" fill="#DED9E9"/>
<path d="M77.5645 57.5083H72.0776V62.9951H77.5645V57.5083Z" fill="#DED9E9"/>
<path d="M84.7749 57.5083H79.2881V62.9951H84.7749V57.5083Z" fill="#DED9E9"/>
<path d="M91.9864 57.5083H86.4995V62.9951H91.9864V57.5083Z" fill="#DED9E9"/>
<path d="M77.5645 65.9497H72.0776V71.4365H77.5645V65.9497Z" fill="#DED9E9"/>
<path d="M84.7749 65.9497H79.2881V71.4365H84.7749V65.9497Z" fill="#DED9E9"/>
<path d="M91.9864 65.9497H86.4995V71.4365H91.9864V65.9497Z" fill="#DED9E9"/>
<path d="M77.5645 74.397H72.0776V79.8838H77.5645V74.397Z" fill="#DED9E9"/>
<path d="M84.7749 74.397H79.2881V79.8838H84.7749V74.397Z" fill="#DED9E9"/>
<path d="M91.9864 74.397H86.4995V79.8838H91.9864V74.397Z" fill="#DED9E9"/>
<path d="M77.5645 82.8438H72.0776V88.3306H77.5645V82.8438Z" fill="#DED9E9"/>
<path d="M84.7749 82.8438H79.2881V88.3306H84.7749V82.8438Z" fill="#DED9E9"/>
<path d="M91.9864 82.8438H86.4995V88.3306H91.9864V82.8438Z" fill="#DED9E9"/>
<path d="M77.5645 91.2847H72.0776V96.7715H77.5645V91.2847Z" fill="#DED9E9"/>
<path d="M84.7749 91.2847H79.2881V96.7715H84.7749V91.2847Z" fill="#DED9E9"/>
<path d="M91.9864 91.2847H86.4995V96.7715H91.9864V91.2847Z" fill="#DED9E9"/>
<path d="M77.5645 99.7324H72.0776V105.219H77.5645V99.7324Z" fill="#DED9E9"/>
<path d="M84.7749 99.7324H79.2881V105.219H84.7749V99.7324Z" fill="#DED9E9"/>
<path d="M91.9864 99.7324H86.4995V105.219H91.9864V99.7324Z" fill="#DED9E9"/>
<path d="M77.5645 107.973H72.0776V113.459H77.5645V107.973Z" fill="#DED9E9"/>
<path d="M84.7749 107.973H79.2881V113.459H84.7749V107.973Z" fill="#DED9E9"/>
<path d="M91.9864 107.973H86.4995V113.459H91.9864V107.973Z" fill="#DED9E9"/>
<path d="M77.5645 116.213H72.0776V121.7H77.5645V116.213Z" fill="#DED9E9"/>
<path d="M84.7749 116.213H79.2881V121.7H84.7749V116.213Z" fill="#DED9E9"/>
<path d="M91.9864 116.213H86.4995V121.7H91.9864V116.213Z" fill="#DED9E9"/>
<path d="M31.3706 64.2651H0V162.527H31.3706V64.2651Z" fill="#F3F2F4"/>
<path d="M62.8481 85.7715H31.4775V159.653H62.8481V85.7715Z" fill="#F3F2F4"/>
<path d="M11.2139 71.957H5.72705V77.4439H11.2139V71.957Z" fill="#DED9E9"/>
<path d="M18.4253 71.957H12.9385V77.4439H18.4253V71.957Z" fill="#DED9E9"/>
<path d="M25.6299 71.957H20.1431V77.4439H25.6299V71.957Z" fill="#DED9E9"/>
<path d="M11.2139 80.4043H5.72705V85.8911H11.2139V80.4043Z" fill="#DED9E9"/>
<path d="M18.4253 80.4043H12.9385V85.8911H18.4253V80.4043Z" fill="#DED9E9"/>
<path d="M25.6299 80.4043H20.1431V85.8911H25.6299V80.4043Z" fill="#DED9E9"/>
<path d="M11.2139 88.8525H5.72705V94.3394H11.2139V88.8525Z" fill="#DED9E9"/>
<path d="M18.4253 88.8525H12.9385V94.3394H18.4253V88.8525Z" fill="#DED9E9"/>
<path d="M25.6299 88.8525H20.1431V94.3394H25.6299V88.8525Z" fill="#DED9E9"/>
<path d="M11.2139 97.293H5.72705V102.78H11.2139V97.293Z" fill="#DED9E9"/>
<path d="M18.4253 97.293H12.9385V102.78H18.4253V97.293Z" fill="#DED9E9"/>
<path d="M25.6299 97.293H20.1431V102.78H25.6299V97.293Z" fill="#DED9E9"/>
<path d="M11.2139 105.741H5.72705V111.228H11.2139V105.741Z" fill="#DED9E9"/>
<path d="M18.4253 105.741H12.9385V111.228H18.4253V105.741Z" fill="#DED9E9"/>
<path d="M25.6299 105.741H20.1431V111.228H25.6299V105.741Z" fill="#DED9E9"/>
<path d="M11.2139 114.188H5.72705V119.675H11.2139V114.188Z" fill="#DED9E9"/>
<path d="M18.4253 114.188H12.9385V119.675H18.4253V114.188Z" fill="#DED9E9"/>
<path d="M25.6299 114.188H20.1431V119.675H25.6299V114.188Z" fill="#DED9E9"/>
<path d="M11.2139 122.629H5.72705V128.116H11.2139V122.629Z" fill="#DED9E9"/>
<path d="M18.4253 122.629H12.9385V128.116H18.4253V122.629Z" fill="#DED9E9"/>
<path d="M25.6299 122.629H20.1431V128.116H25.6299V122.629Z" fill="#DED9E9"/>
<path d="M41.9229 94.5527H36.436V100.04H41.9229V94.5527Z" fill="#DED9E9"/>
<path d="M49.1343 94.5527H43.6475V100.04H49.1343V94.5527Z" fill="#DED9E9"/>
<path d="M56.3384 94.5527H50.8516V100.04H56.3384V94.5527Z" fill="#DED9E9"/>
<path d="M41.9229 102.994H36.436V108.48H41.9229V102.994Z" fill="#DED9E9"/>
<path d="M49.1343 102.994H43.6475V108.48H49.1343V102.994Z" fill="#DED9E9"/>
<path d="M56.3384 102.994H50.8516V108.48H56.3384V102.994Z" fill="#DED9E9"/>
<path d="M41.9229 111.441H36.436V116.928H41.9229V111.441Z" fill="#DED9E9"/>
<path d="M49.1343 111.441H43.6475V116.928H49.1343V111.441Z" fill="#DED9E9"/>
<path d="M56.3384 111.441H50.8516V116.928H56.3384V111.441Z" fill="#DED9E9"/>
<path d="M41.9229 119.889H36.436V125.376H41.9229V119.889Z" fill="#DED9E9"/>
<path d="M49.1343 119.889H43.6475V125.376H49.1343V119.889Z" fill="#DED9E9"/>
<path d="M56.3384 119.889H50.8516V125.376H56.3384V119.889Z" fill="#DED9E9"/>
</g>
</svg>
