<svg width="62" height="190" viewBox="0 0 62 190" fill="none" xmlns="http://www.w3.org/2000/svg">
<path d="M38.7421 78.4736H0.435547V198.461H38.7421V78.4736Z" fill="#F3F2F4"/>
<path d="M77.1796 104.735H38.873V194.952H77.1796V104.735Z" fill="#F3F2F4"/>
<path d="M14.1292 87.8667H7.4292V94.5667H14.1292V87.8667Z" fill="#DED9E9"/>
<path d="M22.9343 87.8667H16.2344V94.5667H22.9343V87.8667Z" fill="#DED9E9"/>
<path d="M31.7322 87.8667H25.0322V94.5667H31.7322V87.8667Z" fill="#DED9E9"/>
<path d="M14.1292 98.1816H7.4292V104.882H14.1292V98.1816Z" fill="#DED9E9"/>
<path d="M22.9343 98.1816H16.2344V104.882H22.9343V98.1816Z" fill="#DED9E9"/>
<path d="M31.7322 98.1816H25.0322V104.882H31.7322V98.1816Z" fill="#DED9E9"/>
<path d="M14.1292 108.497H7.4292V115.197H14.1292V108.497Z" fill="#DED9E9"/>
<path d="M22.9343 108.497H16.2344V115.197H22.9343V108.497Z" fill="#DED9E9"/>
<path d="M31.7322 108.497H25.0322V115.197H31.7322V108.497Z" fill="#DED9E9"/>
<path d="M14.1292 118.804H7.4292V125.504H14.1292V118.804Z" fill="#DED9E9"/>
<path d="M22.9343 118.804H16.2344V125.504H22.9343V118.804Z" fill="#DED9E9"/>
<path d="M31.7322 118.804H25.0322V125.504H31.7322V118.804Z" fill="#DED9E9"/>
<path d="M14.1292 129.119H7.4292V135.819H14.1292V129.119Z" fill="#DED9E9"/>
<path d="M22.9343 129.119H16.2344V135.819H22.9343V129.119Z" fill="#DED9E9"/>
<path d="M31.7322 129.119H25.0322V135.819H31.7322V129.119Z" fill="#DED9E9"/>
<path d="M14.1292 139.435H7.4292V146.135H14.1292V139.435Z" fill="#DED9E9"/>
<path d="M22.9343 139.435H16.2344V146.135H22.9343V139.435Z" fill="#DED9E9"/>
<path d="M31.7322 139.435H25.0322V146.135H31.7322V139.435Z" fill="#DED9E9"/>
<path d="M14.1292 149.742H7.4292V156.442H14.1292V149.742Z" fill="#DED9E9"/>
<path d="M22.9343 149.742H16.2344V156.442H22.9343V149.742Z" fill="#DED9E9"/>
<path d="M31.7322 149.742H25.0322V156.442H31.7322V149.742Z" fill="#DED9E9"/>
<path d="M51.6277 115.458H44.9277V122.158H51.6277V115.458Z" fill="#DED9E9"/>
<path d="M60.4334 115.458H53.7334V122.158H60.4334V115.458Z" fill="#DED9E9"/>
<path d="M51.6277 125.765H44.9277V132.465H51.6277V125.765Z" fill="#DED9E9"/>
<path d="M60.4334 125.765H53.7334V132.465H60.4334V125.765Z" fill="#DED9E9"/>
<path d="M51.6277 136.08H44.9277V142.78H51.6277V136.08Z" fill="#DED9E9"/>
<path d="M60.4334 136.08H53.7334V142.78H60.4334V136.08Z" fill="#DED9E9"/>
<path d="M51.6277 146.396H44.9277V153.096H51.6277V146.396Z" fill="#DED9E9"/>
<path d="M60.4334 146.396H53.7334V153.096H60.4334V146.396Z" fill="#DED9E9"/>
</svg>
