<svg width="56" height="212" viewBox="0 0 56 212" fill="none" xmlns="http://www.w3.org/2000/svg">
<path d="M55.3429 0H12.8579V200.659H55.3429V0Z" fill="#F3F2F4"/>
<path d="M28.0451 9.25879H20.6143V16.6896H28.0451V9.25879Z" fill="#DED9E9"/>
<path d="M37.8112 9.25879H30.3804V16.6896H37.8112V9.25879Z" fill="#DED9E9"/>
<path d="M47.5773 9.25879H40.1465V16.6896H47.5773V9.25879Z" fill="#DED9E9"/>
<path d="M28.0451 20.6909H20.6143V28.1217H28.0451V20.6909Z" fill="#DED9E9"/>
<path d="M37.8112 20.6909H30.3804V28.1217H37.8112V20.6909Z" fill="#DED9E9"/>
<path d="M47.5773 20.6909H40.1465V28.1217H47.5773V20.6909Z" fill="#DED9E9"/>
<path d="M28.0451 32.1309H20.6143V39.5617H28.0451V32.1309Z" fill="#DED9E9"/>
<path d="M37.8112 32.1309H30.3804V39.5617H37.8112V32.1309Z" fill="#DED9E9"/>
<path d="M47.5773 32.1309H40.1465V39.5617H47.5773V32.1309Z" fill="#DED9E9"/>
<path d="M28.0451 43.5713H20.6143V51.0021H28.0451V43.5713Z" fill="#DED9E9"/>
<path d="M37.8112 43.5713H30.3804V51.0021H37.8112V43.5713Z" fill="#DED9E9"/>
<path d="M47.5773 43.5713H40.1465V51.0021H47.5773V43.5713Z" fill="#DED9E9"/>
<path d="M28.0451 55.0029H20.6143V62.4337H28.0451V55.0029Z" fill="#DED9E9"/>
<path d="M37.8112 55.0029H30.3804V62.4337H37.8112V55.0029Z" fill="#DED9E9"/>
<path d="M47.5773 55.0029H40.1465V62.4337H47.5773V55.0029Z" fill="#DED9E9"/>
<path d="M28.0451 66.4429H20.6143V73.8737H28.0451V66.4429Z" fill="#DED9E9"/>
<path d="M37.8112 66.4429H30.3804V73.8737H37.8112V66.4429Z" fill="#DED9E9"/>
<path d="M47.5773 66.4429H40.1465V73.8737H47.5773V66.4429Z" fill="#DED9E9"/>
<path d="M28.0451 77.8833H20.6143V85.3141H28.0451V77.8833Z" fill="#DED9E9"/>
<path d="M37.8112 77.8833H30.3804V85.3141H37.8112V77.8833Z" fill="#DED9E9"/>
<path d="M47.5773 77.8833H40.1465V85.3141H47.5773V77.8833Z" fill="#DED9E9"/>
<path d="M28.0451 89.3149H20.6143V96.7457H28.0451V89.3149Z" fill="#DED9E9"/>
<path d="M37.8112 89.3149H30.3804V96.7457H37.8112V89.3149Z" fill="#DED9E9"/>
<path d="M47.5773 89.3149H40.1465V96.7457H47.5773V89.3149Z" fill="#DED9E9"/>
<path d="M28.0451 100.755H20.6143V108.186H28.0451V100.755Z" fill="#DED9E9"/>
<path d="M37.8112 100.755H30.3804V108.186H37.8112V100.755Z" fill="#DED9E9"/>
<path d="M47.5773 100.755H40.1465V108.186H47.5773V100.755Z" fill="#DED9E9"/>
<path d="M28.0451 112.195H20.6143V119.626H28.0451V112.195Z" fill="#DED9E9"/>
<path d="M37.8112 112.195H30.3804V119.626H37.8112V112.195Z" fill="#DED9E9"/>
<path d="M47.5773 112.195H40.1465V119.626H47.5773V112.195Z" fill="#DED9E9"/>
<path d="M28.0451 123.626H20.6143V131.057H28.0451V123.626Z" fill="#DED9E9"/>
<path d="M37.8112 123.626H30.3804V131.057H37.8112V123.626Z" fill="#DED9E9"/>
<path d="M47.5773 123.626H40.1465V131.057H47.5773V123.626Z" fill="#DED9E9"/>
<path d="M28.0451 135.067H20.6143V142.498H28.0451V135.067Z" fill="#DED9E9"/>
<path d="M37.8112 135.067H30.3804V142.498H37.8112V135.067Z" fill="#DED9E9"/>
<path d="M47.5773 135.067H40.1465V142.498H47.5773V135.067Z" fill="#DED9E9"/>
<path d="M28.0451 146.227H20.6143V153.657H28.0451V146.227Z" fill="#DED9E9"/>
<path d="M37.8112 146.227H30.3804V153.657H37.8112V146.227Z" fill="#DED9E9"/>
<path d="M47.5773 146.227H40.1465V153.657H47.5773V146.227Z" fill="#DED9E9"/>
<path d="M28.0451 157.386H20.6143V164.817H28.0451V157.386Z" fill="#DED9E9"/>
<path d="M37.8112 157.386H30.3804V164.817H37.8112V157.386Z" fill="#DED9E9"/>
<path d="M47.5773 157.386H40.1465V164.817H47.5773V157.386Z" fill="#DED9E9"/>
<path d="M8.1154 116.16H-34.3696V216.218H8.1154V116.16Z" fill="#F3F2F4"/>
</svg>
