<svg width="103" height="163" viewBox="0 0 103 163" fill="none" xmlns="http://www.w3.org/2000/svg">
<g opacity="0.5">
<path d="M103 0H70.0225V155.756H103V0Z" fill="#F3F2F4"/>
<path d="M81.8109 7.18701H76.043V12.955H81.8109V7.18701Z" fill="#DED9E9"/>
<path d="M89.391 7.18701H83.623V12.955H89.391V7.18701Z" fill="#DED9E9"/>
<path d="M96.9721 7.18701H91.2041V12.955H96.9721V7.18701Z" fill="#DED9E9"/>
<path d="M81.8109 16.0605H76.043V21.8285H81.8109V16.0605Z" fill="#DED9E9"/>
<path d="M89.391 16.0605H83.623V21.8285H89.391V16.0605Z" fill="#DED9E9"/>
<path d="M96.9721 16.0605H91.2041V21.8285H96.9721V16.0605Z" fill="#DED9E9"/>
<path d="M81.8109 24.9404H76.043V30.7084H81.8109V24.9404Z" fill="#DED9E9"/>
<path d="M89.391 24.9404H83.623V30.7084H89.391V24.9404Z" fill="#DED9E9"/>
<path d="M96.9721 24.9404H91.2041V30.7084H96.9721V24.9404Z" fill="#DED9E9"/>
<path d="M81.8109 33.8208H76.043V39.5888H81.8109V33.8208Z" fill="#DED9E9"/>
<path d="M89.391 33.8208H83.623V39.5888H89.391V33.8208Z" fill="#DED9E9"/>
<path d="M96.9721 33.8208H91.2041V39.5888H96.9721V33.8208Z" fill="#DED9E9"/>
<path d="M81.8109 42.6943H76.043V48.4623H81.8109V42.6943Z" fill="#DED9E9"/>
<path d="M89.391 42.6943H83.623V48.4623H89.391V42.6943Z" fill="#DED9E9"/>
<path d="M96.9721 42.6943H91.2041V48.4623H96.9721V42.6943Z" fill="#DED9E9"/>
<path d="M81.8109 51.5747H76.043V57.3427H81.8109V51.5747Z" fill="#DED9E9"/>
<path d="M89.391 51.5747H83.623V57.3427H89.391V51.5747Z" fill="#DED9E9"/>
<path d="M96.9721 51.5747H91.2041V57.3427H96.9721V51.5747Z" fill="#DED9E9"/>
<path d="M81.8109 60.4546H76.043V66.2225H81.8109V60.4546Z" fill="#DED9E9"/>
<path d="M89.391 60.4546H83.623V66.2225H89.391V60.4546Z" fill="#DED9E9"/>
<path d="M96.9721 60.4546H91.2041V66.2225H96.9721V60.4546Z" fill="#DED9E9"/>
<path d="M81.8109 69.3286H76.043V75.0966H81.8109V69.3286Z" fill="#DED9E9"/>
<path d="M89.391 69.3286H83.623V75.0966H89.391V69.3286Z" fill="#DED9E9"/>
<path d="M96.9721 69.3286H91.2041V75.0966H96.9721V69.3286Z" fill="#DED9E9"/>
<path d="M81.8109 78.2085H76.043V83.9765H81.8109V78.2085Z" fill="#DED9E9"/>
<path d="M89.391 78.2085H83.623V83.9765H89.391V78.2085Z" fill="#DED9E9"/>
<path d="M96.9721 78.2085H91.2041V83.9765H96.9721V78.2085Z" fill="#DED9E9"/>
<path d="M81.8109 87.0884H76.043V92.8563H81.8109V87.0884Z" fill="#DED9E9"/>
<path d="M89.391 87.0884H83.623V92.8563H89.391V87.0884Z" fill="#DED9E9"/>
<path d="M96.9721 87.0884H91.2041V92.8563H96.9721V87.0884Z" fill="#DED9E9"/>
<path d="M81.8109 95.9619H76.043V101.73H81.8109V95.9619Z" fill="#DED9E9"/>
<path d="M89.391 95.9619H83.623V101.73H89.391V95.9619Z" fill="#DED9E9"/>
<path d="M96.9721 95.9619H91.2041V101.73H96.9721V95.9619Z" fill="#DED9E9"/>
<path d="M81.8109 104.842H76.043V110.61H81.8109V104.842Z" fill="#DED9E9"/>
<path d="M89.391 104.842H83.623V110.61H89.391V104.842Z" fill="#DED9E9"/>
<path d="M96.9721 104.842H91.2041V110.61H96.9721V104.842Z" fill="#DED9E9"/>
<path d="M81.8109 113.504H76.043V119.272H81.8109V113.504Z" fill="#DED9E9"/>
<path d="M89.391 113.504H83.623V119.272H89.391V113.504Z" fill="#DED9E9"/>
<path d="M96.9721 113.504H91.2041V119.272H96.9721V113.504Z" fill="#DED9E9"/>
<path d="M81.8109 122.167H76.043V127.935H81.8109V122.167Z" fill="#DED9E9"/>
<path d="M89.391 122.167H83.623V127.935H89.391V122.167Z" fill="#DED9E9"/>
<path d="M96.9721 122.167H91.2041V127.935H96.9721V122.167Z" fill="#DED9E9"/>
<path d="M33.2507 67.5576H0.272949V170.854H33.2507V67.5576Z" fill="#F3F2F4"/>
<path d="M66.3406 90.1655H33.3628V167.833H66.3406V90.1655Z" fill="#F3F2F4"/>
<path d="M12.0614 75.6436H6.29346V81.4115H12.0614V75.6436Z" fill="#DED9E9"/>
<path d="M19.6425 75.6436H13.8745V81.4115H19.6425V75.6436Z" fill="#DED9E9"/>
<path d="M27.2157 75.6436H21.4478V81.4115H27.2157V75.6436Z" fill="#DED9E9"/>
<path d="M12.0614 84.5239H6.29346V90.2919H12.0614V84.5239Z" fill="#DED9E9"/>
<path d="M19.6425 84.5239H13.8745V90.2919H19.6425V84.5239Z" fill="#DED9E9"/>
<path d="M27.2157 84.5239H21.4478V90.2919H27.2157V84.5239Z" fill="#DED9E9"/>
<path d="M12.0614 93.4048H6.29346V99.1727H12.0614V93.4048Z" fill="#DED9E9"/>
<path d="M19.6425 93.4048H13.8745V99.1727H19.6425V93.4048Z" fill="#DED9E9"/>
<path d="M27.2157 93.4048H21.4478V99.1727H27.2157V93.4048Z" fill="#DED9E9"/>
<path d="M12.0614 102.278H6.29346V108.046H12.0614V102.278Z" fill="#DED9E9"/>
<path d="M19.6425 102.278H13.8745V108.046H19.6425V102.278Z" fill="#DED9E9"/>
<path d="M27.2157 102.278H21.4478V108.046H27.2157V102.278Z" fill="#DED9E9"/>
<path d="M12.0614 111.158H6.29346V116.926H12.0614V111.158Z" fill="#DED9E9"/>
<path d="M19.6425 111.158H13.8745V116.926H19.6425V111.158Z" fill="#DED9E9"/>
<path d="M27.2157 111.158H21.4478V116.926H27.2157V111.158Z" fill="#DED9E9"/>
<path d="M12.0614 120.039H6.29346V125.807H12.0614V120.039Z" fill="#DED9E9"/>
<path d="M19.6425 120.039H13.8745V125.807H19.6425V120.039Z" fill="#DED9E9"/>
<path d="M27.2157 120.039H21.4478V125.807H27.2157V120.039Z" fill="#DED9E9"/>
<path d="M12.0614 128.912H6.29346V134.68H12.0614V128.912Z" fill="#DED9E9"/>
<path d="M19.6425 128.912H13.8745V134.68H19.6425V128.912Z" fill="#DED9E9"/>
<path d="M27.2157 128.912H21.4478V134.68H27.2157V128.912Z" fill="#DED9E9"/>
<path d="M44.3436 99.397H38.5757V105.165H44.3436V99.397Z" fill="#DED9E9"/>
<path d="M51.9242 99.397H46.1562V105.165H51.9242V99.397Z" fill="#DED9E9"/>
<path d="M59.4979 99.397H53.73V105.165H59.4979V99.397Z" fill="#DED9E9"/>
<path d="M44.3436 108.271H38.5757V114.038H44.3436V108.271Z" fill="#DED9E9"/>
<path d="M51.9242 108.271H46.1562V114.038H51.9242V108.271Z" fill="#DED9E9"/>
<path d="M59.4979 108.271H53.73V114.038H59.4979V108.271Z" fill="#DED9E9"/>
<path d="M44.3436 117.15H38.5757V122.918H44.3436V117.15Z" fill="#DED9E9"/>
<path d="M51.9242 117.15H46.1562V122.918H51.9242V117.15Z" fill="#DED9E9"/>
<path d="M59.4979 117.15H53.73V122.918H59.4979V117.15Z" fill="#DED9E9"/>
<path d="M44.3436 126.031H38.5757V131.799H44.3436V126.031Z" fill="#DED9E9"/>
<path d="M51.9242 126.031H46.1562V131.799H51.9242V126.031Z" fill="#DED9E9"/>
<path d="M59.4979 126.031H53.73V131.799H59.4979V126.031Z" fill="#DED9E9"/>
</g>
</svg>
