<svg width="16" height="16" viewBox="0 0 16 16" fill="none" xmlns="http://www.w3.org/2000/svg">
<path fill-rule="evenodd" clip-rule="evenodd" d="M14.1875 8C14.1875 6.77623 13.8246 5.57994 13.1447 4.56241C12.4648 3.54488 11.4985 2.75181 10.3679 2.2835C9.23724 1.81518 7.99314 1.69264 6.79288 1.93139C5.59262 2.17014 4.49012 2.75944 3.62478 3.62478C2.75944 4.49011 2.17014 5.59262 1.93139 6.79288C1.69265 7.99314 1.81518 9.23724 2.2835 10.3679C2.75182 11.4985 3.54488 12.4648 4.56241 13.1447C5.57994 13.8246 6.77623 14.1875 8 14.1875C9.64046 14.1856 11.2132 13.5331 12.3732 12.3732C13.5331 11.2132 14.1856 9.64046 14.1875 8ZM11.3326 6.0971C11.3043 6.02881 11.2628 5.96677 11.2105 5.91453C11.1582 5.86223 11.0962 5.82074 11.0279 5.79244C10.9596 5.76413 10.8864 5.74956 10.8125 5.74956C10.7386 5.74956 10.6654 5.76413 10.5971 5.79244C10.5288 5.82074 10.4668 5.86223 10.4145 5.91453L6.875 9.45477L5.58547 8.16453C5.47992 8.05898 5.33677 7.99969 5.1875 7.99969C5.03824 7.99969 4.89508 8.05898 4.78953 8.16453C4.68399 8.27008 4.62469 8.41323 4.62469 8.5625C4.62469 8.71177 4.68399 8.85492 4.78953 8.96047L6.47703 10.648C6.52928 10.7003 6.59131 10.7418 6.6596 10.7701C6.72789 10.7984 6.80108 10.8129 6.875 10.8129C6.94892 10.8129 7.02212 10.7984 7.09041 10.7701C7.15869 10.7418 7.22073 10.7003 7.27297 10.648L11.2105 6.71047C11.2628 6.65823 11.3043 6.59619 11.3326 6.5279C11.3609 6.45962 11.3754 6.38642 11.3754 6.3125C11.3754 6.23858 11.3609 6.16538 11.3326 6.0971Z" fill="#9AC9C2"/>
<path fill-rule="evenodd" clip-rule="evenodd" d="M14.0801 12.0626C14.8836 10.8601 15.3125 9.44628 15.3125 8C15.3105 6.06123 14.5394 4.20246 13.1685 2.83154C11.7975 1.46063 9.93877 0.689547 8 0.6875C6.55373 0.6875 5.13993 1.11637 3.9374 1.91988C2.73486 2.72339 1.7976 3.86544 1.24413 5.20163C0.690668 6.53781 0.545856 8.00811 0.828011 9.4266C1.11017 10.8451 1.80661 12.148 2.82928 13.1707C3.85196 14.1934 5.15492 14.8898 6.57341 15.172C7.99189 15.4541 9.46219 15.3093 10.7984 14.7559C12.1346 14.2024 13.2766 13.2651 14.0801 12.0626ZM13.1447 4.56241C13.8246 5.57994 14.1875 6.77623 14.1875 8C14.1856 9.64046 13.5331 11.2132 12.3732 12.3732C11.2132 13.5331 9.64046 14.1856 8 14.1875C6.77623 14.1875 5.57994 13.8246 4.56241 13.1447C3.54488 12.4648 2.75182 11.4985 2.2835 10.3679C1.81518 9.23724 1.69265 7.99314 1.93139 6.79288C2.17014 5.59262 2.75944 4.49011 3.62478 3.62478C4.49012 2.75944 5.59262 2.17014 6.79288 1.93139C7.99314 1.69264 9.23724 1.81518 10.3679 2.2835C11.4985 2.75181 12.4648 3.54488 13.1447 4.56241Z" fill="#9AC9C2"/>
</svg>
