<svg width="68" height="26" viewBox="0 0 68 26" fill="none" xmlns="http://www.w3.org/2000/svg">
<g opacity="0.5">
<path d="M66.8031 24.9501C67.6219 22.0478 67.5098 18.9618 66.4826 16.1266C65.4553 13.2913 63.5646 10.8497 61.0767 9.14554C58.5889 7.44134 55.6291 6.56041 52.6142 6.62678C49.5994 6.69315 46.6813 7.70348 44.2708 9.51551C43.5536 6.59714 41.809 4.03488 39.3564 2.29821C36.9038 0.561537 33.9076 -0.233259 30.9166 0.0594474C27.9691 0.533013 25.2885 2.046 23.3598 4.32463C21.4311 6.60326 20.3817 9.49701 20.4016 12.4823C18.676 11.1529 16.633 10.2976 14.475 10.0012C12.317 9.70476 10.119 9.97749 8.09893 10.7923C4.09569 12.4597 0.655762 18.1078 0.655762 25.5585L66.8031 24.9501Z" fill="#0071F7"/>
<mask id="mask0_1401_7244" style="mask-type:luminance" maskUnits="userSpaceOnUse" x="0" y="0" width="68" height="26">
<path d="M66.8031 24.9501C67.6219 22.0478 67.5098 18.9618 66.4826 16.1266C65.4553 13.2913 63.5646 10.8497 61.0767 9.14554C58.5889 7.44134 55.6291 6.56041 52.6142 6.62678C49.5994 6.69315 46.6813 7.70348 44.2708 9.51551C43.5536 6.59714 41.809 4.03488 39.3564 2.29821C36.9038 0.561537 33.9076 -0.233259 30.9166 0.0594474C27.9691 0.533013 25.2885 2.046 23.3598 4.32463C21.4311 6.60326 20.3817 9.49701 20.4016 12.4823C18.676 11.1529 16.633 10.2976 14.475 10.0012C12.317 9.70476 10.119 9.97749 8.09893 10.7923C4.09569 12.4597 0.655762 18.1078 0.655762 25.5585L66.8031 24.9501Z" fill="white"/>
</mask>
<g mask="url(#mask0_1401_7244)">
<path d="M54.117 33.6323C54.117 33.6323 54.2072 33.4145 54.4024 32.9863C54.5977 32.5582 54.8831 31.9273 55.2512 31.1011C56.0022 29.4413 57.1439 26.9927 58.5934 23.8307C61.5302 17.4841 65.7888 8.24587 71.1364 -3.33573L71.3392 -3.18552C60.58 6.49516 50.9364 17.348 42.588 29.1709L41.8369 30.275L42.3176 29.0131C45.9378 19.4444 51.3906 9.5903 57.204 -0.639369L57.4819 -0.399025C52.2531 3.81117 47.4712 8.54784 43.2114 13.7362C38.7575 18.9938 34.574 24.7846 30.3379 30.6505L30.0075 30.4477L34.5139 21.9005L45.0741 1.95185L45.367 2.19219C40.5085 6.50042 36.218 11.4093 32.5987 16.8006C28.986 22.0131 25.839 27.3758 22.8347 32.5732L22.5192 32.393L39.5086 1.28339L39.7865 1.44112C32.7489 13.6611 25.8991 23.9734 19.913 32.3179L19.3271 33.1441L19.7102 32.2052C23.9538 21.7803 27.3111 13.5335 29.6169 7.89286C30.766 5.07633 31.6523 2.92074 32.2532 1.44863C32.5611 0.697553 32.7864 0.171795 32.9442 -0.203743L33.1845 -0.759538C33.1845 -0.759538 33.1169 -0.564257 32.9742 -0.188718L32.3208 1.47116C31.7274 2.97331 30.8637 5.12139 29.7296 7.93793C27.4763 13.5935 24.134 21.8554 19.9656 32.2954L19.7553 32.1827C25.7113 23.8082 32.5236 13.5034 39.5461 1.28339L39.824 1.4336C34.6266 10.9873 28.9409 21.4198 22.8797 32.5657L22.5568 32.3855C25.5611 27.1805 28.7081 21.8103 32.3208 16.5753C35.955 11.1551 40.2659 6.22073 45.1492 1.89176L45.9002 1.21579L45.4196 2.12459L34.8819 22.1183L30.3755 30.6655L30.045 30.4627C34.2586 24.5593 38.427 18.791 42.9335 13.4884C47.2163 8.28206 52.0235 3.53026 57.2791 -0.691944L58.0301 -1.27778L57.557 -0.4516C51.7211 9.77056 46.2908 19.6022 42.618 29.1333L42.3251 28.9756C50.7016 17.1456 60.3811 6.29449 71.1815 -3.37329L71.6472 -3.78638L71.3843 -3.22307L58.7061 23.8833L55.3188 31.1312L54.4325 33.0014C54.1996 33.422 54.117 33.6323 54.117 33.6323Z" fill="white"/>
<path d="M5.61279 33.5124C5.79678 33.1619 6.01036 32.8277 6.25121 32.5135C6.69434 31.8826 7.31774 30.9663 8.06881 29.8246C10.0203 26.844 11.7958 23.7518 13.3864 20.5639C14.9656 17.3678 16.3574 14.0825 17.5549 10.7248C18.0131 9.43291 18.3661 8.38891 18.6064 7.66037C18.7132 7.27765 18.8488 6.90354 19.012 6.54126C18.9606 6.93417 18.8726 7.32141 18.7491 7.69792C18.5614 8.449 18.2459 9.50802 17.8178 10.8149C16.6942 14.2142 15.3313 17.5298 13.7394 20.7366C12.146 23.9414 10.3263 27.0286 8.29414 29.9749C7.54306 31.1015 6.85207 32.0028 6.37889 32.6036C6.15001 32.9279 5.89371 33.232 5.61279 33.5124Z" fill="white"/>
</g>
</g>
</svg>
