<svg width="18" height="16" viewBox="0 0 18 16" fill="none" xmlns="http://www.w3.org/2000/svg">
<path d="M12.0967 6.02384L8.01801 3.23314C7.91561 3.16302 7.79658 3.12276 7.67362 3.11665C7.55066 3.11053 7.4284 3.1388 7.31988 3.19843C7.21135 3.25806 7.12064 3.34681 7.05742 3.45522C6.99421 3.56363 6.96086 3.68762 6.96094 3.81396V9.39535C6.96086 9.52169 6.99421 9.64568 7.05742 9.75409C7.12064 9.86249 7.21135 9.95125 7.31988 10.0109C7.4284 10.0705 7.55066 10.0988 7.67362 10.0927C7.79658 10.0865 7.91561 10.0463 8.01801 9.97617L12.0967 7.18547C12.19 7.12178 12.2664 7.03544 12.3193 6.93411C12.3722 6.83278 12.3999 6.71961 12.3999 6.60465C12.3999 6.4897 12.3722 6.37653 12.3193 6.2752C12.2664 6.17387 12.19 6.08753 12.0967 6.02384ZM8.32051 8.09157V5.1221L10.4941 6.60465L8.32051 8.09157ZM16.4779 0.325584H1.52266C1.16208 0.325584 0.816264 0.472594 0.561295 0.734273C0.306326 0.995951 0.163086 1.35086 0.163086 1.72093V11.4884C0.163086 11.8584 0.306326 12.2134 0.561295 12.475C0.816264 12.7367 1.16208 12.8837 1.52266 12.8837H16.4779C16.8385 12.8837 17.1843 12.7367 17.4393 12.475C17.6943 12.2134 17.8375 11.8584 17.8375 11.4884V1.72093C17.8375 1.35086 17.6943 0.995951 17.4393 0.734273C17.1843 0.472594 16.8385 0.325584 16.4779 0.325584ZM16.4779 11.4884H1.52266V1.72093H16.4779V11.4884ZM17.8375 14.9767C17.8375 15.1618 17.7659 15.3392 17.6384 15.4701C17.5109 15.6009 17.338 15.6744 17.1577 15.6744H0.842871C0.662581 15.6744 0.489675 15.6009 0.36219 15.4701C0.234706 15.3392 0.163086 15.1618 0.163086 14.9767C0.163086 14.7917 0.234706 14.6143 0.36219 14.4834C0.489675 14.3526 0.662581 14.2791 0.842871 14.2791H17.1577C17.338 14.2791 17.5109 14.3526 17.6384 14.4834C17.7659 14.6143 17.8375 14.7917 17.8375 14.9767Z" fill="#7A7D84"/>
</svg>
