<svg width="25" height="25" viewBox="0 0 25 25" fill="none" xmlns="http://www.w3.org/2000/svg">
<path d="M19.4379 12.4849L22.8066 9.13163C23.271 8.68528 23.6415 8.15135 23.8964 7.56101C24.1512 6.97067 24.2854 6.33573 24.291 5.69325C24.2966 5.05077 24.1735 4.41361 23.929 3.81896C23.6845 3.2243 23.3235 2.68404 22.8669 2.22973C22.4103 1.77541 21.8673 1.41612 21.2697 1.17282C20.6721 0.929527 20.0318 0.8071 19.3861 0.812683C18.7404 0.818266 18.1023 0.951747 17.509 1.20534C16.9157 1.45893 16.3791 1.82755 15.9306 2.2897L12.5606 5.64172L9.19068 2.2897C8.7421 1.82755 8.20551 1.45893 7.61223 1.20534C7.01894 0.951747 6.38084 0.818266 5.73516 0.812683C5.08948 0.8071 4.44914 0.929527 3.85152 1.17282C3.2539 1.41612 2.71095 1.77541 2.25437 2.22973C1.79778 2.68404 1.4367 3.2243 1.1922 3.81896C0.947689 4.41361 0.824651 5.05077 0.830262 5.69325C0.835873 6.33573 0.97002 6.97067 1.22488 7.56101C1.47973 8.15135 1.85019 8.68528 2.31464 9.13163L5.68336 12.4849L2.31464 15.8381C1.85019 16.2844 1.47973 16.8184 1.22488 17.4087C0.97002 17.9991 0.835873 18.634 0.830262 19.2765C0.824651 19.9189 0.947689 20.5561 1.1922 21.1508C1.4367 21.7454 1.79778 22.2857 2.25437 22.74C2.71095 23.1943 3.2539 23.5536 3.85152 23.7969C4.44914 24.0402 5.08948 24.1626 5.73516 24.157C6.38084 24.1515 7.01894 24.018 7.61223 23.7644C8.20551 23.5108 8.7421 23.1422 9.19068 22.68L12.5606 19.328L15.9306 22.68C16.3791 23.1422 16.9157 23.5108 17.509 23.7644C18.1023 24.018 18.7404 24.1515 19.3861 24.157C20.0318 24.1626 20.6721 24.0402 21.2697 23.7969C21.8673 23.5536 22.4103 23.1943 22.8669 22.74C23.3235 22.2857 23.6845 21.7454 23.929 21.1508C24.1735 20.5561 24.2966 19.9189 24.291 19.2765C24.2854 18.634 24.1512 17.9991 23.8964 17.4087C23.6415 16.8184 23.271 16.2844 22.8066 15.8381L19.4379 12.4849ZM12.5606 8.37921L16.6867 12.4849L12.5606 16.5905L8.43451 12.4849L12.5606 8.37921ZM17.3019 3.66147C17.849 3.11607 18.5915 2.80928 19.366 2.8086C20.1405 2.80792 20.8835 3.1134 21.4316 3.65785C21.9798 4.20229 22.2881 4.94109 22.2888 5.71173C22.2894 6.48237 21.9824 7.22171 21.4353 7.76712L18.0653 11.1203L13.9356 7.01107L17.3019 3.66147ZM7.81936 21.3155C7.54796 21.5856 7.22576 21.7998 6.87115 21.9459C6.51655 22.0921 6.13648 22.1673 5.75266 22.1673C5.36884 22.1673 4.98877 22.0921 4.63417 21.9459C4.27956 21.7998 3.95736 21.5856 3.68596 21.3155C3.41456 21.0454 3.19927 20.7248 3.05238 20.372C2.9055 20.0191 2.8299 19.641 2.8299 19.2591C2.8299 18.8771 2.9055 18.499 3.05238 18.1461C3.19927 17.7933 3.41456 17.4727 3.68596 17.2026L7.0559 13.8494L11.182 17.955L7.81936 21.3155Z" fill="white"/>
</svg>
