<svg width="19" height="19" viewBox="0 0 19 19" fill="none" xmlns="http://www.w3.org/2000/svg">
<path d="M2.875 11.5H1.375C1.17609 11.5 0.985322 11.579 0.84467 11.7197C0.704018 11.8603 0.625 12.0511 0.625 12.25V17.5C0.625 17.6989 0.704018 17.8897 0.84467 18.0303C0.985322 18.171 1.17609 18.25 1.375 18.25H2.875C3.77011 18.25 4.62855 17.8944 5.26149 17.2615C5.89442 16.6285 6.25 15.7701 6.25 14.875C6.25 13.9799 5.89442 13.1215 5.26149 12.4885C4.62855 11.8556 3.77011 11.5 2.875 11.5ZM2.875 16.75H2.125V13H2.875C3.37228 13 3.84919 13.1975 4.20083 13.5492C4.55246 13.9008 4.75 14.3777 4.75 14.875C4.75 15.3723 4.55246 15.8492 4.20083 16.2008C3.84919 16.5525 3.37228 16.75 2.875 16.75ZM18.7684 16.2897C18.9121 16.4272 18.9953 16.6161 18.9997 16.815C19.0041 17.0138 18.9294 17.2063 18.7919 17.35C18.5307 17.6311 18.2149 17.8559 17.8638 18.0107C17.5127 18.1655 17.1337 18.2469 16.75 18.25C15.0953 18.25 13.75 16.7359 13.75 14.875C13.75 13.0141 15.0953 11.5 16.75 11.5C17.1337 11.5031 17.5127 11.5845 17.8638 11.7393C18.2149 11.8941 18.5307 12.1189 18.7919 12.4C18.9264 12.5443 18.9986 12.7357 18.993 12.9329C18.9874 13.13 18.9043 13.317 18.7618 13.4534C18.6193 13.5897 18.4288 13.6644 18.2316 13.6613C18.0344 13.6583 17.8463 13.5776 17.7081 13.4369C17.5864 13.3029 17.4387 13.1951 17.274 13.12C17.1092 13.0449 16.931 13.0041 16.75 13C15.9231 13 15.25 13.8438 15.25 14.875C15.25 15.9062 15.9231 16.75 16.75 16.75C16.931 16.7459 17.1092 16.7051 17.274 16.63C17.4387 16.5549 17.5864 16.4471 17.7081 16.3131C17.8456 16.1694 18.0346 16.0862 18.2334 16.0818C18.4323 16.0774 18.6247 16.1522 18.7684 16.2897ZM10 11.5C8.34531 11.5 7 13.0141 7 14.875C7 16.7359 8.34531 18.25 10 18.25C11.6547 18.25 13 16.7359 13 14.875C13 13.0141 11.6547 11.5 10 11.5ZM10 16.75C9.17313 16.75 8.5 15.9062 8.5 14.875C8.5 13.8438 9.17313 13 10 13C10.8269 13 11.5 13.8438 11.5 14.875C11.5 15.9062 10.8269 16.75 10 16.75ZM2.5 9.25C2.69891 9.25 2.88968 9.17098 3.03033 9.03033C3.17098 8.88968 3.25 8.69891 3.25 8.5V1.75H11.5V6.25C11.5 6.44891 11.579 6.63968 11.7197 6.78033C11.8603 6.92098 12.0511 7 12.25 7H16.75V8.5C16.75 8.69891 16.829 8.88968 16.9697 9.03033C17.1103 9.17098 17.3011 9.25 17.5 9.25C17.6989 9.25 17.8897 9.17098 18.0303 9.03033C18.171 8.88968 18.25 8.69891 18.25 8.5V6.25C18.2501 6.15148 18.2307 6.05391 18.1931 5.96286C18.1555 5.87182 18.1003 5.78908 18.0306 5.71938L12.7806 0.469375C12.7109 0.399749 12.6282 0.344539 12.5371 0.306898C12.4461 0.269257 12.3485 0.249923 12.25 0.25H3.25C2.85218 0.25 2.47064 0.408035 2.18934 0.68934C1.90804 0.970645 1.75 1.35218 1.75 1.75V8.5C1.75 8.69891 1.82902 8.88968 1.96967 9.03033C2.11032 9.17098 2.30109 9.25 2.5 9.25ZM13 2.81031L15.6897 5.5H13V2.81031Z" fill="black"/>
</svg>
