<svg width="16" height="14" viewBox="0 0 16 14" fill="none" xmlns="http://www.w3.org/2000/svg">
<path d="M11.0938 3.34375C11.0938 2.73187 10.9123 2.13372 10.5724 1.62496C10.2324 1.11619 9.74924 0.719658 9.18393 0.485499C8.61862 0.25134 7.99657 0.190074 7.39644 0.309447C6.79631 0.42882 6.24506 0.723471 5.81239 1.15614C5.37972 1.58881 5.08507 2.14006 4.9657 2.74019C4.84632 3.34032 4.90759 3.96237 5.14175 4.52768C5.37591 5.09299 5.77244 5.57617 6.28121 5.91611C6.78997 6.25606 7.38812 6.4375 8 6.4375C8.82023 6.43657 9.6066 6.11032 10.1866 5.53034C10.7666 4.95035 11.0928 4.16398 11.0938 3.34375ZM8 5.3125C7.61062 5.3125 7.22998 5.19704 6.90622 4.98071C6.58246 4.76438 6.33012 4.4569 6.18111 4.09716C6.0321 3.73742 5.99312 3.34157 6.06908 2.95967C6.14505 2.57777 6.33255 2.22697 6.60789 1.95164C6.88322 1.6763 7.23402 1.4888 7.61592 1.41283C7.99782 1.33687 8.39367 1.37585 8.75341 1.52486C9.11315 1.67387 9.42063 1.92621 9.63696 2.24997C9.85329 2.57373 9.96875 2.95437 9.96875 3.34375C9.96875 3.8659 9.76133 4.36666 9.39212 4.73587C9.02291 5.10508 8.52215 5.3125 8 5.3125ZM12.2188 7C11.6069 7 11.0087 7.18145 10.5 7.52139C9.99119 7.86134 9.59466 8.34452 9.3605 8.90982C9.12634 9.47513 9.06507 10.0972 9.18445 10.6973C9.30382 11.2974 9.59847 11.8487 10.0311 12.2814C10.4638 12.714 11.0151 13.0087 11.6152 13.1281C12.2153 13.2474 12.8374 13.1862 13.4027 12.952C13.968 12.7178 14.4512 12.3213 14.7911 11.8125C15.1311 11.3038 15.3125 10.7056 15.3125 10.0938C15.3116 9.27352 14.9853 8.48716 14.4053 7.90717C13.8253 7.32718 13.039 7.00093 12.2188 7ZM12.2188 12.0625C11.8294 12.0625 11.4487 11.947 11.125 11.7307C10.8012 11.5144 10.5489 11.2069 10.3999 10.8472C10.2509 10.4874 10.2119 10.0916 10.2878 9.70967C10.3638 9.32777 10.5513 8.97697 10.8266 8.70163C11.102 8.4263 11.4528 8.2388 11.8347 8.16283C12.2166 8.08687 12.6124 8.12585 12.9722 8.27486C13.3319 8.42387 13.6394 8.67621 13.8557 8.99997C14.072 9.32373 14.1875 9.70437 14.1875 10.0938C14.1875 10.6159 13.9801 11.1167 13.6109 11.4859C13.2417 11.8551 12.7409 12.0625 12.2188 12.0625ZM3.78125 7C3.16937 7 2.57122 7.18145 2.06246 7.52139C1.55369 7.86134 1.15716 8.34452 0.922999 8.90982C0.68884 9.47513 0.627574 10.0972 0.746947 10.6973C0.86632 11.2974 1.16097 11.8487 1.59364 12.2814C2.02631 12.714 2.57756 13.0087 3.17769 13.1281C3.77782 13.2474 4.39987 13.1862 4.96518 12.952C5.53049 12.7178 6.01367 12.3213 6.35361 11.8125C6.69356 11.3038 6.875 10.7056 6.875 10.0938C6.87407 9.27352 6.54782 8.48716 5.96784 7.90717C5.38785 7.32718 4.60148 7.00093 3.78125 7ZM3.78125 12.0625C3.39187 12.0625 3.01123 11.947 2.68747 11.7307C2.36371 11.5144 2.11137 11.2069 1.96236 10.8472C1.81335 10.4874 1.77437 10.0916 1.85033 9.70967C1.9263 9.32777 2.1138 8.97697 2.38914 8.70163C2.66447 8.4263 3.01527 8.2388 3.39717 8.16283C3.77907 8.08687 4.17492 8.12585 4.53466 8.27486C4.8944 8.42387 5.20188 8.67621 5.41821 8.99997C5.63454 9.32373 5.75 9.70437 5.75 10.0938C5.75 10.6159 5.54258 11.1167 5.17337 11.4859C4.80416 11.8551 4.3034 12.0625 3.78125 12.0625Z" fill="white"/>
</svg>
