<svg width="12" height="12" viewBox="0 0 12 12" fill="none" xmlns="http://www.w3.org/2000/svg">
<path d="M12.001 7.5V11C12.001 11.2652 11.8956 11.5196 11.7081 11.7071C11.5205 11.8946 11.2662 12 11.001 12H1.00098C0.73576 12 0.481406 11.8946 0.29387 11.7071C0.106333 11.5196 0.000976563 11.2652 0.000976562 11V7.5C0.000976562 7.36739 0.0536551 7.24021 0.147423 7.14645C0.241191 7.05268 0.368368 7 0.500977 7C0.633585 7 0.760762 7.05268 0.85453 7.14645C0.948298 7.24021 1.00098 7.36739 1.00098 7.5V11H11.001V7.5C11.001 7.36739 11.0537 7.24021 11.1474 7.14645C11.2412 7.05268 11.3684 7 11.501 7C11.6336 7 11.7608 7.05268 11.8545 7.14645C11.9483 7.24021 12.001 7.36739 12.001 7.5ZM5.64723 7.85375C5.69366 7.90024 5.74881 7.93712 5.80951 7.96228C5.87021 7.98744 5.93527 8.00039 6.00098 8.00039C6.06668 8.00039 6.13175 7.98744 6.19245 7.96228C6.25315 7.93712 6.30829 7.90024 6.35473 7.85375L8.85473 5.35375C8.90118 5.3073 8.93803 5.25214 8.96317 5.19145C8.98831 5.13075 9.00126 5.0657 9.00126 5C9.00126 4.9343 8.98831 4.86925 8.96317 4.80855C8.93803 4.74786 8.90118 4.6927 8.85473 4.64625C8.80827 4.59979 8.75312 4.56294 8.69242 4.5378C8.63173 4.51266 8.56667 4.49972 8.50098 4.49972C8.43528 4.49972 8.37022 4.51266 8.30953 4.5378C8.24883 4.56294 8.19368 4.59979 8.14723 4.64625L6.50098 6.29313V0.5C6.50098 0.367392 6.4483 0.240215 6.35453 0.146447C6.26076 0.0526785 6.13358 0 6.00098 0C5.86837 0 5.74119 0.0526785 5.64742 0.146447C5.55366 0.240215 5.50098 0.367392 5.50098 0.5V6.29313L3.85473 4.64625C3.76091 4.55243 3.63366 4.49972 3.50098 4.49972C3.36829 4.49972 3.24105 4.55243 3.14723 4.64625C3.05341 4.74007 3.0007 4.86732 3.0007 5C3.0007 5.13268 3.05341 5.25993 3.14723 5.35375L5.64723 7.85375Z" fill="black"/>
</svg>
