<svg width="22" height="22" viewBox="0 0 22 22" fill="none" xmlns="http://www.w3.org/2000/svg">
<path d="M12.8332 1.88671V2.93399C12.8332 4.47413 12.8332 5.2442 13.1329 5.83246C13.3966 6.3499 13.8173 6.7706 14.3347 7.03425C14.923 7.33399 15.693 7.33399 17.2332 7.33399L18.2804 7.33398M12.8332 1.88671C12.4724 1.83399 12.0412 1.83399 11.3198 1.83399H9.53317C7.47964 1.83399 6.45288 1.83399 5.66854 2.23363C4.97861 2.58516 4.41768 3.14609 4.06615 3.83602C3.6665 4.62036 3.6665 5.64713 3.6665 7.70065V14.3007C3.6665 16.3542 3.6665 17.3809 4.06615 18.1653C4.41768 18.8552 4.97861 19.4161 5.66854 19.7677C6.45288 20.1673 7.47964 20.1673 9.53317 20.1673H12.4665C14.52 20.1673 15.5468 20.1673 16.3311 19.7677C17.0211 19.4161 17.582 18.8552 17.9335 18.1653C18.3332 17.3809 18.3332 16.3542 18.3332 14.3007V8.84737C18.3332 8.12598 18.3332 7.69473 18.2804 7.33398M12.8332 1.88671C12.9209 1.89953 13.0045 1.91548 13.087 1.9353C13.4612 2.02512 13.8188 2.17327 14.1469 2.3743C14.5169 2.60106 14.834 2.91814 15.4681 3.55229L16.6149 4.69901C17.249 5.33317 17.5661 5.65025 17.7929 6.02027C17.9939 6.34834 18.142 6.706 18.2319 7.08014C18.2517 7.16269 18.2676 7.24625 18.2804 7.33398" stroke="#685F78" stroke-width="1.5" stroke-linecap="round" stroke-linejoin="round"/>
</svg>
