<svg width="14" height="14" viewBox="0 0 14 14" fill="none" xmlns="http://www.w3.org/2000/svg">
<path d="M6.19254 10.3083C6.25065 10.3663 6.29674 10.4353 6.3282 10.5112C6.35965 10.587 6.37584 10.6684 6.37584 10.7505C6.37584 10.8326 6.35965 10.914 6.3282 10.9898C6.29674 11.0657 6.25065 11.1346 6.19254 11.1927L3.69254 13.6927C3.63449 13.7508 3.56556 13.7969 3.48969 13.8283C3.41381 13.8598 3.33248 13.876 3.25035 13.876C3.16821 13.876 3.08688 13.8598 3.01101 13.8283C2.93514 13.7969 2.86621 13.7508 2.80816 13.6927L0.30816 11.1927C0.250091 11.1346 0.204028 11.0657 0.172602 10.9898C0.141175 10.9139 0.125 10.8326 0.125 10.7505C0.125 10.6684 0.141175 10.5871 0.172602 10.5112C0.204028 10.4353 0.250091 10.3664 0.30816 10.3083C0.425435 10.191 0.584495 10.1251 0.750347 10.1251C0.832469 10.1251 0.913787 10.1413 0.989658 10.1727C1.06553 10.2042 1.13447 10.2502 1.19253 10.3083L2.62535 11.7419V0.750492C2.62535 0.584731 2.6912 0.42576 2.80841 0.30855C2.92562 0.19134 3.08459 0.125492 3.25035 0.125492C3.41611 0.125492 3.57508 0.19134 3.69229 0.30855C3.8095 0.42576 3.87535 0.584731 3.87535 0.750492V11.7419L5.30816 10.3083C5.36621 10.2502 5.43514 10.2041 5.51101 10.1726C5.58688 10.1412 5.66821 10.125 5.75035 10.125C5.83248 10.125 5.91381 10.1412 5.98969 10.1726C6.06556 10.2041 6.13449 10.2502 6.19254 10.3083ZM13.6925 2.8083L11.1925 0.308304C11.1345 0.250194 11.0656 0.204095 10.9897 0.172642C10.9138 0.141189 10.8325 0.125 10.7503 0.125C10.6682 0.125 10.5869 0.141189 10.511 0.172642C10.4351 0.204095 10.3662 0.250194 10.3082 0.308304L7.80816 2.8083C7.69088 2.92558 7.625 3.08464 7.625 3.25049C7.625 3.41634 7.69088 3.5754 7.80816 3.69268C7.92544 3.80995 8.0845 3.87584 8.25035 3.87584C8.4162 3.87584 8.57526 3.80995 8.69254 3.69268L10.1253 2.25909V13.2505C10.1253 13.4163 10.1912 13.5752 10.3084 13.6924C10.4256 13.8096 10.5846 13.8755 10.7503 13.8755C10.9161 13.8755 11.0751 13.8096 11.1923 13.6924C11.3095 13.5752 11.3753 13.4163 11.3753 13.2505V2.25909L12.8082 3.69268C12.9254 3.80995 13.0845 3.87584 13.2503 3.87584C13.4162 3.87584 13.5753 3.80995 13.6925 3.69268C13.8098 3.5754 13.8757 3.41634 13.8757 3.25049C13.8757 3.08464 13.8098 2.92558 13.6925 2.8083Z" fill="#8E8E8E"/>
</svg>
