<svg width="41" height="60" viewBox="0 0 41 60" fill="none" xmlns="http://www.w3.org/2000/svg">
<path d="M6.23618 12.534L39.2362 20.854C39.5947 20.945 39.9162 21.1449 40.1565 21.4261C40.3968 21.7074 40.5441 22.0561 40.5781 22.4245C40.6121 22.7928 40.5311 23.1627 40.3463 23.4831C40.1615 23.8036 39.882 24.0589 39.5462 24.214L6.54617 39.324C6.27185 39.4568 5.96815 39.5174 5.66385 39.5C5.35955 39.4826 5.06474 39.3878 4.80735 39.2245C4.54996 39.0613 4.33852 38.835 4.19306 38.5672C4.04761 38.2993 3.97295 37.9988 3.97617 37.694V14.264C3.97574 13.9886 4.03886 13.7168 4.16061 13.4698C4.28236 13.2228 4.45947 13.0072 4.67814 12.8398C4.89681 12.6724 5.15116 12.5578 5.42139 12.5047C5.69162 12.4517 5.97045 12.4617 6.23618 12.534Z" fill="#FFA633"/>
<path d="M4.02625 4.21436L3.90625 59.9944" stroke="#1028A7" stroke-width="3" stroke-miterlimit="10"/>
<path d="M7.97603 5.0444C7.77934 5.82096 7.35677 6.52174 6.76177 7.05813C6.16676 7.59451 5.42605 7.94238 4.63332 8.05776C3.84058 8.17314 3.03144 8.05085 2.30822 7.70632C1.585 7.3618 0.980203 6.81053 0.570313 6.12225C0.160423 5.43397 -0.0361477 4.6396 0.00547062 3.83959C0.0470889 3.03959 0.325019 2.26989 0.804116 1.62786C1.28321 0.985829 1.94195 0.500309 2.69701 0.23269C3.45208 -0.0349295 4.26955 -0.0726304 5.04603 0.124383C6.08545 0.390832 6.97712 1.05793 7.52615 1.97985C8.07519 2.90178 8.23693 4.00357 7.97603 5.0444Z" fill="#1028A7"/>
</svg>
