<svg width="18" height="18" viewBox="0 0 18 18" fill="none" xmlns="http://www.w3.org/2000/svg">
<path d="M17.1085 13.6351C17.5492 12.7391 17.7689 11.7505 17.7491 10.7522C17.7293 9.75379 17.4705 8.7747 16.9945 7.8969C16.5185 7.01909 15.8391 6.26812 15.0132 5.70687C14.1873 5.14562 13.2389 4.79043 12.2475 4.67105C11.9187 3.90458 11.4398 3.21168 10.8391 2.63315C10.2384 2.05463 9.52793 1.60219 8.74962 1.30249C7.97132 1.00279 7.14091 0.861889 6.30731 0.888096C5.47371 0.914304 4.65378 1.10709 3.89584 1.45508C3.1379 1.80308 2.45728 2.29925 1.89407 2.91437C1.33086 3.52949 0.896456 4.25111 0.616456 5.03672C0.336455 5.82232 0.21652 6.65602 0.263717 7.4887C0.310913 8.32137 0.524287 9.13618 0.891265 9.88511L0.292828 11.9804C0.239427 12.1679 0.237087 12.3662 0.286052 12.5549C0.335016 12.7435 0.433506 12.9157 0.571329 13.0535C0.709151 13.1913 0.8813 13.2898 1.06996 13.3388C1.25862 13.3877 1.45694 13.3854 1.64439 13.332L3.7397 12.7336C4.37198 13.044 5.05209 13.2455 5.75142 13.3296C6.08478 14.1107 6.57379 14.8155 7.18862 15.4013C7.80345 15.987 8.53119 16.4413 9.32743 16.7365C10.1237 17.0316 10.9717 17.1614 11.8198 17.1179C12.6678 17.0744 13.4981 16.8586 14.26 16.4836L16.3553 17.082C16.5428 17.1354 16.7411 17.1377 16.9298 17.0888C17.1184 17.0398 17.2906 16.9413 17.4284 16.8035C17.5662 16.6657 17.6647 16.4935 17.7137 16.3049C17.7626 16.1162 17.7603 15.9179 17.7069 15.7304L17.1085 13.6351ZM3.80689 11.4398C3.7488 11.4398 3.69098 11.4477 3.63502 11.4632L1.57173 12.0531L2.16158 9.9898C2.20578 9.83261 2.18671 9.66436 2.10845 9.52105C1.53378 8.466 1.35853 7.23919 1.61483 6.06544C1.87112 4.89168 2.54179 3.84959 3.50395 3.13011C4.4661 2.41063 5.6553 2.06196 6.85363 2.14798C8.05195 2.234 9.17916 2.74895 10.0287 3.59848C10.8782 4.448 11.3932 5.5752 11.4792 6.77353C11.5652 7.97186 11.2165 9.16106 10.4971 10.1232C9.77757 11.0854 8.73548 11.756 7.56172 12.0123C6.38797 12.2686 5.16116 12.0934 4.10611 11.5187C4.01464 11.4676 3.91169 11.4404 3.80689 11.4398ZM15.8381 13.7398L16.428 15.8031L14.3647 15.2132C14.2075 15.169 14.0393 15.1881 13.896 15.2664C12.7438 15.8932 11.3917 16.0426 10.1305 15.6826C8.86931 15.3226 7.79983 14.4819 7.1522 13.3414C8.00803 13.2522 8.83619 12.9872 9.58475 12.5629C10.3333 12.1386 10.9861 11.5641 11.5021 10.8756C12.0182 10.1871 12.3864 9.39935 12.5836 8.56181C12.7809 7.72427 12.8029 6.855 12.6483 6.00855C13.3972 6.18505 14.0953 6.53201 14.6882 7.02243C15.2811 7.51284 15.7528 8.13348 16.0666 8.83601C16.3804 9.53855 16.5279 10.304 16.4975 11.0729C16.467 11.8417 16.2596 12.5932 15.8913 13.2687C15.8124 13.4127 15.7933 13.5819 15.8381 13.7398Z" fill="#685F78"/>
</svg>
