<svg width="16" height="17" viewBox="0 0 16 17" fill="none" xmlns="http://www.w3.org/2000/svg">
<path d="M15.0961 7.10705L8.84609 1.21017C8.84304 1.2075 8.84017 1.20463 8.8375 1.20158C8.60739 0.992306 8.30752 0.876343 7.99648 0.876343C7.68545 0.876343 7.38558 0.992306 7.15547 1.20158L7.14688 1.21017L0.903906 7.10705C0.776561 7.22414 0.674909 7.3664 0.605384 7.52482C0.535859 7.68323 0.499974 7.85436 0.5 8.02736V15.25C0.5 15.5815 0.631696 15.8995 0.866116 16.1339C1.10054 16.3683 1.41848 16.5 1.75 16.5H5.5C5.83152 16.5 6.14946 16.3683 6.38388 16.1339C6.6183 15.8995 6.75 15.5815 6.75 15.25V11.5H9.25V15.25C9.25 15.5815 9.3817 15.8995 9.61612 16.1339C9.85054 16.3683 10.1685 16.5 10.5 16.5H14.25C14.5815 16.5 14.8995 16.3683 15.1339 16.1339C15.3683 15.8995 15.5 15.5815 15.5 15.25V8.02736C15.5 7.85436 15.4641 7.68323 15.3946 7.52482C15.3251 7.3664 15.2234 7.22414 15.0961 7.10705ZM14.25 15.25H10.5V11.5C10.5 11.1685 10.3683 10.8506 10.1339 10.6161C9.89946 10.3817 9.58152 10.25 9.25 10.25H6.75C6.41848 10.25 6.10054 10.3817 5.86612 10.6161C5.6317 10.8506 5.5 11.1685 5.5 11.5V15.25H1.75V8.02736L1.75859 8.01955L8 2.12501L14.2422 8.01798L14.2508 8.0258L14.25 15.25Z" fill="#7A7D84"/>
</svg>
