<svg width="24" height="24" viewBox="0 0 24 24" fill="none" xmlns="http://www.w3.org/2000/svg">
<path d="M20.25 12C20.25 13.6317 19.7661 15.2268 18.8596 16.5835C17.9531 17.9402 16.6646 18.9976 15.1571 19.622C13.6497 20.2464 11.9909 20.4098 10.3905 20.0915C8.79017 19.7732 7.32016 18.9874 6.16637 17.8336C5.01259 16.6798 4.22685 15.2098 3.90853 13.6095C3.5902 12.0092 3.75357 10.3504 4.378 8.84286C5.00242 7.33537 6.05984 6.0469 7.41655 5.14038C8.77325 4.23385 10.3683 3.75 12 3.75C14.188 3.75 16.2865 4.61919 17.8336 6.16637C19.3808 7.71354 20.25 9.81196 20.25 12Z" fill="url(#paint0_linear_2043_11215)" fill-opacity="0.4"/>
<path d="M12.0004 3.00042C10.2204 3.00042 8.48033 3.52826 7.00029 4.51719C5.52024 5.50612 4.36669 6.91173 3.6855 8.55627C3.00431 10.2008 2.82608 12.0104 3.17335 13.7562C3.52062 15.5021 4.37778 17.1057 5.63646 18.3644C6.89513 19.623 8.49878 20.4802 10.2446 20.8275C11.9904 21.1747 13.8 20.9965 15.4446 20.3153C17.0891 19.6341 18.4947 18.4806 19.4836 17.0005C20.4726 15.5205 21.0004 13.7804 21.0004 12.0004C20.9977 9.61431 20.0486 7.32671 18.3614 5.63947C16.6741 3.95223 14.3865 3.00315 12.0004 3.00042ZM12.0004 19.5004C10.5171 19.5004 9.06701 19.0605 7.83364 18.2364C6.60027 17.4123 5.63898 16.241 5.07132 14.8705C4.50366 13.5001 4.35514 11.9921 4.64453 10.5372C4.93392 9.08238 5.64822 7.74601 6.69712 6.69712C7.74601 5.64822 9.08238 4.93392 10.5372 4.64453C11.9921 4.35514 13.5001 4.50366 14.8705 5.07132C16.241 5.63898 17.4123 6.60027 18.2364 7.83364C19.0606 9.06701 19.5004 10.5171 19.5004 12.0004C19.4982 13.9889 18.7073 15.8952 17.3013 17.3013C15.8952 18.7073 13.9889 19.4982 12.0004 19.5004ZM5.78104 2.78104L2.78104 5.78104C2.71136 5.85072 2.62863 5.906 2.53759 5.94371C2.44654 5.98142 2.34896 6.00083 2.25042 6.00083C2.15187 6.00083 2.05429 5.98142 1.96324 5.94371C1.8722 5.906 1.78947 5.85072 1.71979 5.78104C1.57906 5.64031 1.5 5.44944 1.5 5.25042C1.5 5.05139 1.57906 4.86052 1.71979 4.71979L4.71979 1.71979C4.78947 1.65011 4.8722 1.59483 4.96324 1.55712C5.05429 1.51941 5.15187 1.5 5.25042 1.5C5.34896 1.5 5.44654 1.51941 5.53759 1.55712C5.62863 1.59483 5.71136 1.65011 5.78104 1.71979C5.85072 1.78947 5.906 1.8722 5.94371 1.96324C5.98142 2.05429 6.00083 2.15187 6.00083 2.25042C6.00083 2.34896 5.98142 2.44654 5.94371 2.53759C5.906 2.62863 5.85072 2.71136 5.78104 2.78104ZM22.281 5.78104C22.2114 5.85077 22.1287 5.90609 22.0376 5.94384C21.9466 5.98158 21.849 6.00101 21.7504 6.00101C21.6519 6.00101 21.5543 5.98158 21.4632 5.94384C21.3722 5.90609 21.2894 5.85077 21.2198 5.78104L18.2198 2.78104C18.0791 2.64031 18 2.44944 18 2.25042C18 2.05139 18.0791 1.86052 18.2198 1.71979C18.3605 1.57906 18.5514 1.5 18.7504 1.5C18.9494 1.5 19.1403 1.57906 19.281 1.71979L22.281 4.71979C22.3508 4.78945 22.4061 4.87216 22.4438 4.96321C22.4816 5.05426 22.501 5.15185 22.501 5.25042C22.501 5.34898 22.4816 5.44657 22.4438 5.53762C22.4061 5.62867 22.3508 5.71139 22.281 5.78104Z" fill="url(#paint1_linear_2043_11215)"/>
<path d="M17.7803 11.4697C17.6397 11.329 17.4489 11.25 17.25 11.25H12.75V6.75C12.75 6.55109 12.671 6.36032 12.5303 6.21967C12.3897 6.07902 12.1989 6 12 6C11.8011 6 11.6103 6.07902 11.4697 6.21967C11.329 6.36032 11.25 6.55109 11.25 6.75V12C11.25 12.1989 11.329 12.3897 11.4697 12.5303C11.6103 12.671 11.8011 12.75 12 12.75H17.25C17.4489 12.75 17.6397 12.671 17.7803 12.5303C17.921 12.3897 18 12.1989 18 12C18 11.8011 17.921 11.6103 17.7803 11.4697Z" fill="url(#paint2_linear_2043_11215)"/>
<defs>
<linearGradient id="paint0_linear_2043_11215" x1="4.27925" y1="4.93856" x2="28.2257" y2="9.57877" gradientUnits="userSpaceOnUse">
<stop stop-color="#F4B9E1"/>
<stop offset="1" stop-color="#ED8DCE"/>
</linearGradient>
<linearGradient id="paint1_linear_2043_11215" x1="2.17362" y1="2.90469" x2="32.4771" y2="9.22859" gradientUnits="userSpaceOnUse">
<stop stop-color="#F4B9E1"/>
<stop offset="1" stop-color="#ED8DCE"/>
</linearGradient>
<linearGradient id="paint2_linear_2043_11215" x1="2.17316" y1="2.90469" x2="32.4766" y2="9.22859" gradientUnits="userSpaceOnUse">
<stop stop-color="#F4B9E1"/>
<stop offset="1" stop-color="#ED8DCE"/>
</linearGradient>
</defs>
</svg>
