<svg width="303" height="483" viewBox="0 0 303 483" fill="none" xmlns="http://www.w3.org/2000/svg">
<path d="M303 220.244C303 241.436 295.936 260.574 283.113 274.115C271.181 286.706 255.152 293.692 237.985 293.783H237.357C214.781 293.902 183.86 294.066 174.561 305.982C172.97 307.999 170.973 311.679 171.753 320.198C173.28 336.816 182.595 341.007 208.059 344.459C217.605 345.764 225.91 346.887 232.528 351.152C240.252 356.128 248.732 363.332 253.059 379.037C256.313 390.834 257.093 406.904 255.685 432.781C253.974 464.072 254.714 482.827 254.73 483H226.729C226.673 482.279 225.321 464.976 227.19 430.745C228.336 409.744 227.914 396.44 225.846 388.935C224.629 384.543 223.205 382.735 218.559 379.749C216.634 378.644 209.451 377.667 204.702 377.01C194.082 375.567 180.837 373.778 169.327 367.24C154.173 358.657 145.2 343.582 143.362 323.65C141.898 307.735 145.24 294.431 153.298 284.122C171.053 261.378 206.205 261.186 237.221 261.022H237.858C255.486 260.921 274.45 248.12 274.45 220.244C274.45 208.629 271.61 199.855 265.755 193.417C255.947 182.625 236.696 177.365 211.535 178.589C182.691 179.995 62.3182 180.57 40.5697 176.005C17.8109 171.23 0 146.43 0 119.558C0 99.9272 5.15474 85.3454 15.7347 74.9728C27.484 63.468 45.7006 57.88 71.4186 57.88C120.078 57.88 162.287 56.483 179.175 54.3282C180.114 51.3607 181.665 44.0469 181.514 28.4881C181.413 20.3493 180.954 12.2216 180.137 4.13623L208.457 0C209.677 11.7549 210.209 23.5907 210.048 35.4274C209.801 46.7587 208.719 55.8256 206.746 63.1302C204.646 70.8731 199.197 84.1858 186.247 86.3315C166.964 89.5364 112.354 90.6595 71.4504 90.6504C48.5404 90.6504 38.5969 95.6814 34.2854 99.8998C31.4614 102.639 28.5658 107.204 28.5658 119.558C28.5658 130.515 36.5923 141.865 45.7403 143.782C62.6444 147.334 176.733 147.499 210.35 145.855C225.464 145.125 239.051 146.366 250.816 149.507C265.191 153.397 276.876 160.2 285.539 169.732C297.113 182.524 303 199.508 303 220.244Z" fill="#DEDEDE"/>
</svg>
