<svg width="24" height="24" viewBox="0 0 24 24" fill="none" xmlns="http://www.w3.org/2000/svg">
<path d="M23.5 16C23.5 16.2652 23.3946 16.5196 23.2071 16.7071C23.0196 16.8946 22.7652 17 22.5 17H19.5V19H21.5C21.7652 19 22.0196 19.1054 22.2071 19.2929C22.3946 19.4804 22.5 19.7348 22.5 20C22.5 20.2652 22.3946 20.5196 22.2071 20.7071C22.0196 20.8946 21.7652 21 21.5 21H19.5V23C19.5 23.2652 19.3946 23.5196 19.2071 23.7071C19.0196 23.8946 18.7652 24 18.5 24C18.2348 24 17.9804 23.8946 17.7929 23.7071C17.6054 23.5196 17.5 23.2652 17.5 23V16C17.5 15.7348 17.6054 15.4804 17.7929 15.2929C17.9804 15.1054 18.2348 15 18.5 15H22.5C22.7652 15 23.0196 15.1054 23.2071 15.2929C23.3946 15.4804 23.5 15.7348 23.5 16ZM7 18.5C7 19.4283 6.63125 20.3185 5.97487 20.9749C5.3185 21.6313 4.42826 22 3.5 22H2.5V23C2.5 23.2652 2.39464 23.5196 2.20711 23.7071C2.01957 23.8946 1.76522 24 1.5 24C1.23478 24 0.98043 23.8946 0.792893 23.7071C0.605357 23.5196 0.5 23.2652 0.5 23V16C0.5 15.7348 0.605357 15.4804 0.792893 15.2929C0.98043 15.1054 1.23478 15 1.5 15H3.5C4.42826 15 5.3185 15.3687 5.97487 16.0251C6.63125 16.6815 7 17.5717 7 18.5ZM5 18.5C5 18.1022 4.84196 17.7206 4.56066 17.4393C4.27936 17.158 3.89782 17 3.5 17H2.5V20H3.5C3.89782 20 4.27936 19.842 4.56066 19.5607C4.84196 19.2794 5 18.8978 5 18.5ZM16 19.5C16 20.6935 15.5259 21.8381 14.682 22.682C13.8381 23.5259 12.6935 24 11.5 24H9.5C9.23478 24 8.98043 23.8946 8.79289 23.7071C8.60536 23.5196 8.5 23.2652 8.5 23V16C8.5 15.7348 8.60536 15.4804 8.79289 15.2929C8.98043 15.1054 9.23478 15 9.5 15H11.5C12.6935 15 13.8381 15.4741 14.682 16.318C15.5259 17.1619 16 18.3065 16 19.5ZM14 19.5C14 18.837 13.7366 18.2011 13.2678 17.7322C12.7989 17.2634 12.163 17 11.5 17H10.5V22H11.5C12.163 22 12.7989 21.7366 13.2678 21.2678C13.7366 20.7989 14 20.163 14 19.5ZM0.5 11V2C0.5 1.46957 0.710714 0.960859 1.08579 0.585787C1.46086 0.210714 1.96957 3.09198e-07 2.5 3.09198e-07H14.5C14.6314 -0.000102986 14.7615 0.0256758 14.8829 0.0758639C15.0042 0.126052 15.1146 0.199666 15.2075 0.2925L22.2075 7.2925C22.3003 7.38544 22.3739 7.49576 22.4241 7.61715C22.4743 7.73855 22.5001 7.86864 22.5 8V11C22.5 11.2652 22.3946 11.5196 22.2071 11.7071C22.0196 11.8946 21.7652 12 21.5 12C21.2348 12 20.9804 11.8946 20.7929 11.7071C20.6054 11.5196 20.5 11.2652 20.5 11V9H14.5C14.2348 9 13.9804 8.89464 13.7929 8.70711C13.6054 8.51957 13.5 8.26522 13.5 8V2H2.5V11C2.5 11.2652 2.39464 11.5196 2.20711 11.7071C2.01957 11.8946 1.76522 12 1.5 12C1.23478 12 0.98043 11.8946 0.792893 11.7071C0.605357 11.5196 0.5 11.2652 0.5 11ZM15.5 7H19.0863L15.5 3.41375V7Z" fill="#685F78"/>
</svg>
