<svg width="65" height="96" viewBox="0 0 65 96" fill="none" xmlns="http://www.w3.org/2000/svg">
<path d="M25.9118 90.1438C22.1818 91.1661 18.461 92.1791 14.731 93.183C14.7033 93.183 14.6849 93.2014 14.6573 93.2107H14.6388C14.6388 93.2107 14.6389 93.2107 14.6204 93.2107H14.602C14.4823 93.2475 14.3625 93.2659 14.2336 93.2843C14.1875 93.3028 14.1323 93.312 14.077 93.312H14.0587C14.0587 93.312 14.0402 93.312 14.031 93.312C14.0218 93.312 14.0126 93.312 14.0033 93.312C14.0033 93.312 13.985 93.312 13.9757 93.312H13.9297C13.8284 93.3304 13.7363 93.3396 13.635 93.3488C13.506 93.3488 13.3771 93.3488 13.2482 93.3488H13.1745C13.1284 93.3488 13.0732 93.3488 13.0179 93.3488C12.9166 93.3488 12.8245 93.3488 12.7232 93.3304C12.539 93.3304 12.3548 93.2936 12.1706 93.2659C12.0693 93.2475 11.9772 93.2291 11.8759 93.2199C11.7838 93.2015 11.6917 93.183 11.5996 93.1646C11.5996 93.1646 11.5075 93.1462 11.4706 93.1278C11.3969 93.1093 11.3325 93.0909 11.2588 93.0725C11.2588 93.0725 11.2128 93.0541 11.1851 93.0541C11.1667 93.0541 11.1575 93.0541 11.1483 93.0541C11.1207 93.0357 11.0931 93.0265 11.0654 93.0173C10.9365 92.9804 10.7983 92.9344 10.6694 92.8975C10.4023 92.8054 10.1444 92.7041 9.89577 92.6028C9.86814 92.6028 9.85893 92.5844 9.8313 92.5752C9.71157 92.5291 9.61027 92.4739 9.49975 92.4186C9.24188 92.2989 8.99321 92.1607 8.75376 92.0226C8.6985 91.9857 8.63404 91.9581 8.58799 91.9121C8.52352 91.8752 8.46825 91.8384 8.40378 91.7923C8.33931 91.7555 8.28404 91.7095 8.21957 91.6726C8.21957 91.6726 8.1735 91.6358 8.14587 91.6173C8.11824 91.5989 8.10903 91.5805 8.0814 91.5713C7.97088 91.4976 7.87882 91.4332 7.77751 91.3503C7.51043 91.1569 7.27097 90.9358 7.03151 90.7148C6.91179 90.5951 6.78283 90.4661 6.67232 90.3464C6.55259 90.2267 6.45124 90.0885 6.34994 89.9596C6.24863 89.8306 6.15654 89.6925 6.07365 89.5635C6.01839 89.4807 5.96316 89.3978 5.92632 89.3149C5.88948 89.2504 5.85265 89.1952 5.82502 89.1215C5.82502 89.1215 5.82502 89.1215 5.82502 89.1031C5.82502 89.1031 5.80659 89.0754 5.80659 89.0662C5.78817 89.0294 5.76977 89.0017 5.76977 88.9649C5.76977 88.9465 5.75132 88.9373 5.74211 88.9281C5.72369 88.9004 5.70529 88.8728 5.70529 88.8452C5.70529 88.8268 5.68685 88.8083 5.68685 88.7991C5.68685 88.7991 5.68685 88.7991 5.68685 88.7807C5.58554 88.5413 5.46582 88.265 5.34609 87.9979C5.30925 87.9058 5.2632 87.8045 5.22636 87.7216C5.16189 87.5466 5.06057 87.3255 4.98689 87.1506C4.83953 86.819 4.64616 86.3677 4.4988 86.027C4.42512 85.852 4.34222 85.6678 4.25933 85.4652C4.18565 85.2902 4.10275 85.106 4.01065 84.9034C3.94618 84.7376 3.84486 84.5165 3.77118 84.3416C3.73434 84.2495 3.68829 84.1574 3.65145 84.0653C3.57777 83.8903 3.50409 83.7153 3.4212 83.5403C3.38436 83.4206 3.32915 83.3285 3.29231 83.2272C3.25547 83.1258 3.20019 83.0337 3.16336 82.914C3.04363 82.6377 2.91468 82.343 2.81338 82.1036C2.7397 81.9286 2.64759 81.7075 2.57391 81.5417C2.42655 81.201 2.23317 80.7497 2.08582 80.4181C1.93846 80.0774 1.74502 79.6261 1.59767 79.2853C1.52399 79.1195 1.42267 78.8985 1.3582 78.7235C1.27531 78.5393 1.17401 78.3183 1.08191 78.0972C1.08191 78.0788 1.0819 78.0604 1.06348 78.042C1.0819 78.0788 1.10031 78.1249 1.11873 78.1617C1.15557 78.2262 1.18324 78.2815 1.21087 78.3459C1.24771 78.4012 1.2661 78.4564 1.30294 78.5117C1.33978 78.5762 1.3674 78.6314 1.40424 78.6959C1.43187 78.7419 1.45031 78.7972 1.48715 78.8433C1.48715 78.8617 1.50554 78.8801 1.51475 78.8893C1.55159 78.9353 1.56082 78.9814 1.58845 79.009C1.61608 79.0459 1.62528 79.0827 1.6437 79.1195C1.68975 79.2024 1.74503 79.2761 1.78187 79.3498C1.8095 79.3866 1.82794 79.4235 1.85557 79.4695C1.89241 79.5248 1.92924 79.58 1.96608 79.6353C2.08581 79.8287 2.22394 80.0129 2.35288 80.2063C2.48182 80.3997 2.6292 80.5839 2.77656 80.7681C2.92391 80.9615 3.06204 81.1457 3.21861 81.3207C3.36597 81.5049 3.52255 81.6799 3.68832 81.8641C3.84489 82.0483 4.01065 82.2141 4.18564 82.3891C4.35142 82.564 4.52639 82.739 4.69217 82.9048C4.87637 83.0798 5.05139 83.2456 5.2448 83.4114C5.60398 83.7429 5.99078 84.0653 6.37759 84.3876C6.77362 84.7007 7.16042 84.9955 7.57487 85.2902C7.65775 85.3454 7.73144 85.4099 7.81433 85.4559C7.94327 85.548 8.08142 85.6493 8.21957 85.7322C8.44061 85.8796 8.66162 86.0177 8.89187 86.1651C9.11291 86.294 9.32476 86.4414 9.55501 86.5703C9.99709 86.8466 10.4576 87.0861 10.9273 87.3348C11.1575 87.4545 11.397 87.5742 11.6272 87.6847C12.0969 87.915 12.5758 88.1268 13.064 88.3386C13.3034 88.4399 13.5521 88.532 13.7915 88.6334C13.9849 88.707 14.1691 88.7807 14.3625 88.8452C14.5559 88.9189 14.7401 88.9833 14.9428 89.0478C15.2927 89.1675 15.6519 89.2873 16.0019 89.3978C16.1217 89.4346 16.2229 89.4622 16.3335 89.4991C16.4071 89.5267 16.49 89.5359 16.5637 89.5543C16.5913 89.5543 16.6098 89.5728 16.6374 89.5728C16.6742 89.5912 16.7203 89.6096 16.7663 89.6096C16.9781 89.6741 17.1992 89.7293 17.4294 89.7846C17.7057 89.8491 17.9636 89.9043 18.2307 89.9688C20.0727 90.3464 21.9054 90.5122 23.6461 90.4109C23.6922 90.4109 23.7474 90.4109 23.7934 90.4109C23.9684 90.3924 24.1343 90.3832 24.3 90.374C24.3369 90.374 24.3829 90.374 24.4198 90.374C24.4566 90.374 24.4934 90.3556 24.5394 90.3556C24.7328 90.328 24.9171 90.3095 25.1013 90.2819C25.1381 90.2819 25.1842 90.2635 25.221 90.2635C25.3407 90.2451 25.442 90.2267 25.5526 90.2082C25.6723 90.1806 25.7644 90.1714 25.8749 90.1438C25.9209 90.1438 25.9762 90.1254 26.0131 90.1161L25.9118 90.1438Z" fill="white" stroke="#32303D" stroke-width="1.26589" stroke-linecap="round" stroke-linejoin="round"/>
<path d="M14.6019 93.2111C14.3993 93.2664 14.1967 93.3216 13.9941 93.3769C13.2665 93.5703 12.539 93.7729 11.8022 93.9663C11.6088 94.0124 11.4153 94.0769 11.2127 94.1229C11.0009 94.1782 10.7798 94.2426 10.5588 94.2979C10.5312 94.2979 10.5036 94.3163 10.4759 94.3255C10.3654 94.3532 10.2549 94.3716 10.126 94.3808C9.16813 94.4268 7.98005 93.8374 7.47351 93.0546C7.43667 92.9993 7.39984 92.9348 7.37221 92.8704C7.35379 92.8427 7.34455 92.8335 7.33534 92.8059C7.33534 92.8059 7.33534 92.7875 7.33534 92.7783C7.31692 92.7506 7.30773 92.7322 7.29852 92.7046C6.84724 91.6639 6.39592 90.6232 5.94464 89.5824C5.88938 89.4535 5.83414 89.3246 5.78809 89.2048C5.81572 89.2417 5.82493 89.2693 5.85256 89.3153C5.8894 89.3982 5.94469 89.4811 5.99995 89.564C6.09205 89.693 6.18414 89.8311 6.27624 89.96C6.37754 90.089 6.47883 90.2271 6.59856 90.3469C6.71829 90.4666 6.83803 90.5955 6.95776 90.7153C7.18801 90.9363 7.43667 91.1481 7.70376 91.3507C7.80506 91.4336 7.89718 91.4981 8.0077 91.5718C8.0077 91.5718 8.04454 91.6086 8.07217 91.6178C8.0998 91.6362 8.11818 91.6547 8.14581 91.6731C8.20107 91.7099 8.26555 91.756 8.33002 91.7928C8.38528 91.8296 8.44976 91.8757 8.51423 91.9125C8.56028 91.9494 8.62474 91.9862 8.68 92.0231C8.91946 92.1612 9.16812 92.2994 9.426 92.4191C9.53652 92.4743 9.63781 92.5296 9.75754 92.5757C9.78517 92.5757 9.79439 92.5941 9.82202 92.6033C10.0707 92.7138 10.3286 92.8059 10.5957 92.898C10.7246 92.9348 10.8628 92.9809 10.9917 93.0177C10.9917 93.0177 11.0469 93.0453 11.0745 93.0546C11.093 93.0546 11.1022 93.0546 11.1114 93.0546C11.1391 93.0546 11.1574 93.0546 11.1851 93.073C11.2587 93.1006 11.3232 93.1098 11.3969 93.1282C11.3969 93.1282 11.489 93.1559 11.5259 93.1651C11.618 93.1835 11.7101 93.2019 11.8022 93.2203C11.9035 93.2388 11.9956 93.2572 12.0969 93.2664C12.2811 93.3032 12.4653 93.3216 12.6495 93.3309C12.7508 93.3309 12.8429 93.3493 12.9442 93.3493C12.9994 93.3493 13.0547 93.3493 13.1007 93.3493H13.1744C13.3034 93.3493 13.4323 93.3493 13.5612 93.3493C13.6625 93.3493 13.7546 93.3309 13.8559 93.3124H13.902C13.902 93.3124 13.9204 93.3124 13.9296 93.3124C13.9296 93.3124 13.948 93.3124 13.9572 93.3124C13.9665 93.3124 13.9757 93.3124 13.9849 93.3124H14.0033C14.0585 93.3124 14.1138 93.3124 14.1599 93.2848C14.2888 93.2664 14.4177 93.248 14.5282 93.2111H14.6019Z" fill="#3E3B5B" stroke="#32303D" stroke-width="1.26589" stroke-linecap="round" stroke-linejoin="round"/>
<path d="M59.1412 28.7329C59.1043 28.8066 59.0491 28.8802 59.0123 28.9447C58.9754 29.0184 58.9202 29.0828 58.8741 29.1473C58.6899 29.4052 58.4873 29.6539 58.2571 29.8933C58.2571 29.9117 58.2294 29.9209 58.2202 29.9302C57.9899 30.1604 57.7321 30.3814 57.4466 30.5933C57.3269 30.6946 57.2071 30.7775 57.0782 30.8604C57.0413 30.888 57.0045 30.9064 56.9584 30.9432C56.8295 31.0261 56.6822 31.109 56.5256 31.1919C55.5401 31.7261 54.3336 32.1129 52.9522 32.3247C52.7219 32.3616 52.4917 32.3892 52.243 32.4168C52.0035 32.4445 51.7549 32.4537 51.5062 32.4721C43.7054 32.9142 33.9983 28.079 29.8262 21.6781C28.4631 19.5875 27.8644 17.5797 27.9381 15.8298C27.9381 15.7285 27.9381 15.6364 27.9565 15.5535C27.9565 15.397 27.9934 15.2404 28.0118 15.0838C28.0394 14.9181 28.067 14.7523 28.1131 14.5865C28.1499 14.4207 28.196 14.2642 28.2513 14.1076C28.2881 13.9879 28.325 13.8773 28.371 13.7668C28.371 13.7392 28.3894 13.7208 28.4078 13.6931C28.4262 13.6563 28.4447 13.601 28.4539 13.5642L0.695337 71.1812V71.1996L0.64008 71.3285L0.593985 71.4206C0.593985 71.4206 0.575595 71.4575 0.566385 71.4759C0.520335 71.5864 0.465063 71.6693 0.437433 71.7798C0.400594 71.8627 0.382205 71.918 0.354576 71.9917C0.354576 72.0101 0.336138 72.0285 0.336138 72.0377C0.336138 72.0561 0.3177 72.0746 0.3177 72.093C0.29928 72.1206 0.290091 72.1482 0.280881 72.1851C0.253251 72.2587 0.244035 72.3232 0.216405 72.3969C0.179566 72.5074 0.16113 72.6087 0.14271 72.7192C0.14271 72.7192 0.14271 72.7377 0.14271 72.7469C0.115081 72.8482 0.105873 72.9403 0.0874534 73.0508C0.0874534 73.0968 0.0690628 73.1521 0.059853 73.2074C0.059853 73.2718 0.0414062 73.3271 0.0321963 73.3916C0.0321963 73.4745 0.0138148 73.5573 0.0138148 73.631V73.7692C-0.00460494 74.0178 -0.00460494 74.2665 0.0138148 74.5152C0.0138148 74.5888 0.0138148 74.6625 0.0138148 74.7454C0.0322346 74.8743 0.0506521 75.0125 0.0690718 75.1506C0.0690718 75.2243 0.0874713 75.298 0.105891 75.3717V75.4085C0.124311 75.4638 0.14271 75.5283 0.14271 75.5927V75.6111C0.14271 75.6111 0.161157 75.6572 0.170367 75.6848C0.170367 75.7217 0.170338 75.7769 0.197967 75.8138C0.197967 75.8966 0.234805 75.9795 0.253224 76.0716C0.253224 76.0993 0.253242 76.1085 0.271662 76.1361C0.271662 76.1637 0.271689 76.1914 0.299319 76.219C0.336158 76.3387 0.363736 76.4769 0.418995 76.5966C0.418995 76.6334 0.437451 76.6703 0.455871 76.7163C0.455871 76.7439 0.455889 76.7532 0.474309 76.7624C0.474309 76.8084 0.501927 76.8545 0.520347 76.9005C0.557186 77.0479 0.621649 77.1952 0.686118 77.3426C0.722957 77.4439 0.990012 78.0425 0.999222 78.061C1.01764 78.0978 1.03606 78.1439 1.05448 78.1807C1.09132 78.2452 1.11898 78.3004 1.14661 78.3649C1.18345 78.4202 1.20185 78.4754 1.23869 78.5307C1.27553 78.5951 1.30314 78.6504 1.33998 78.7149C1.36761 78.7609 1.38606 78.8162 1.4229 78.8622C1.4229 78.8806 1.44134 78.8991 1.45055 78.9083C1.48739 78.9543 1.49656 79.0004 1.52419 79.028C1.55182 79.0648 1.56103 79.1017 1.57945 79.1385C1.6255 79.2214 1.68078 79.2951 1.71762 79.3688C1.74525 79.4056 1.76368 79.4425 1.79131 79.4885C1.82815 79.5438 1.86499 79.599 1.90183 79.6543C2.02156 79.8477 2.15969 80.0319 2.28863 80.2253C2.41757 80.4187 2.56494 80.6029 2.7123 80.7871C2.85966 80.9805 2.99779 81.1647 3.15436 81.3397C3.30172 81.5239 3.45829 81.6989 3.62407 81.8831C3.78064 82.0673 3.9464 82.233 4.12138 82.408C4.28716 82.583 4.46214 82.758 4.62792 82.9238C4.81211 83.0988 4.98713 83.2645 5.18054 83.4303C5.53973 83.7619 5.92652 84.0842 6.31334 84.4066C6.70936 84.7197 7.09617 85.0144 7.51061 85.3091C7.5935 85.3644 7.66719 85.4289 7.75008 85.4749C7.87902 85.567 8.01717 85.6683 8.15531 85.7512C8.37635 85.8986 8.59737 86.0367 8.82762 86.1841C9.04865 86.313 9.26051 86.4604 9.49076 86.5893C9.93283 86.8564 10.3933 87.1051 10.863 87.3537C11.0933 87.4735 11.3327 87.5932 11.563 87.7037C12.0419 87.9248 12.5208 88.1458 12.9997 88.3576C13.2392 88.4589 13.4878 88.551 13.7273 88.6523C13.9207 88.726 14.1049 88.7997 14.2983 88.8642C14.4917 88.9378 14.6759 89.0023 14.8785 89.0668C15.2285 89.1865 15.5877 89.3062 15.9377 89.4167C16.0482 89.4536 16.1495 89.4812 16.2692 89.5089C16.3429 89.5365 16.4258 89.5549 16.4995 89.5733C16.5271 89.5733 16.5455 89.5917 16.5732 89.5917C16.8402 89.6654 17.0981 89.7391 17.3652 89.8036C17.6415 89.868 17.8994 89.9233 18.1664 89.9878C20.0084 90.3654 21.8412 90.5312 23.5819 90.4298C23.6279 90.4298 23.6832 90.4298 23.7292 90.4298C23.9042 90.4114 24.07 90.4022 24.2358 90.393C24.2726 90.393 24.3187 90.393 24.3555 90.393C24.3923 90.393 24.4292 90.3746 24.4752 90.3746C24.6686 90.3469 24.8528 90.3285 25.037 90.3009C25.0739 90.3009 25.1199 90.2825 25.1568 90.2825C25.2765 90.2641 25.3778 90.2456 25.4883 90.2272C25.608 90.1996 25.7001 90.1904 25.8106 90.1628C26.004 90.1259 26.1791 90.0799 26.3633 90.0338H26.3816H26.4185C26.483 90.0062 26.5474 89.997 26.6119 89.9786C26.6764 89.9601 26.7316 89.9417 26.7961 89.9325C26.8329 89.9325 26.8514 89.9141 26.8882 89.9049C26.9711 89.868 27.054 89.8496 27.1276 89.822C27.1553 89.822 27.1737 89.8036 27.2013 89.7944C27.2934 89.7575 27.3856 89.7299 27.4685 89.693C27.5053 89.6746 27.5513 89.6562 27.5881 89.6562C27.7171 89.6009 27.846 89.5457 27.9658 89.4904C28.0118 89.472 28.0579 89.4536 28.1039 89.4352C28.1408 89.4168 28.1868 89.3983 28.2236 89.3707C28.2236 89.3707 28.2513 89.3707 28.2605 89.3707C28.2789 89.3707 28.2881 89.3523 28.2973 89.3523H28.3157V89.3339C28.4171 89.2878 28.5092 89.2326 28.6012 89.1865C28.6012 89.1865 28.6289 89.1681 28.6381 89.1681C28.6565 89.1497 28.6749 89.1405 28.6841 89.1312C28.7209 89.1036 28.767 89.0944 28.8038 89.0668C28.8407 89.0483 28.8775 89.0299 28.9144 89.0023C28.9512 88.9839 28.9696 88.9655 29.0065 88.9471C29.0341 88.9471 29.0526 88.9194 29.0802 88.9102C29.117 88.8734 29.1722 88.8549 29.2091 88.8181C29.2275 88.8181 29.246 88.7997 29.2552 88.7813C29.2552 88.7813 29.3104 88.7444 29.338 88.726L29.513 88.6063C29.513 88.6063 29.5406 88.5879 29.5498 88.5786C29.5683 88.5602 29.5867 88.551 29.5959 88.5418C29.6144 88.5234 29.6328 88.505 29.6328 88.505C29.6512 88.505 29.6696 88.4865 29.6788 88.4681C29.7248 88.4313 29.7709 88.3944 29.817 88.3484C29.817 88.3484 29.8446 88.33 29.8538 88.3208C29.9275 88.2563 30.0103 88.1918 30.084 88.1182C30.1669 88.0353 30.2498 87.9616 30.3235 87.8787C30.3788 87.8234 30.434 87.7682 30.48 87.7129C30.5169 87.6761 30.5353 87.6577 30.5537 87.63C30.5537 87.63 30.5721 87.6024 30.5813 87.5932C30.5998 87.5748 30.6182 87.5564 30.6182 87.5471C30.6458 87.5103 30.6734 87.4827 30.7011 87.4458C30.7195 87.4182 33.639 81.7265 33.639 81.7265L33.8693 81.266L59.2609 28.5579C59.2241 28.6224 59.1872 28.6868 59.1412 28.7513V28.7329Z" fill="#FFC466"/>
<path d="M60.8819 25.1867L59.5281 27.9865V28.005H59.5097C59.482 28.0602 59.4636 28.1247 59.4267 28.1892L59.3715 28.3089C59.2978 28.4563 59.2241 28.5944 59.1412 28.7418C59.1044 28.8154 59.0492 28.8891 59.0123 28.9536C58.9755 29.0273 58.9202 29.0917 58.8742 29.1562C58.69 29.4141 58.4874 29.6627 58.2571 29.9022C58.2571 29.9206 58.2295 29.9298 58.2202 29.939C57.99 30.1693 57.7322 30.3903 57.4466 30.6022C57.3269 30.6943 57.2072 30.7864 57.0782 30.8692C57.0414 30.8969 57.0045 30.9153 56.9585 30.9521C56.8296 31.035 56.6822 31.1179 56.5257 31.2008C55.5402 31.735 54.3337 32.1218 52.9522 32.3336C52.722 32.3705 52.4917 32.3981 52.243 32.4257C52.0036 32.4533 51.7549 32.4625 51.5063 32.481C43.7055 32.923 33.9983 28.0879 29.8262 21.687C28.4632 19.5964 27.8645 17.5886 27.9382 15.8387C27.9382 15.7374 27.9382 15.6453 27.9566 15.5624C27.9566 15.4059 27.9934 15.2493 28.0119 15.0927C28.0395 14.9269 28.0671 14.7612 28.1132 14.5954C28.15 14.4296 28.1961 14.273 28.2513 14.1165C28.2882 13.9967 28.325 13.8862 28.3711 13.7757C28.3711 13.7481 28.3895 13.7297 28.4079 13.702C28.4263 13.6652 28.4447 13.6099 28.4539 13.5731C28.4723 13.5455 28.4816 13.5363 28.4908 13.5086C28.4908 13.4902 28.5092 13.4718 28.5184 13.4534L29.8538 10.6904L30.0012 10.3865C30.0012 10.3865 30.0012 10.4141 30.0012 10.4233C29.9644 10.5246 29.9275 10.6167 29.8907 10.7088C29.8538 10.8193 29.817 10.9206 29.7894 11.0312C29.7709 11.0772 29.7525 11.1325 29.7525 11.1877C29.7249 11.243 29.7157 11.3075 29.7065 11.3627C29.7065 11.3811 29.7065 11.3996 29.7065 11.4088V11.4272C29.6789 11.5285 29.6697 11.6298 29.6512 11.7403C29.6512 11.7587 29.6512 11.7772 29.6512 11.7956C29.6512 11.8232 29.6512 11.8324 29.6512 11.8601C29.6512 11.8601 29.6512 11.8877 29.6512 11.8969C29.6512 11.9429 29.6328 11.9982 29.6328 12.0443C29.6144 12.1456 29.6052 12.2377 29.6052 12.339C29.6052 12.4034 29.6052 12.4679 29.6052 12.5416C29.6052 12.6153 29.6052 12.6797 29.6052 12.7534C29.6052 12.8639 29.6052 12.9652 29.6236 13.085C29.6236 13.2231 29.6236 13.3705 29.6512 13.5178C29.6512 13.5363 29.6512 13.5547 29.6512 13.5639C29.6512 13.6928 29.6789 13.831 29.6973 13.9599C29.6973 14.006 29.7157 14.0704 29.7341 14.1165C29.7617 14.3007 29.7986 14.4849 29.8538 14.6783C29.8815 14.7704 29.8999 14.8533 29.9275 14.9454C29.9275 14.973 29.9459 15.0006 29.9551 15.0283C29.992 15.1664 30.0288 15.3046 30.0749 15.4427C30.2314 15.9032 30.4249 16.3729 30.6643 16.861C30.8946 17.3399 31.1709 17.8281 31.4932 18.3162C35.6745 24.7263 45.3817 29.5522 53.1825 29.1102C53.4311 29.0917 53.6798 29.0733 53.9285 29.0549C54.0574 29.0365 54.2048 29.0181 54.3337 29.0088C54.5087 28.9812 54.6745 28.9628 54.8402 28.9352C54.8771 28.9352 54.8955 28.9352 54.9232 28.9352C54.9692 28.9352 55.0244 28.9167 55.0613 28.8983C55.2455 28.8707 55.4112 28.8431 55.577 28.7878C55.6231 28.7878 55.6784 28.7694 55.7244 28.751C55.9547 28.7141 56.1665 28.6404 56.3875 28.576C56.5256 28.5391 56.6638 28.4931 56.7927 28.447C56.9953 28.3734 57.1888 28.3089 57.3822 28.226C57.4098 28.226 57.4374 28.1984 57.465 28.1892C57.6216 28.1247 57.769 28.051 57.9164 27.9865C57.9532 27.9681 57.9808 27.9497 58.0177 27.9405C58.0913 27.9037 58.165 27.8576 58.2387 27.8208C58.3584 27.7655 58.4597 27.701 58.5702 27.6274C58.6715 27.5721 58.7729 27.5076 58.8742 27.434C58.9939 27.3511 59.1228 27.2682 59.2241 27.1761C59.2794 27.1392 59.3439 27.0932 59.3991 27.0471C59.4176 27.0287 59.436 27.0103 59.4544 27.0011C59.5465 26.9274 59.6202 26.8537 59.7031 26.7801C59.7952 26.7064 59.878 26.6235 59.9517 26.5406C59.9517 26.5406 59.9579 26.5406 59.9701 26.5406V26.5222C60.1359 26.3564 60.2833 26.1906 60.4122 26.0156C60.4122 26.0156 60.4122 26.0095 60.4122 25.9972C60.4122 25.9972 60.4767 25.9143 60.5135 25.8775C60.5411 25.8406 60.5503 25.813 60.578 25.7762C60.624 25.7025 60.6885 25.6196 60.7254 25.5459C60.7622 25.4999 60.7898 25.4538 60.8174 25.4078C60.8174 25.4078 60.8174 25.3894 60.8174 25.3802C60.8451 25.3433 60.8543 25.3157 60.8727 25.2788C60.8727 25.2788 60.8911 25.2512 60.9004 25.242C60.9096 25.2328 60.9187 25.2144 60.928 25.2052L60.8819 25.1867Z" fill="#3E3B5B" stroke="#32303D" stroke-width="1.26589" stroke-linecap="round" stroke-linejoin="round"/>
<path d="M64.087 16.6218C64.087 16.7507 64.0871 16.8889 64.0686 17.0178C64.0686 17.1007 64.0686 17.1744 64.0686 17.248C64.0502 17.3862 64.041 17.5335 64.0226 17.6809C63.995 17.8467 63.9765 18.0032 63.9489 18.1506C63.9305 18.2243 63.9212 18.2888 63.912 18.3624C63.8752 18.5743 63.8107 18.7861 63.7555 18.9887C63.7186 19.1361 63.6634 19.2742 63.6081 19.4216C63.6081 19.4216 63.6081 19.44 63.6081 19.4492C63.5897 19.5045 63.5713 19.5689 63.5345 19.6334C63.516 19.6794 63.4976 19.7439 63.4792 19.79C63.4608 19.8268 63.4424 19.8729 63.4332 19.9189C63.3871 20.0202 63.3318 20.1307 63.2858 20.2597C62.9082 21.0517 62.3464 21.7517 61.6188 22.3319C61.0662 22.7832 60.4215 23.17 59.6939 23.4831C58.4967 23.9989 57.0691 24.3212 55.4113 24.4225C47.6106 24.8646 37.9034 20.0294 33.7313 13.6193C32.9669 12.4405 32.4419 11.2892 32.138 10.2025C31.9261 9.42885 31.8249 8.68285 31.8341 7.9829C31.8525 7.0435 32.0459 6.16856 32.4235 5.38572C32.4879 5.25678 32.5616 5.10942 32.6537 4.95285C32.7826 4.69498 32.9392 4.44631 33.0866 4.23448C33.2524 4.01345 33.4182 3.7832 33.6116 3.55296C33.7037 3.43323 33.8049 3.32271 33.9247 3.20298C33.9799 3.14772 34.0444 3.08325 34.1181 3.00957C34.1734 2.95431 34.2378 2.88984 34.2931 2.84379C34.5141 2.65039 34.7075 2.48461 34.8733 2.35567C35.0391 2.22673 35.168 2.12542 35.2786 2.06095C35.343 2.0149 35.3983 1.96886 35.4443 1.94123C35.4904 1.90439 35.5548 1.87676 35.6193 1.83071C35.868 1.66493 36.0982 1.53599 36.2824 1.44389C36.6232 1.25049 36.9916 1.0755 37.3508 0.937349C37.3876 0.918929 37.4337 0.90051 37.4705 0.8913C37.6087 0.845251 37.756 0.780782 37.9402 0.725522C37.9863 0.707103 38.0323 0.688682 38.0783 0.688682C38.2625 0.615003 38.4283 0.568955 38.6033 0.513696C38.8336 0.449226 39.0915 0.393966 39.4414 0.311077C39.4599 0.311077 39.4783 0.311078 39.4967 0.292659C39.598 0.274239 39.7085 0.255818 39.8282 0.237398C39.9572 0.209769 40.1045 0.191349 40.2519 0.172929C40.4268 0.13609 40.6019 0.12688 40.7584 0.0992505C40.9426 0.0808307 41.1084 0.0624117 41.2742 0.0532018C41.311 0.0532018 41.3387 0.0532018 41.3755 0.0532018C41.5044 0.0532018 41.6426 0.0347814 41.7715 0.0255715C42.011 0.0255715 42.2412 0.00715135 42.4622 0.00715135C43.1254 -0.0112684 43.724 0.00715261 44.2674 0.0624119C44.3871 0.0624119 44.5069 0.0808307 44.6174 0.0992505C45.2068 0.15451 45.7502 0.237399 46.3028 0.329497C46.6527 0.384757 47.0304 0.458436 47.4356 0.559744C47.4817 0.559744 47.5277 0.587375 47.5645 0.596585C47.9882 0.707103 48.3105 0.789991 48.5684 0.86367C48.6697 0.8913 48.7618 0.918929 48.8539 0.946559C48.9736 0.983399 49.0842 1.01103 49.2039 1.05708C49.4065 1.12155 49.6183 1.18602 49.8302 1.2597C49.9867 1.31495 50.1709 1.37942 50.3459 1.44389C50.5393 1.51757 50.7419 1.59125 50.9446 1.67414C51.5893 1.95044 51.9484 2.09779 52.2155 2.20831C53.0168 2.55829 53.818 2.96352 54.6009 3.43323C54.8035 3.55295 55.0153 3.67268 55.2087 3.79241C55.3101 3.85688 55.439 3.93056 55.5863 4.03187C55.9547 4.27132 56.4889 4.6213 57.0691 5.05416C57.2165 5.16468 57.373 5.2752 57.5388 5.41335C57.6309 5.46861 57.723 5.54229 57.8151 5.62518C57.8519 5.65281 57.898 5.68043 57.9348 5.72648C58.2848 6.00278 58.6256 6.3067 58.9755 6.62905C59.1413 6.77641 59.2887 6.92377 59.4453 7.08034C59.565 7.20006 59.6755 7.31058 59.7952 7.43031C59.8321 7.46715 59.8597 7.49478 59.8965 7.53162C60.0347 7.67898 60.1729 7.82634 60.3202 7.9829C60.5597 8.24999 60.7899 8.51708 61.011 8.78416C61.0294 8.821 61.0478 8.83942 61.0754 8.86705C61.1952 9.01441 61.3057 9.16177 61.4162 9.30913C61.5267 9.44728 61.6188 9.58542 61.7109 9.73278C61.7109 9.73278 61.7109 9.73278 61.7293 9.7512C61.8214 9.88935 61.9227 10.0275 62.0148 10.1841C62.0885 10.3038 62.1806 10.4512 62.2819 10.6169C62.3003 10.6446 62.3187 10.663 62.328 10.6906C62.6135 11.1787 62.9819 11.8326 63.3134 12.6799C63.3411 12.7352 63.3595 12.7997 63.3779 12.8641C63.5437 13.297 63.6634 13.6838 63.7463 14.0246C63.8015 14.218 63.8476 14.3838 63.866 14.5311C63.9028 14.7061 63.9397 14.8811 63.9673 15.0561C63.9673 15.0929 63.9673 15.1021 63.9673 15.1113C63.9949 15.2771 64.0134 15.4429 64.0226 15.5995C64.0226 15.7192 64.0502 15.8573 64.0594 15.9955C64.0594 16.0876 64.0779 16.1889 64.0779 16.2718C64.0779 16.3915 64.0779 16.502 64.0779 16.6218H64.087Z" fill="#FF6BC5"/>
<path d="M63.2576 20.269L61.1025 24.7358L61.0288 24.8923L61.0012 24.9476C61.0012 24.9476 60.9827 24.9752 60.9827 24.9844L60.9644 25.0028V25.0305V25.0489C60.9275 25.0949 60.9091 25.141 60.8815 25.187C60.8815 25.187 60.8814 25.2147 60.863 25.2239C60.8446 25.2331 60.8446 25.2515 60.8354 25.2607C60.817 25.2976 60.7986 25.3252 60.7802 25.362C60.7802 25.362 60.7802 25.3804 60.7802 25.3897C60.7525 25.4357 60.7249 25.4818 60.688 25.5278C60.6512 25.6015 60.5867 25.6844 60.5407 25.7581C60.5131 25.7949 60.5038 25.8225 60.4762 25.8594C60.4394 25.8962 60.421 25.9423 60.3749 25.9791C60.3749 25.9791 60.3749 25.9852 60.3749 25.9975C60.246 26.1817 60.0986 26.3475 59.9329 26.5041C59.9329 26.5041 59.9329 26.5102 59.9329 26.5225C59.9329 26.5225 59.9328 26.5225 59.9144 26.5225C59.8407 26.6054 59.7578 26.6882 59.6657 26.7619C59.5828 26.8356 59.5092 26.9093 59.4171 26.983C59.3987 27.0014 59.3802 27.0198 59.3618 27.029C59.3065 27.0751 59.2421 27.1211 59.1869 27.158C59.0763 27.2501 58.9566 27.3329 58.8369 27.4158C58.7356 27.4895 58.6343 27.554 58.5329 27.6092C58.4224 27.6737 58.3211 27.7382 58.2014 27.8026C58.1277 27.8395 58.054 27.8855 57.9803 27.9224C57.9435 27.9408 57.9159 27.9592 57.879 27.9684C57.7317 28.0329 57.5843 28.1066 57.4277 28.171C57.4001 28.171 57.3725 28.1987 57.3449 28.2079C57.1515 28.2908 56.9673 28.3552 56.7554 28.4289C56.6265 28.475 56.4884 28.521 56.3502 28.5579C56.1384 28.6223 55.9173 28.6776 55.6871 28.7328C55.641 28.7513 55.5858 28.7697 55.5397 28.7697C55.374 28.8157 55.199 28.8526 55.024 28.8802C54.9871 28.8986 54.9319 28.9078 54.8858 28.917C54.8582 28.917 54.8398 28.917 54.803 28.917C54.6372 28.9447 54.4714 28.9631 54.2964 28.9907C54.1674 29.0091 54.0201 29.0276 53.8912 29.0368C53.6425 29.0644 53.3938 29.0736 53.1451 29.092C45.3444 29.5341 35.6372 24.7081 31.4559 18.2981C31.1335 17.8007 30.8573 17.3218 30.627 16.8429C30.3876 16.3548 30.1942 15.8851 30.0376 15.4246C29.9915 15.2864 29.9455 15.1483 29.9179 15.0101C29.9179 14.9825 29.8994 14.9549 29.8902 14.9272C29.8626 14.8351 29.8442 14.7523 29.8166 14.6602C29.7705 14.4667 29.7245 14.2825 29.6968 14.0983C29.6784 14.0523 29.6692 13.9878 29.6599 13.9418C29.6323 13.8128 29.6231 13.6747 29.6139 13.5458C29.6139 13.5273 29.6139 13.5089 29.6139 13.4997C29.5955 13.3616 29.5863 13.2142 29.5863 13.0668C29.5863 12.9471 29.5679 12.8458 29.5679 12.7353C29.5679 12.6616 29.5679 12.5971 29.5679 12.5235C29.5679 12.4498 29.5679 12.3853 29.5679 12.3208C29.5679 12.2195 29.5679 12.1274 29.5955 12.0261C29.5955 11.9801 29.5955 11.9248 29.6139 11.8788C29.6139 11.8603 29.6139 11.8419 29.6139 11.8419C29.6139 11.8143 29.6139 11.8051 29.6139 11.7775C29.6139 11.7498 29.6139 11.7406 29.6139 11.7222C29.6323 11.6117 29.6507 11.5104 29.6692 11.4091V11.3906C29.6692 11.3906 29.6692 11.3538 29.6692 11.3446C29.6876 11.2893 29.6968 11.2249 29.7153 11.1696C29.7153 11.1143 29.7429 11.0591 29.7521 11.013C29.7797 10.9025 29.8073 10.8012 29.8534 10.6907C29.8902 10.5894 29.927 10.4973 29.9639 10.4052L30.0468 10.2118L30.0836 10.1289C30.0836 10.1289 30.0836 10.1105 30.0836 10.1013C30.0836 10.0828 30.0836 10.0736 30.1021 10.0644L32.3585 5.39502C31.9809 6.17786 31.7783 7.0528 31.769 7.9922C31.769 8.69215 31.8612 9.43815 32.073 10.2026C32.3677 11.2985 32.8926 12.4498 33.6663 13.6286C37.8384 20.0387 47.5455 24.8739 55.3463 24.4318C57.0041 24.3305 58.4408 24.0082 59.6289 23.4924C60.3657 23.1793 61.0012 22.7925 61.5538 22.3412C62.2813 21.7518 62.8431 21.0518 63.2207 20.269H63.2576Z" fill="#FF3DB3"/>
<path d="M12.0054 87.5837L39.81 30.2615" stroke="#92651D" stroke-width="1.26589" stroke-linecap="round" stroke-linejoin="round"/>
<path d="M3.20947 81.3213L31.0141 23.999" stroke="#92651D" stroke-width="1.26589" stroke-linecap="round" stroke-linejoin="round"/>
<path d="M22.0532 90.457L49.8486 33.1348" stroke="#92651D" stroke-width="1.26589" stroke-linecap="round" stroke-linejoin="round"/>
</svg>
