<svg width="0" height="14" viewBox="0 0 18 14" fill="none" xmlns="http://www.w3.org/2000/svg">
<path d="M15.875 0.125H2.125C1.79348 0.125 1.47554 0.256696 1.24112 0.491116C1.0067 0.725537 0.875 1.04348 0.875 1.375V12.625C0.875 12.9565 1.0067 13.2745 1.24112 13.5089C1.47554 13.7433 1.79348 13.875 2.125 13.875H3.17109C3.28938 13.875 3.40525 13.8415 3.50524 13.7783C3.60522 13.7151 3.68522 13.6248 3.73594 13.518C4.03986 12.8763 4.5197 12.3341 5.11965 11.9544C5.71959 11.5748 6.415 11.3732 7.125 11.3732C7.835 11.3732 8.53041 11.5748 9.13036 11.9544C9.7303 12.3341 10.2101 12.8763 10.5141 13.518C10.5648 13.6248 10.6448 13.7151 10.7448 13.7783C10.8448 13.8415 10.9606 13.875 11.0789 13.875H15.875C16.2065 13.875 16.5245 13.7433 16.7589 13.5089C16.9933 13.2745 17.125 12.9565 17.125 12.625V1.375C17.125 1.04348 16.9933 0.725537 16.7589 0.491116C16.5245 0.256696 16.2065 0.125 15.875 0.125ZM5.25 8.25C5.25 7.87916 5.35997 7.51665 5.56599 7.20831C5.77202 6.89996 6.06486 6.65964 6.40747 6.51773C6.75008 6.37581 7.12708 6.33868 7.49079 6.41103C7.85451 6.48337 8.1886 6.66195 8.45083 6.92417C8.71305 7.1864 8.89163 7.52049 8.96397 7.8842C9.03632 8.24792 8.99919 8.62492 8.85727 8.96753C8.71536 9.31014 8.47504 9.60298 8.16669 9.80901C7.85835 10.015 7.49584 10.125 7.125 10.125C6.62772 10.125 6.15081 9.92746 5.79917 9.57583C5.44754 9.22419 5.25 8.74728 5.25 8.25ZM15.875 12.625H11.4555C10.9335 11.7277 10.1468 11.0138 9.20312 10.5812C9.67624 10.16 10.0102 9.60487 10.1606 8.98951C10.311 8.37415 10.2709 7.72759 10.0455 7.13556C9.82015 6.54352 9.42016 6.03396 8.89859 5.67443C8.37701 5.31489 7.75849 5.12236 7.125 5.12236C6.49151 5.12236 5.87299 5.31489 5.35141 5.67443C4.82984 6.03396 4.42985 6.54352 4.20447 7.13556C3.97909 7.72759 3.93896 8.37415 4.0894 8.98951C4.23985 9.60487 4.57376 10.16 5.04688 10.5812C4.10321 11.0138 3.31646 11.7277 2.79453 12.625H2.125V1.375H15.875V12.625ZM3.375 4.5V3.25C3.375 3.08424 3.44085 2.92527 3.55806 2.80806C3.67527 2.69085 3.83424 2.625 4 2.625H14C14.1658 2.625 14.3247 2.69085 14.4419 2.80806C14.5592 2.92527 14.625 3.08424 14.625 3.25V10.75C14.625 10.9158 14.5592 11.0747 14.4419 11.1919C14.3247 11.3092 14.1658 11.375 14 11.375H12.75C12.5842 11.375 12.4253 11.3092 12.3081 11.1919C12.1908 11.0747 12.125 10.9158 12.125 10.75C12.125 10.5842 12.1908 10.4253 12.3081 10.3081C12.4253 10.1908 12.5842 10.125 12.75 10.125H13.375V3.875H4.625V4.5C4.625 4.66576 4.55915 4.82473 4.44194 4.94194C4.32473 5.05915 4.16576 5.125 4 5.125C3.83424 5.125 3.67527 5.05915 3.55806 4.94194C3.44085 4.82473 3.375 4.66576 3.375 4.5Z" fill="#232323"/>
</svg>
