<svg width="17" height="17" viewBox="0 0 17 17" fill="none" xmlns="http://www.w3.org/2000/svg">
<path d="M16.2794 15.551C15.0896 13.4939 13.256 12.0189 11.1161 11.3197C12.1746 10.6896 12.997 9.72945 13.4569 8.58673C13.9169 7.44401 13.989 6.18189 13.6623 4.9942C13.3355 3.80651 12.6279 2.75892 11.6482 2.0123C10.6684 1.26568 9.47062 0.861328 8.2388 0.861328C7.00698 0.861328 5.80921 1.26568 4.82944 2.0123C3.84967 2.75892 3.14208 3.80651 2.81531 4.9942C2.48855 6.18189 2.56069 7.44401 3.02066 8.58673C3.48063 9.72945 4.30299 10.6896 5.36145 11.3197C3.22161 12.0181 1.38802 13.4931 0.198173 15.551C0.154539 15.6221 0.125597 15.7013 0.113055 15.7838C0.100512 15.8663 0.104623 15.9505 0.125145 16.0314C0.145667 16.1123 0.182184 16.1883 0.232542 16.2548C0.282899 16.3214 0.346077 16.3772 0.418349 16.4189C0.49062 16.4607 0.57052 16.4875 0.653335 16.4979C0.73615 16.5082 0.820203 16.5019 0.900533 16.4793C0.980864 16.4566 1.05585 16.4181 1.12105 16.366C1.18626 16.3139 1.24038 16.2493 1.2802 16.176C2.75208 13.6322 5.35364 12.1135 8.2388 12.1135C11.124 12.1135 13.7255 13.6322 15.1974 16.176C15.2372 16.2493 15.2913 16.3139 15.3565 16.366C15.4218 16.4181 15.4967 16.4566 15.5771 16.4793C15.6574 16.5019 15.7414 16.5082 15.8243 16.4979C15.9071 16.4875 15.987 16.4607 16.0592 16.4189C16.1315 16.3772 16.1947 16.3214 16.2451 16.2548C16.2954 16.1883 16.3319 16.1123 16.3524 16.0314C16.373 15.9505 16.3771 15.8663 16.3645 15.7838C16.352 15.7013 16.3231 15.6221 16.2794 15.551ZM3.8638 6.48845C3.8638 5.62316 4.12039 4.7773 4.60112 4.05783C5.08185 3.33837 5.76513 2.77761 6.56456 2.44648C7.36398 2.11535 8.24365 2.02871 9.09232 2.19752C9.94099 2.36633 10.7205 2.78301 11.3324 3.39486C11.9442 4.00672 12.3609 4.78627 12.5297 5.63493C12.6985 6.4836 12.6119 7.36327 12.2808 8.16269C11.9496 8.96212 11.3889 9.6454 10.6694 10.1261C9.94995 10.6069 9.10409 10.8635 8.2388 10.8635C7.07886 10.8622 5.96678 10.4009 5.14658 9.58068C4.32637 8.76047 3.86504 7.6484 3.8638 6.48845Z" fill="black"/>
</svg>
