<svg width="17" height="17" viewBox="0 0 17 17" fill="none" xmlns="http://www.w3.org/2000/svg">
<path d="M16.2702 2.1185C16.2702 2.1185 16.2702 2.12553 16.2702 2.12904L12.178 15.6248C12.116 15.844 11.9885 16.039 11.8126 16.1837C11.6366 16.3284 11.4206 16.4157 11.1936 16.4341C11.1612 16.4369 11.1289 16.4383 11.0966 16.4383C10.8838 16.439 10.6753 16.3788 10.4956 16.2648C10.316 16.1508 10.1727 15.9878 10.0827 15.795L7.5718 10.4941C7.54701 10.4417 7.53904 10.3829 7.54898 10.3257C7.55893 10.2686 7.5863 10.2159 7.62734 10.1749L11.6534 6.1481C11.7545 6.04176 11.81 5.90015 11.8081 5.75347C11.8062 5.60679 11.7471 5.46665 11.6434 5.36292C11.5397 5.2592 11.3995 5.20009 11.2528 5.19822C11.1062 5.19634 10.9645 5.25183 10.8582 5.35287L6.82578 9.37896C6.7848 9.42001 6.73212 9.44738 6.67497 9.45732C6.61783 9.46727 6.559 9.4593 6.50656 9.43451L1.23312 6.93631C1.02601 6.84142 0.85172 6.68721 0.732311 6.4932C0.612902 6.29919 0.553749 6.07411 0.562343 5.84646C0.573796 5.61249 0.658502 5.38803 0.804486 5.20482C0.95047 5.02162 1.15035 4.88893 1.37586 4.82553L14.8716 0.733339H14.8822C15.0743 0.679354 15.2774 0.677461 15.4705 0.727855C15.6636 0.778249 15.8399 0.879115 15.9812 1.0201C16.1224 1.16109 16.2237 1.33713 16.2744 1.53015C16.3252 1.72318 16.3238 1.92623 16.2702 2.1185Z" fill="white"/>
</svg>
