<svg width="15" height="16" viewBox="0 0 15 16" fill="none" xmlns="http://www.w3.org/2000/svg">
<path d="M6.25 14.875C6.25 15.0408 6.18415 15.1997 6.06694 15.3169C5.94973 15.4342 5.79076 15.5 5.625 15.5H1.25C0.918479 15.5 0.600537 15.3683 0.366116 15.1339C0.131696 14.8995 0 14.5815 0 14.25V1.75C0 1.41848 0.131696 1.10054 0.366116 0.866116C0.600537 0.631696 0.918479 0.5 1.25 0.5H5.625C5.79076 0.5 5.94973 0.565848 6.06694 0.683058C6.18415 0.800269 6.25 0.95924 6.25 1.125C6.25 1.29076 6.18415 1.44973 6.06694 1.56694C5.94973 1.68415 5.79076 1.75 5.625 1.75H1.25V14.25H5.625C5.79076 14.25 5.94973 14.3158 6.06694 14.4331C6.18415 14.5503 6.25 14.7092 6.25 14.875ZM14.8172 7.55781L11.6922 4.43281C11.5749 4.31554 11.4159 4.24965 11.25 4.24965C11.0841 4.24965 10.9251 4.31554 10.8078 4.43281C10.6905 4.55009 10.6247 4.70915 10.6247 4.875C10.6247 5.04085 10.6905 5.19991 10.8078 5.31719L12.8664 7.375H5.625C5.45924 7.375 5.30027 7.44085 5.18306 7.55806C5.06585 7.67527 5 7.83424 5 8C5 8.16576 5.06585 8.32473 5.18306 8.44194C5.30027 8.55915 5.45924 8.625 5.625 8.625H12.8664L10.8078 10.6828C10.6905 10.8001 10.6247 10.9591 10.6247 11.125C10.6247 11.2909 10.6905 11.4499 10.8078 11.5672C10.9251 11.6845 11.0841 11.7503 11.25 11.7503C11.4159 11.7503 11.5749 11.6845 11.6922 11.5672L14.8172 8.44219C14.8753 8.38414 14.9214 8.31521 14.9529 8.23934C14.9843 8.16346 15.0005 8.08213 15.0005 8C15.0005 7.91787 14.9843 7.83654 14.9529 7.76066C14.9214 7.68479 14.8753 7.61586 14.8172 7.55781Z" fill="#FB6262"/>
</svg>
