<svg width="250" height="558" viewBox="0 0 250 558" fill="none" xmlns="http://www.w3.org/2000/svg">
<path d="M193.05 157.848C197.588 160.186 201.562 163.485 204.694 167.517C207.826 171.548 210.041 176.213 211.185 181.188C215.175 198.163 254.387 273.759 254.387 273.759L211.949 291.186C211.949 291.186 193.729 249.796 186.147 216.383C178.565 182.971 182.894 162.629 182.894 162.629L193.05 157.848Z" fill="#A08EFD"/>
<path d="M63.8715 157.848C59.3389 160.189 55.3709 163.49 52.2439 167.521C49.1169 171.552 46.906 176.216 45.7648 181.188C41.7474 198.163 2.53516 273.759 2.53516 273.759L44.9727 291.186C44.9727 291.186 63.1642 249.796 70.7747 216.383C78.3851 182.971 73.9999 162.629 73.9999 162.629L63.8715 157.848Z" fill="#A08EFD"/>
<path d="M215.572 573.227H215.204C197.697 576.871 179.932 579.141 162.072 580.017L155.056 580.329H150.614C148.266 580.329 145.861 580.329 143.513 580.329H143.343C138.25 580.329 133.215 580.187 128.179 579.932L113.325 578.971C97.2782 577.645 81.3526 575.12 65.6822 571.417C62.6267 570.681 59.6278 569.917 56.6006 569.097C52.1588 567.909 47.717 566.607 43.3318 565.164C40.1066 564.174 36.9096 563.071 33.7126 561.911L33.0337 561.656L31.0532 560.921C38.3525 494.096 46.2176 429.251 51.9608 401.667C65.2862 337.699 83.0817 313.283 83.0817 313.283L169.258 309.605C206.49 344.348 215.458 465.238 215.572 573.227Z" fill="#38332F"/>
<path d="M230.398 472.38C220.888 499.688 87.9943 511.559 37.6209 484.619C25.7198 478.254 23.784 463.587 27.0153 450.483C30.8051 435.114 36.2281 412.508 41.685 387.661C46.3561 366.375 51.0555 343.419 54.7924 321.991C62.889 275.372 59.4352 227.79 58.1613 207.636C55.9504 173.373 66.6499 159.698 73.3307 154.558C76.4011 152.196 80.3285 151.605 84.1976 151.409L168.474 147.145C172.169 146.958 175.942 147.005 179.382 148.366C183.447 149.975 187.089 152.555 189.97 155.916C194.067 160.695 196.37 166.752 196.483 173.046L198.804 300.422C198.804 307.584 208.458 352.477 217.177 394.681C224.99 432.271 231.983 467.88 230.398 472.38Z" fill="#9682FD"/>
<path d="M119.917 138.695L78.6113 151.822C78.6113 151.822 89.249 176.945 124.783 178.586C160.318 180.227 174.209 146.928 174.209 146.928L132.733 137.082L119.917 138.695Z" fill="#E0A396"/>
<path d="M166.287 110.146C162.382 95.3497 176.698 71.3583 175.255 47.4519C173.359 15.3125 149.991 0.855469 126.282 0.855469C94.7652 0.855469 80.3365 22.5552 76.4322 43.293C72.9523 61.8523 84.9197 97.2452 86.2211 112.494C87.1264 122.764 85.0045 127.546 83.9012 129.469C83.9012 129.469 92.5867 138.664 109.986 137.589H142.833C160.204 138.664 167.673 131.563 167.673 131.563C174.208 129.95 170.191 124.83 166.287 110.146Z" fill="#38332F"/>
<path d="M165.184 50.7308C165.172 63.9454 163.625 77.114 160.572 89.9713C158.337 99.4773 152.085 106.126 143.06 111.473L141.419 112.463C136.679 115.239 131.297 116.731 125.805 116.79C120.312 116.85 114.899 115.475 110.1 112.803C100.424 107.286 93.6344 100.043 91.5408 89.8299C89.0824 76.9294 87.6352 63.8566 87.2122 50.7308C87.2122 50.7308 83.5908 10.7546 125.576 11.5468C167.561 12.3389 165.184 50.7308 165.184 50.7308Z" fill="#ECBDB3"/>
<path d="M124.104 75.7188V80.783C124.099 81.0808 124.16 81.3759 124.283 81.6472C124.406 81.9184 124.588 82.1588 124.815 82.3511C125.043 82.5433 125.31 82.6826 125.598 82.7588C125.886 82.835 126.187 82.8462 126.48 82.7917L129.309 82.2258" stroke="#1C0E0E" stroke-width="0.72" stroke-linecap="round" stroke-linejoin="round"/>
<path d="M107.638 53.2271C107.638 53.2271 115.616 52.1237 115.871 55.3773C115.871 55.3773 115.871 57.584 109.024 58.4045C102.178 59.2249 97.3965 58.8006 96.6609 56.7636C95.9253 54.7266 103.904 53.5666 107.638 53.2271Z" fill="#38332F"/>
<path d="M143.342 52.7166C143.342 52.7166 134.996 51.5567 134.855 54.9799C134.855 54.9799 134.855 57.2716 142.041 58.1486C149.227 59.0257 154.207 58.5447 154.97 56.4228C155.734 54.3009 147.275 52.9429 143.342 52.7166Z" fill="#38332F"/>
<path d="M111.231 89.918H140.994C140.994 89.918 138.646 97.6133 126.113 97.6133C123.183 97.6973 120.281 97.0351 117.678 95.6889C115.074 94.3428 112.856 92.3569 111.231 89.918Z" fill="white"/>
<mask id="mask0_2359_13080" style="mask-type:luminance" maskUnits="userSpaceOnUse" x="100" y="62" width="18" height="14">
<path d="M117.548 69.983C117.932 70.8536 116.248 72.7644 115.581 73.3749C110.214 77.9879 97.5576 72.0295 100.597 66.0937C100.597 66.0937 103.038 61.3224 107.377 62.1817C111.717 63.041 114.293 64.3751 115.288 65.6527C116.145 67.0396 116.9 68.4869 117.548 69.983Z" fill="white"/>
</mask>
<g mask="url(#mask0_2359_13080)">
<path d="M109.377 73.1973C106.176 73.1973 103.58 70.5246 103.58 67.2276C103.58 63.9306 106.176 61.2578 109.377 61.2578C112.579 61.2578 115.174 63.9306 115.174 67.2276C115.174 70.5246 112.579 73.1973 109.377 73.1973Z" fill="url(#paint0_linear_2359_13080)"/>
<path d="M106.146 67.2836C106.146 67.8851 106.324 68.4732 106.658 68.9733C106.992 69.4735 107.467 69.8633 108.022 70.0935C108.578 70.3237 109.189 70.3839 109.778 70.2666C110.368 70.1492 110.91 69.8596 111.335 69.4342C111.76 69.0089 112.049 68.4669 112.167 67.877C112.284 67.287 112.224 66.6755 111.994 66.1197C111.764 65.564 111.374 65.089 110.874 64.7548C110.374 64.4206 109.787 64.2422 109.185 64.2422C108.786 64.2407 108.39 64.3184 108.02 64.4707C107.651 64.623 107.315 64.847 107.033 65.1297C106.75 65.4124 106.526 65.7483 106.374 66.118C106.222 66.4876 106.144 66.8838 106.146 67.2836Z" fill="#503B2B"/>
<path opacity="0.21" d="M117.615 70.3716C117.615 70.3716 117.491 70.937 117.129 70.903C116.768 70.8691 111.671 63.6783 107.061 64.515C102.45 65.3516 100.281 68.2234 100.089 68.0425C99.8965 67.8616 100.981 64.1192 101.851 63.6331C102.722 63.1469 110.519 62.1406 110.519 62.1406L115.287 65.8039L117.615 70.3716Z" fill="#231E1F"/>
<path opacity="0.66" d="M103.106 67.5333C103.106 67.5333 108.7 66.6853 108.304 67.2846C107.909 67.8838 104.055 69.9981 103.502 69.8285C102.948 69.6589 102.055 67.6803 103.106 67.5333Z" fill="white"/>
</g>
<path d="M100.134 67.394C102.982 64.2056 106.586 61.5825 111.671 64.0021C114.926 65.5736 115.909 68.3211 117.468 70.7859C117.593 70.9894 117.988 70.8763 118 70.6841C118.158 66.7156 114.802 62.4305 109.683 61.4129C104.383 60.3727 99.9644 63.1089 99.7836 67.2583C99.7836 67.4166 100.032 67.4392 100.134 67.3261V67.394Z" fill="#303030"/>
<path d="M102.383 63.0279C102.383 63.0279 96.4502 65.2891 94.2692 62.293C94.6175 63.6259 95.331 64.835 96.3293 65.7839C97.3276 66.7329 98.571 67.3838 99.9194 67.6635L102.383 63.0279Z" fill="#303030"/>
<mask id="mask1_2359_13080" style="mask-type:luminance" maskUnits="userSpaceOnUse" x="135" y="62" width="19" height="14">
<path d="M135.754 69.983C135.369 70.8536 137.053 72.7644 137.72 73.3749C143.087 77.9879 155.744 72.0295 152.704 66.0937C152.704 66.0937 150.263 61.3224 145.924 62.1817C141.584 63.041 139.008 64.3751 138.014 65.6527C137.157 67.0396 136.401 68.4869 135.754 69.983Z" fill="white"/>
</mask>
<g mask="url(#mask1_2359_13080)">
<path d="M143.923 73.1973C147.125 73.1973 149.721 70.5246 149.721 67.2276C149.721 63.9306 147.125 61.2578 143.923 61.2578C140.722 61.2578 138.126 63.9306 138.126 67.2276C138.126 70.5246 140.722 73.1973 143.923 73.1973Z" fill="url(#paint1_linear_2359_13080)"/>
<path d="M147.155 67.2836C147.155 67.8851 146.977 68.4732 146.643 68.9733C146.309 69.4735 145.834 69.8633 145.279 70.0935C144.723 70.3237 144.112 70.3839 143.522 70.2666C142.933 70.1492 142.391 69.8596 141.966 69.4342C141.541 69.0089 141.251 68.4669 141.134 67.877C141.017 67.287 141.077 66.6755 141.307 66.1197C141.537 65.564 141.927 65.089 142.427 64.7548C142.927 64.4206 143.514 64.2422 144.115 64.2422C144.515 64.2407 144.911 64.3184 145.28 64.4707C145.65 64.623 145.986 64.847 146.268 65.1297C146.551 65.4124 146.775 65.7483 146.927 66.118C147.079 66.4876 147.157 66.8838 147.155 67.2836Z" fill="#503B2B"/>
<path opacity="0.21" d="M135.686 70.3716C135.686 70.3716 135.81 70.937 136.171 70.903C136.533 70.8691 141.629 63.6783 146.24 64.515C150.85 65.3516 153.02 68.2234 153.212 68.0425C153.404 67.8616 152.319 64.1192 151.449 63.6331C150.579 63.1469 142.782 62.1406 142.782 62.1406L138.013 65.8039L135.686 70.3716Z" fill="#231E1F"/>
<path opacity="0.66" d="M150.195 67.5333C150.195 67.5333 144.601 66.6853 144.997 67.2846C145.392 67.8838 149.245 69.9981 149.799 69.8285C150.353 69.6589 151.246 67.6803 150.195 67.5333Z" fill="white"/>
</g>
<path d="M153.167 67.394C150.32 64.2056 146.715 61.5825 141.63 64.0021C138.375 65.5736 137.392 68.3211 135.833 70.7859C135.709 70.9894 135.313 70.8763 135.302 70.6841C135.144 66.7156 138.5 62.4305 143.619 61.4129C148.919 60.3727 153.337 63.1089 153.518 67.2583C153.518 67.4166 153.269 67.4392 153.167 67.3261V67.394Z" fill="#303030"/>
<path d="M150.918 63.0279C150.918 63.0279 156.851 65.2891 159.032 62.293C158.684 63.6259 157.97 64.835 156.972 65.7839C155.974 66.7329 154.73 67.3838 153.382 67.6635L150.918 63.0279Z" fill="#303030"/>
<path d="M83.9006 129.471C83.9006 129.471 64.8037 146.163 63.8701 157.763C63.8701 157.763 92.7559 190.949 135.646 184.895C178.536 178.84 194.04 158.244 194.04 158.244L170.445 126.246C170.445 126.246 85.683 130.235 83.9006 129.471Z" fill="#38332F"/>
<path d="M96.2939 236.807L107.611 231.601L113.891 203.168L134.035 208.062C134.035 208.062 131.828 242.012 128.546 247.982C125.265 253.952 103.961 262.665 103.961 262.665L96.2939 236.807Z" fill="#E0A396"/>
<path d="M126.509 208.543L129.508 191.568C129.579 191.148 129.752 190.751 130.012 190.413C130.272 190.075 130.611 189.807 131 189.631C131.388 189.455 131.814 189.377 132.239 189.404C132.665 189.431 133.077 189.562 133.44 189.786C133.843 190.028 134.173 190.373 134.397 190.786C134.621 191.199 134.73 191.665 134.713 192.134L134.006 207.921L126.509 208.543Z" fill="#E0A396"/>
<path d="M122.407 205.18L125.406 188.205C125.477 187.784 125.65 187.388 125.91 187.05C126.171 186.712 126.51 186.443 126.898 186.267C127.287 186.091 127.712 186.013 128.138 186.04C128.563 186.067 128.976 186.199 129.339 186.422C129.742 186.661 130.072 187.007 130.292 187.421C130.511 187.836 130.612 188.303 130.583 188.771L129.027 207.471L122.407 205.18Z" fill="#E0A396"/>
<path d="M117.257 205.123L120.822 184.951C120.894 184.535 121.068 184.142 121.326 183.808C121.584 183.474 121.92 183.207 122.304 183.032C122.689 182.856 123.11 182.777 123.532 182.801C123.954 182.825 124.364 182.951 124.726 183.169C125.139 183.406 125.478 183.754 125.703 184.174C125.928 184.595 126.03 185.069 125.999 185.545L124.698 206.028L117.257 205.123Z" fill="#E0A396"/>
<path d="M113.863 203.167L116.862 186.334C116.933 185.913 117.106 185.517 117.366 185.179C117.626 184.841 117.965 184.572 118.354 184.396C118.742 184.22 119.168 184.142 119.593 184.169C120.019 184.196 120.431 184.328 120.794 184.551C121.197 184.793 121.527 185.139 121.751 185.552C121.975 185.965 122.084 186.43 122.067 186.9L120.879 206.534L113.863 203.167Z" fill="#E0A396"/>
<path d="M106.421 206.677L107.581 231.602L113.975 218.22L111.711 208.742C111.583 208.199 111.324 207.695 110.958 207.273C110.591 206.852 110.128 206.525 109.608 206.322C109.087 206.119 108.526 206.045 107.971 206.107C107.416 206.169 106.884 206.365 106.421 206.677Z" fill="#E0A396"/>
<path d="M155.564 236.807L144.248 231.601L137.967 203.168L117.823 208.062C117.823 208.062 120.03 242.012 123.312 247.982C126.594 253.952 147.897 262.665 147.897 262.665L155.564 236.807Z" fill="#E0A396"/>
<path d="M125.348 208.543L122.349 191.568C122.278 191.148 122.105 190.751 121.845 190.413C121.585 190.075 121.246 189.807 120.857 189.631C120.469 189.455 120.043 189.377 119.618 189.404C119.192 189.431 118.78 189.562 118.417 189.786C117.995 190.025 117.648 190.376 117.413 190.801C117.178 191.225 117.066 191.706 117.087 192.19L117.794 207.977L125.348 208.543Z" fill="#E0A396"/>
<path d="M129.451 205.18L126.452 188.205C126.381 187.784 126.208 187.388 125.948 187.05C125.688 186.712 125.349 186.443 124.96 186.267C124.572 186.091 124.146 186.013 123.721 186.04C123.295 186.067 122.883 186.199 122.52 186.422C122.117 186.665 121.787 187.01 121.563 187.423C121.339 187.836 121.23 188.301 121.247 188.771L122.831 207.471L129.451 205.18Z" fill="#E0A396"/>
<path d="M134.6 205.121L131.035 184.949C130.958 184.532 130.781 184.14 130.52 183.806C130.259 183.472 129.921 183.207 129.534 183.032C129.148 182.856 128.725 182.777 128.302 182.801C127.879 182.824 127.467 182.95 127.103 183.167C126.697 183.41 126.366 183.761 126.146 184.18C125.927 184.599 125.827 185.071 125.858 185.543L127.159 206.027L134.6 205.121Z" fill="#E0A396"/>
<path d="M137.996 203.167L134.997 186.334C134.926 185.913 134.753 185.517 134.492 185.179C134.232 184.841 133.893 184.572 133.505 184.396C133.116 184.22 132.691 184.142 132.265 184.169C131.84 184.196 131.427 184.328 131.064 184.551C130.658 184.789 130.324 185.133 130.099 185.547C129.875 185.961 129.768 186.429 129.791 186.9L130.979 206.534L137.996 203.167Z" fill="#E0A396"/>
<path d="M145.379 206.677L144.219 231.602L137.825 218.22L140.089 208.742C140.217 208.199 140.476 207.695 140.842 207.273C141.209 206.852 141.672 206.525 142.192 206.322C142.712 206.119 143.274 206.045 143.829 206.107C144.384 206.169 144.916 206.365 145.379 206.677Z" fill="#E0A396"/>
<path d="M2.53478 273.762L104.243 229.457L116.55 265.416C116.55 265.416 48.6502 315.153 27.6012 313.314C6.55216 311.475 -3.6328 296.876 2.53478 273.762Z" fill="#A08EFD"/>
<path d="M254.387 273.762L152.706 229.457L140.371 265.416C140.371 265.416 208.271 315.153 229.348 313.314C250.426 311.475 260.554 296.876 254.387 273.762Z" fill="#A08EFD"/>
<path d="M85.5428 60.8636C85.5428 60.8636 102.093 35.0615 124.104 35.0615C146.115 35.0615 166.542 58.8831 166.542 58.8831C166.542 58.8831 171.04 6.17574 130.47 7.56203C91.1446 8.86345 83.9019 34.0148 85.5428 60.8636Z" fill="#38332F"/>
<path d="M230.537 472.275C220.667 500.622 77.7965 512.326 32.438 481.218C24.6625 475.885 23.4787 465.687 25.7593 456.539C28.1604 446.907 31.5552 433.03 35.3204 416.857C38.1016 404.911 54.0532 402.152 54.0532 414.418C54.0532 429.384 45.1696 437.448 49.2153 453.234C53.261 469.021 57.7027 429.384 75.4982 426.131C93.2937 422.877 96.0946 446.756 102.573 459.289C109.052 471.822 115.022 471.822 123.339 452.018C131.657 432.214 149.453 423.302 159.949 443.106C170.445 462.91 183.403 467.38 187.024 441.918C190.645 416.455 203.999 421.434 211.298 426.414C225.604 436.173 221.185 412.808 224.471 429.811C228.792 452.168 231.602 469.25 230.537 472.275Z" fill="#8169FC"/>
<path d="M16.1436 267.844L61.6649 248.012" stroke="#533370" stroke-width="0.5" stroke-miterlimit="10"/>
<path d="M198.285 249.312L230.764 267.844" stroke="#533370" stroke-width="0.5" stroke-miterlimit="10"/>
<path d="M126.509 246.54L125.858 204.414" stroke="#C68175" stroke-width="0.5" stroke-miterlimit="10"/>
<path d="M110.213 217.313L112.193 210.777" stroke="#C68175" stroke-width="0.5" stroke-miterlimit="10"/>
<path d="M141.644 215.332L139.664 210.777" stroke="#C68175" stroke-width="0.5" stroke-miterlimit="10"/>
<path d="M126.452 188.344L126.169 199.717" stroke="#C68175" stroke-width="0.5" stroke-miterlimit="10"/>
<defs>
<linearGradient id="paint0_linear_2359_13080" x1="110.485" y1="63.4625" x2="107.827" y2="72.4842" gradientUnits="userSpaceOnUse">
<stop stop-color="#756945"/>
<stop offset="1" stop-color="#C7A16F"/>
</linearGradient>
<linearGradient id="paint1_linear_2359_13080" x1="142.816" y1="63.4625" x2="145.474" y2="72.4842" gradientUnits="userSpaceOnUse">
<stop stop-color="#756945"/>
<stop offset="1" stop-color="#C7A16F"/>
</linearGradient>
</defs>
</svg>
