<svg width="22" height="22" viewBox="0 0 22 22" fill="none" xmlns="http://www.w3.org/2000/svg">
<path opacity="0.2" d="M6.875 8.9375V17.875H2.75C2.56766 17.875 2.3928 17.8026 2.26386 17.6736C2.13493 17.5447 2.0625 17.3698 2.0625 17.1875V9.625C2.0625 9.44266 2.13493 9.2678 2.26386 9.13886C2.3928 9.00993 2.56766 8.9375 2.75 8.9375H6.875Z" fill="white"/>
<path d="M20.1094 6.88531C19.9158 6.66594 19.6777 6.49026 19.411 6.36994C19.1443 6.24963 18.8551 6.18744 18.5625 6.1875H13.75V4.8125C13.75 3.90082 13.3878 3.02648 12.7432 2.38182C12.0985 1.73716 11.2242 1.375 10.3125 1.375C10.1848 1.37491 10.0596 1.4104 9.95087 1.47749C9.84219 1.54458 9.75434 1.64062 9.69719 1.75484L6.45047 8.25H2.75C2.38533 8.25 2.03559 8.39487 1.77773 8.65273C1.51987 8.91059 1.375 9.26033 1.375 9.625V17.1875C1.375 17.5522 1.51987 17.9019 1.77773 18.1598C2.03559 18.4176 2.38533 18.5625 2.75 18.5625H17.5312C18.0337 18.5627 18.519 18.3794 18.8959 18.0471C19.2728 17.7148 19.5155 17.2564 19.5783 16.7578L20.6095 8.50781C20.6461 8.21736 20.6204 7.92246 20.5341 7.64271C20.4479 7.36296 20.3031 7.10477 20.1094 6.88531ZM2.75 9.625H6.1875V17.1875H2.75V9.625ZM19.2448 8.33594L18.2136 16.5859C18.1927 16.7521 18.1118 16.9049 17.9861 17.0157C17.8605 17.1265 17.6987 17.1876 17.5312 17.1875H7.5625V9.09992L10.7173 2.78953C11.1848 2.88311 11.6055 3.13582 11.9078 3.50465C12.21 3.87349 12.3751 4.33565 12.375 4.8125V6.875C12.375 7.05734 12.4474 7.2322 12.5764 7.36114C12.7053 7.49007 12.8802 7.5625 13.0625 7.5625H18.5625C18.6601 7.56247 18.7565 7.5832 18.8454 7.62331C18.9344 7.66343 19.0137 7.72201 19.0783 7.79517C19.1428 7.86833 19.1911 7.95439 19.2198 8.04763C19.2485 8.14086 19.257 8.23914 19.2448 8.33594Z" fill="white"/>
</svg>
