<svg width="20" height="18" viewBox="0 0 20 18" fill="none" xmlns="http://www.w3.org/2000/svg">
<path d="M19.6095 10.4922L18.5783 2.24219C18.5155 1.74365 18.2728 1.28519 17.8959 0.952891C17.519 0.620596 17.0337 0.437328 16.5312 0.4375H1.75C1.38533 0.4375 1.03559 0.582366 0.777728 0.840228C0.519866 1.09809 0.375 1.44783 0.375 1.8125V9.375C0.375 9.73967 0.519866 10.0894 0.777728 10.3473C1.03559 10.6051 1.38533 10.75 1.75 10.75H5.45047L8.69719 17.2452C8.75434 17.3594 8.84219 17.4554 8.95087 17.5225C9.05955 17.5896 9.18478 17.6251 9.3125 17.625C10.2242 17.625 11.0985 17.2628 11.7432 16.6182C12.3878 15.9735 12.75 15.0992 12.75 14.1875V12.8125H17.5625C17.8552 12.8126 18.1445 12.7504 18.4113 12.6301C18.6781 12.5097 18.9162 12.334 19.1098 12.1145C19.3035 11.895 19.4482 11.6368 19.5343 11.3571C19.6205 11.0774 19.6461 10.7826 19.6095 10.4922ZM5.1875 9.375H1.75V1.8125H5.1875V9.375ZM18.0781 11.2046C18.0141 11.2783 17.9348 11.3373 17.8458 11.3775C17.7568 11.4177 17.6602 11.4382 17.5625 11.4375H12.0625C11.8802 11.4375 11.7053 11.5099 11.5764 11.6389C11.4474 11.7678 11.375 11.9427 11.375 12.125V14.1875C11.3751 14.6644 11.21 15.1265 10.9078 15.4953C10.6055 15.8642 10.1848 16.1169 9.71727 16.2105L6.5625 9.90008V1.8125H16.5312C16.6987 1.81244 16.8605 1.87353 16.9861 1.9843C17.1118 2.09506 17.1927 2.24788 17.2136 2.41406L18.2448 10.6641C18.2577 10.7609 18.2495 10.8593 18.2207 10.9526C18.1919 11.0459 18.1433 11.1319 18.0781 11.2046Z" fill="white"/>
</svg>
