<svg width="16" height="18" viewBox="0 0 16 18" fill="none" xmlns="http://www.w3.org/2000/svg">
<path d="M14.5598 0.907227H1.32451C0.973484 0.907227 0.636839 1.04667 0.388629 1.29488C0.140419 1.54309 0.000976563 1.87973 0.000976562 2.23076V7.09224C0.000976562 14.5048 6.27285 16.9641 7.52855 17.3819C7.79674 17.4731 8.08756 17.4731 8.35576 17.3819C9.61311 16.9641 15.8833 14.5048 15.8833 7.09224V2.23076C15.8833 1.87973 15.7439 1.54309 15.4957 1.29488C15.2475 1.04667 14.9108 0.907227 14.5598 0.907227ZM11.7192 6.66954L7.08682 11.3019C7.02536 11.3634 6.95238 11.4122 6.87204 11.4455C6.7917 11.4788 6.70559 11.496 6.61862 11.496C6.53166 11.496 6.44554 11.4788 6.36521 11.4455C6.28487 11.4122 6.21188 11.3634 6.15042 11.3019L4.16513 9.3166C4.04096 9.19243 3.9712 9.02401 3.9712 8.8484C3.9712 8.67279 4.04096 8.50438 4.16513 8.3802C4.2893 8.25603 4.45772 8.18627 4.63333 8.18627C4.80894 8.18627 4.97735 8.25603 5.10153 8.3802L6.61862 9.8973L10.7828 5.73315C10.8443 5.67166 10.9173 5.62289 10.9976 5.58961C11.0779 5.55634 11.164 5.53921 11.251 5.53921C11.3379 5.53921 11.424 5.55634 11.5044 5.58961C11.5847 5.62289 11.6577 5.67166 11.7192 5.73315C11.7807 5.79463 11.8294 5.86762 11.8627 5.94796C11.896 6.02829 11.9131 6.11439 11.9131 6.20134C11.9131 6.2883 11.896 6.3744 11.8627 6.45473C11.8294 6.53507 11.7807 6.60806 11.7192 6.66954Z" fill="white"/>
</svg>
