<svg width="20" height="20" viewBox="0 0 20 20" fill="none" xmlns="http://www.w3.org/2000/svg">
<path d="M6.26987 15.2799C5.98987 14.9199 5.63987 14.1899 5.02987 13.2799C4.67987 12.7799 3.81987 11.8299 3.55987 11.3399C3.37244 11.0422 3.31806 10.6796 3.40987 10.3399C3.56683 9.69414 4.17943 9.26574 4.83987 9.33993C5.35067 9.44254 5.8201 9.6929 6.18987 10.0599C6.44805 10.3031 6.68554 10.5673 6.89987 10.8499C7.05987 11.0499 7.09987 11.1299 7.27987 11.3599C7.45987 11.5899 7.57987 11.8199 7.48987 11.4799C7.41987 10.9799 7.29987 10.1399 7.12987 9.38993C6.99987 8.81993 6.96987 8.72993 6.84987 8.29993C6.72987 7.86993 6.65987 7.50993 6.52987 7.01993C6.41104 6.5385 6.31758 6.05116 6.24987 5.55993C6.12383 4.93163 6.21553 4.27914 6.50987 3.70993C6.85927 3.3813 7.3718 3.29456 7.80987 3.48993C8.25047 3.81526 8.57897 4.26958 8.74987 4.78993C9.01194 5.43032 9.18683 6.10299 9.26987 6.78993C9.42987 7.78993 9.73987 9.24993 9.74987 9.54993C9.74987 9.17993 9.67987 8.39993 9.74987 8.04993C9.81923 7.68505 10.0728 7.38224 10.4199 7.24993C10.7177 7.15855 11.0327 7.13801 11.3399 7.18993C11.6499 7.25474 11.9245 7.43307 12.1099 7.68993C12.3416 8.27332 12.4701 8.89253 12.4899 9.51993C12.5167 8.97051 12.6107 8.42646 12.7699 7.89993C12.937 7.66448 13.181 7.49472 13.4599 7.41993C13.7905 7.35948 14.1293 7.35948 14.4599 7.41993C14.731 7.51056 14.9681 7.68144 15.1399 7.90993C15.3516 8.44027 15.4798 9.00027 15.5199 9.56993C15.5199 9.70993 15.5899 9.17993 15.8099 8.82993C15.9242 8.49053 16.2109 8.2379 16.562 8.1672C16.9131 8.09651 17.2752 8.21849 17.512 8.4872C17.7488 8.75591 17.8242 9.13053 17.7099 9.46993C17.7099 10.1199 17.7099 10.0899 17.7099 10.5299C17.7099 10.9699 17.7099 11.3599 17.7099 11.7299C17.6734 12.3151 17.5932 12.8967 17.4699 13.4699C17.2958 13.977 17.0536 14.4581 16.7499 14.8999C16.2643 15.4399 15.8631 16.0501 15.5599 16.7099C15.4846 17.0377 15.451 17.3737 15.4599 17.7099C15.4589 18.0206 15.4992 18.3299 15.5799 18.6299C15.171 18.6732 14.7587 18.6732 14.3499 18.6299C13.9599 18.5699 13.4799 17.7899 13.3499 17.5499C13.2856 17.4211 13.1539 17.3396 13.0099 17.3396C12.8658 17.3396 12.7342 17.4211 12.6699 17.5499C12.4499 17.9299 11.9599 18.6199 11.6199 18.6599C10.9499 18.7399 9.56987 18.6599 8.47987 18.6599C8.47987 18.6599 8.65987 17.6599 8.24987 17.2999C7.83987 16.9399 7.41987 16.5199 7.10987 16.2399L6.26987 15.2799Z" fill="white"/>
<path d="M14.75 15.8259V12.3741C14.75 12.1675 14.5821 12 14.375 12C14.1679 12 14 12.1675 14 12.3741V15.8259C14 16.0325 14.1679 16.2 14.375 16.2C14.5821 16.2 14.75 16.0325 14.75 15.8259Z" fill="#757373"/>
<path d="M12.77 15.8246L12.75 12.3711C12.7488 12.1649 12.5799 11.9988 12.3728 12C12.1657 12.0012 11.9988 12.1693 12 12.3754L12.02 15.8289C12.0212 16.035 12.1901 16.2012 12.3972 16.2C12.6043 16.1988 12.7712 16.0307 12.77 15.8246Z" fill="#757373"/>
<path d="M10 12.379L10.02 15.8254C10.0212 16.0335 10.1901 16.2012 10.3972 16.2C10.6043 16.1988 10.7712 16.0291 10.77 15.821L10.75 12.3746C10.7488 12.1665 10.5799 11.9988 10.3728 12C10.1657 12.0012 9.9988 12.1709 10 12.379Z" fill="#757373"/>
<path d="M1 5.37529C5.44944 0.293017 10.9472 0.289327 15.5 5.37619" stroke="white" stroke-linecap="round"/>
</svg>
