<svg width="13" height="16" viewBox="0 0 13 16" fill="none" xmlns="http://www.w3.org/2000/svg">
<path d="M12.3406 7.05043L2.21 0.853085C2.0392 0.748498 1.84358 0.691401 1.64334 0.687693C1.44309 0.683985 1.24549 0.733799 1.07094 0.831992C0.898046 0.928659 0.754022 1.06963 0.653678 1.24042C0.553333 1.4112 0.500289 1.60563 0.5 1.80371V14.197C0.501303 14.4941 0.620539 14.7786 0.831498 14.9878C1.04246 15.1971 1.32787 15.314 1.625 15.3129C1.83239 15.3128 2.03575 15.2556 2.21281 15.1476L12.3406 8.95027C12.5034 8.85105 12.638 8.71162 12.7313 8.54539C12.8247 8.37916 12.8737 8.19171 12.8737 8.00105C12.8737 7.8104 12.8247 7.62295 12.7313 7.45672C12.638 7.29049 12.5034 7.15106 12.3406 7.05184V7.05043ZM1.625 14.1836V1.81285L11.738 8.00035L1.625 14.1836Z" fill="#685F78"/>
</svg>
