<svg width="16" height="14" viewBox="0 0 16 14" fill="none" xmlns="http://www.w3.org/2000/svg">
<path d="M10.5622 5.40672L7.18719 3.15672C7.10246 3.10019 7.00396 3.06772 6.90222 3.06279C6.80048 3.05786 6.69931 3.08065 6.60951 3.12873C6.51971 3.17681 6.44465 3.24837 6.39234 3.33577C6.34003 3.42317 6.31243 3.52314 6.3125 3.625V8.125C6.31243 8.22686 6.34003 8.32683 6.39234 8.41423C6.44465 8.50163 6.51971 8.57319 6.60951 8.62127C6.69931 8.66935 6.80048 8.69214 6.90222 8.68721C7.00396 8.68228 7.10246 8.64981 7.18719 8.59328L10.5622 6.34328C10.6393 6.29193 10.7026 6.22232 10.7464 6.14062C10.7901 6.05893 10.813 5.96768 10.813 5.875C10.813 5.78232 10.7901 5.69107 10.7464 5.60938C10.7026 5.52768 10.6393 5.45807 10.5622 5.40672ZM7.4375 7.07383V4.67969L9.23609 5.875L7.4375 7.07383ZM14.1875 0.8125H1.8125C1.51413 0.8125 1.22798 0.931026 1.017 1.142C0.806026 1.35298 0.6875 1.63913 0.6875 1.9375V9.8125C0.6875 10.1109 0.806026 10.397 1.017 10.608C1.22798 10.819 1.51413 10.9375 1.8125 10.9375H14.1875C14.4859 10.9375 14.772 10.819 14.983 10.608C15.194 10.397 15.3125 10.1109 15.3125 9.8125V1.9375C15.3125 1.63913 15.194 1.35298 14.983 1.142C14.772 0.931026 14.4859 0.8125 14.1875 0.8125ZM14.1875 9.8125H1.8125V1.9375H14.1875V9.8125ZM15.3125 12.625C15.3125 12.7742 15.2532 12.9173 15.1477 13.0227C15.0423 13.1282 14.8992 13.1875 14.75 13.1875H1.25C1.10082 13.1875 0.957742 13.1282 0.852252 13.0227C0.746763 12.9173 0.6875 12.7742 0.6875 12.625C0.6875 12.4758 0.746763 12.3327 0.852252 12.2273C0.957742 12.1218 1.10082 12.0625 1.25 12.0625H14.75C14.8992 12.0625 15.0423 12.1218 15.1477 12.2273C15.2532 12.3327 15.3125 12.4758 15.3125 12.625Z" fill="#685F78"/>
</svg>
