<svg width="23" height="20" viewBox="0 0 23 20" fill="none" xmlns="http://www.w3.org/2000/svg">
<path d="M13.5791 0.325786C13.4529 0.264328 13.3121 0.23948 13.1726 0.254063C13.033 0.268647 12.9004 0.322078 12.7897 0.408286L6.24219 5.49985H2C1.60218 5.49985 1.22064 5.65788 0.93934 5.93919C0.658035 6.22049 0.5 6.60202 0.5 6.99985V12.9998C0.5 13.3977 0.658035 13.7792 0.93934 14.0605C1.22064 14.3418 1.60218 14.4998 2 14.4998H6.24219L12.7897 19.5914C12.9005 19.6775 13.0332 19.7309 13.1728 19.7453C13.3124 19.7597 13.4533 19.7347 13.5793 19.6731C13.7054 19.6115 13.8117 19.5157 13.8861 19.3967C13.9604 19.2777 13.9999 19.1402 14 18.9998V0.999848C14 0.859343 13.9606 0.721658 13.8861 0.602482C13.8117 0.483306 13.7053 0.387432 13.5791 0.325786ZM2 6.99985H5.75V12.9998H2V6.99985ZM12.5 17.4661L7.25 13.3833V6.61641L12.5 2.5336V17.4661ZM17.5625 7.5211C18.1657 8.20592 18.4986 9.08722 18.4986 9.99985C18.4986 10.9125 18.1657 11.7938 17.5625 12.4786C17.43 12.6242 17.2456 12.7119 17.049 12.7227C16.8524 12.7335 16.6595 12.6666 16.5118 12.5364C16.3642 12.4062 16.2736 12.2231 16.2597 12.0268C16.2458 11.8304 16.3097 11.6364 16.4375 11.4867C16.7992 11.0759 16.9988 10.5473 16.9988 9.99985C16.9988 9.45245 16.7992 8.92382 16.4375 8.51297C16.3097 8.36327 16.2458 8.16931 16.2597 7.97293C16.2736 7.77656 16.3642 7.59353 16.5118 7.46333C16.6595 7.33314 16.8524 7.26623 17.049 7.27703C17.2456 7.28784 17.43 7.3755 17.5625 7.5211ZM22.25 9.99985C22.2511 11.845 21.5711 13.6257 20.3403 15.0005C20.2067 15.145 20.0216 15.2313 19.825 15.2406C19.6284 15.2499 19.436 15.1815 19.2893 15.0503C19.1426 14.919 19.0535 14.7353 19.041 14.5388C19.0286 14.3424 19.0939 14.1489 19.2228 14.0002C20.2066 12.9001 20.7505 11.4761 20.7505 10.0003C20.7505 8.52452 20.2066 7.1005 19.2228 6.00047C19.1553 5.9274 19.103 5.84163 19.0689 5.74815C19.0349 5.65466 19.0197 5.55533 19.0245 5.45595C19.0292 5.35657 19.0536 5.25911 19.0963 5.16926C19.1391 5.07942 19.1993 4.99897 19.2734 4.93261C19.3475 4.86625 19.4341 4.81531 19.5281 4.78274C19.6222 4.75018 19.7217 4.73665 19.821 4.74293C19.9203 4.74922 20.0173 4.7752 20.1065 4.81936C20.1957 4.86352 20.2751 4.92498 20.3403 5.00016C21.5714 6.37436 22.2515 8.15487 22.25 9.99985Z" fill="black"/>
</svg>
