<svg xmlns="http://www.w3.org/2000/svg" viewBox="0 0 45.56 65.84"><defs><style>.cls-1{fill:#f9f9fa;}</style></defs><g id="Layer_2" data-name="Layer 2"><g id="Layer_1-2" data-name="Layer 1"><path class="cls-1" d="M16.07,65.84a1,1,0,0,1-.68-.28,1,1,0,0,1,0-1.36l3-3a1,1,0,1,1,1.36,1.35l-3,3A.94.94,0,0,1,16.07,65.84Z"/><path class="cls-1" d="M45.56,45a11.54,11.54,0,0,1-3.39,8.18l-3.43,3.44a3.3,3.3,0,0,1-4.67,0,1,1,0,0,1,1.36-1.36,1.38,1.38,0,0,0,2,0l3.44-3.43A9.62,9.62,0,0,0,43.64,45v-3.1a.28.28,0,0,0,0-.09L45,40.44a2.24,2.24,0,0,1,.54,1.47Z"/><path class="cls-1" d="M45,40.44l-.22.22-1.39,1.39-1.54,1.54-4.51-4.51,1.58-1.57,1.33-1.34,0,0a.34.34,0,0,1,.46,0Z"/><path class="cls-1" d="M18.67,0h0a5.77,5.77,0,0,1,5.81,5.57H12.86A5.83,5.83,0,0,1,18.67,0Z"/><path class="cls-1" d="M22.17,63.29h0a3.29,3.29,0,0,1-2.29,1h0a3.16,3.16,0,0,1-2.25-.93h0a3.2,3.2,0,0,1,0-4.51h0L36,40.44l4.51,4.5Z"/><path class="cls-1" d="M34.7,7.49H2.64A2.64,2.64,0,0,0,0,10.13V55.85a2.64,2.64,0,0,0,2.64,2.64H15.47a5.19,5.19,0,0,1,.8-1h0L37.35,36.38V10.13A2.65,2.65,0,0,0,34.7,7.49Zm-23,33.74L7.34,45.6a1,1,0,0,1-.68.28A1,1,0,0,1,6,45.6L3.79,43.42a1,1,0,0,1,0-1.36,1,1,0,0,1,1.36,0l1.51,1.51,3.7-3.7a1,1,0,0,1,1.35,1.36Zm0-10.12L7.34,35.49a1,1,0,0,1-.68.28A.94.94,0,0,1,6,35.49L3.79,33.3a1,1,0,1,1,1.36-1.36l1.51,1.51,3.7-3.69a1,1,0,0,1,1.35,1.35Zm0-10.11L7.34,25.37a1,1,0,0,1-.68.29A1,1,0,0,1,6,25.37L3.79,23.19a1,1,0,1,1,1.36-1.36l1.51,1.51,3.7-3.7A1,1,0,0,1,11.71,21ZM7.14,12.5a1,1,0,1,1,0-1.92H30.2a1,1,0,1,1,0,1.92ZM23.36,45.88H16.73a1,1,0,0,1,0-1.92h6.63a1,1,0,0,1,0,1.92Zm8.3-10.11H16.73a1,1,0,0,1,0-1.92H31.66a1,1,0,0,1,0,1.92Zm0-10.11H16.73a1,1,0,0,1,0-1.92H31.66a1,1,0,1,1,0,1.92Z"/></g></g></svg>