<svg xmlns="http://www.w3.org/2000/svg" viewBox="0 0 41.03 75.77"><defs><style>.cls-1{fill:#f7f7f7;}.cls-2{fill:#fff;}.cls-3{fill:#dbeaef;}.cls-4{fill:#f9f9fa;}</style></defs><g id="Layer_2" data-name="Layer 2"><g id="Layer_1-2" data-name="Layer 1"><path class="cls-1" d="M20.76,37.86h-.68a.08.08,0,0,0-.08.08.08.08,0,0,0,.08.09h.68a.08.08,0,0,0,.08-.08A.08.08,0,0,0,20.76,37.86Zm1.35,0-.68,0a.09.09,0,0,0-.08.08s0,.09.09.09h0l.68,0a.09.09,0,0,0,.08-.09A.08.08,0,0,0,22.11,37.81Zm-2.7,0-.67-.07a.1.1,0,0,0-.1.08.09.09,0,0,0,.08.09l.68.07h0a.09.09,0,0,0,.09-.08A.08.08,0,0,0,19.41,37.81Zm4.14-.09a.08.08,0,0,0-.1-.07l-.67.09a.08.08,0,0,0-.07.1.08.08,0,0,0,.08.07h0l.68-.09A.1.1,0,0,0,23.55,37.72Zm-5.48-.07-.26,0-.41-.07a.07.07,0,0,0-.09.06.08.08,0,0,0,.06.1l.41.08.26,0h0a.08.08,0,0,0,.08-.07A.08.08,0,0,0,18.07,37.65Zm6.81-.2a.09.09,0,0,0-.11-.06l-.66.14a.09.09,0,0,0-.06.1.08.08,0,0,0,.08.07h0l.66-.15A.08.08,0,0,0,24.88,37.45Zm-8.14-.06-.65-.17a.09.09,0,0,0-.1.06.07.07,0,0,0,.06.1c.21.07.44.12.66.18h0a.09.09,0,0,0,.08-.07A.09.09,0,0,0,16.74,37.39Zm9.44-.31a.09.09,0,0,0-.11-.06l-.64.2a.08.08,0,0,0-.06.1.08.08,0,0,0,.08.06h0l.66-.2A.07.07,0,0,0,26.18,37.08ZM15.44,37,15.27,37l-.47-.17a.08.08,0,0,0-.1.05.08.08,0,0,0,.05.11l.32.12.32.11h0a.08.08,0,0,0,.08-.06A.08.08,0,0,0,15.44,37Zm12-.43a.1.1,0,0,0-.11-.05l-.28.12-.35.13a.09.09,0,0,0-.05.11.09.09,0,0,0,.08.05h0l.47-.18.16-.07A.08.08,0,0,0,27.45,36.6Zm-13.28,0-.62-.27a.08.08,0,1,0-.07.15q.31.15.63.27h0a.08.08,0,0,0,.08,0A.08.08,0,0,0,14.17,36.56ZM28.68,36a.09.09,0,0,0-.12,0l-.6.29a.09.09,0,0,0-.05.12.1.1,0,0,0,.08.05h0l.61-.3A.08.08,0,0,0,28.68,36ZM13,36l-.6-.32a.1.1,0,0,0-.12,0,.09.09,0,0,0,0,.12l.6.32h0a.08.08,0,0,0,.07,0A.09.09,0,0,0,13,36Zm16.9-.63a.08.08,0,0,0-.11,0l-.58.34a.09.09,0,0,0,0,.12.12.12,0,0,0,.08,0h0l.59-.35A.07.07,0,0,0,29.85,35.36Zm-18.08,0L11.2,35a.09.09,0,0,0-.1.14c.19.12.38.25.58.36l0,0a.08.08,0,0,0,.07,0A.08.08,0,0,0,11.77,35.33ZM31,34.6a.08.08,0,0,0-.12,0L30.3,35a.09.09,0,0,0,0,.11.08.08,0,0,0,.07,0h0l.56-.39A.09.09,0,0,0,31,34.6Zm-20.34,0-.54-.41a.08.08,0,0,0-.11,0,.08.08,0,0,0,0,.12l.54.42h.05a.08.08,0,0,0,.07,0A.08.08,0,0,0,10.64,34.58ZM32,33.75a.09.09,0,0,0-.12,0l-.52.43a.08.08,0,0,0,0,.12.09.09,0,0,0,.07,0s0,0,.05,0c.18-.14.36-.28.53-.43A.09.09,0,0,0,32,33.75Zm-22.46,0c-.17-.14-.34-.3-.5-.45a.08.08,0,0,0-.12,0,.09.09,0,0,0,0,.12l.51.45.06,0a.07.07,0,0,0,.06,0A.08.08,0,0,0,9.58,33.74ZM33,32.83a.08.08,0,0,0-.12,0l-.49.47a.08.08,0,0,0,0,.11.07.07,0,0,0,.06,0l.06,0L33,33A.09.09,0,0,0,33,32.83Zm-24.44,0-.11-.11-.36-.37a.08.08,0,0,0-.12,0,.09.09,0,0,0,0,.12l.34.36.13.13a.07.07,0,0,0,.12,0A.09.09,0,0,0,8.59,32.82Zm25.36-1a.08.08,0,0,0-.12,0l-.45.5a.08.08,0,0,0,0,.12.07.07,0,0,0,.06,0l.06,0q.24-.26.45-.51A.08.08,0,0,0,34,31.83Zm-26.28,0c-.14-.17-.29-.34-.42-.52a.09.09,0,0,0-.12,0,.08.08,0,0,0,0,.12l.44.52a.07.07,0,0,0,.06,0s0,0,0,0A.08.08,0,0,0,7.67,31.83Zm27.11-1.07a.08.08,0,0,0-.12,0c-.13.18-.27.36-.41.53a.09.09,0,0,0,0,.12s0,0,0,0a.09.09,0,0,0,.07,0l.41-.54A.08.08,0,0,0,34.78,30.76Zm-27.94,0-.39-.55a.08.08,0,0,0-.12,0,.09.09,0,0,0,0,.12l.39.55a.08.08,0,0,0,.07,0l.05,0A.08.08,0,0,0,6.84,30.77Zm28.69-1.14a.07.07,0,0,0-.11,0c-.12.19-.24.39-.37.57a.08.08,0,0,0,0,.12h0a.08.08,0,0,0,.07,0c.13-.19.25-.39.37-.58A.08.08,0,0,0,35.53,29.63Zm-29.44,0c-.12-.19-.23-.38-.34-.58a.1.1,0,0,0-.12,0,.08.08,0,0,0,0,.12c.11.19.22.39.34.58a.09.09,0,0,0,.08,0h0A.09.09,0,0,0,6.09,29.65Zm30.1-1.21a.08.08,0,0,0-.11,0c-.06.11-.11.22-.17.32l-.15.28a.1.1,0,0,0,0,.12h0a.1.1,0,0,0,.08-.05l.19-.36c0-.08.09-.16.13-.24A.08.08,0,0,0,36.19,28.44Zm-30.76,0-.3-.61a.08.08,0,1,0-.15.07c.09.21.19.41.3.62a.07.07,0,0,0,.07,0h0A.08.08,0,0,0,5.43,28.48ZM36.76,27.2a.08.08,0,0,0-.11.05c0,.1-.09.21-.14.32a2,2,0,0,1-.1.21.36.36,0,0,1,0,.09.08.08,0,0,0,.05.11h0a.1.1,0,0,0,.08,0c0-.06,0-.11.07-.16l.09-.21c0-.09.08-.17.11-.26A.08.08,0,0,0,36.76,27.2Zm-31.9.06c-.08-.21-.17-.42-.24-.63a.09.09,0,0,0-.11-.05.08.08,0,0,0,0,.11c.08.21.16.42.25.63a.08.08,0,0,0,.07.05h0A.08.08,0,0,0,4.86,27.26Zm32.36-1.34a.1.1,0,0,0-.11.06c0,.14-.09.28-.14.42s0,.14-.08.22a.08.08,0,0,0,0,.1h0a.08.08,0,0,0,.08-.06l.1-.27.12-.37A.08.08,0,0,0,37.22,25.92ZM4.39,26c0-.15-.1-.31-.14-.47a1.54,1.54,0,0,1,0-.17c0-.05-.06-.08-.11-.06a.09.09,0,0,0-.06.1,1.72,1.72,0,0,0,.07.21c0,.15.09.3.13.44a.08.08,0,0,0,.08.06h0A.09.09,0,0,0,4.39,26Zm33.19-1.38a.09.09,0,0,0-.1.07c0,.21-.11.43-.17.65a.08.08,0,0,0,.06.1h0a.09.09,0,0,0,.08-.06c.06-.22.12-.44.17-.66A.08.08,0,0,0,37.58,24.61ZM4,24.69c-.06-.22-.1-.44-.15-.66a.08.08,0,0,0-.16,0c0,.22.09.44.14.66a.09.09,0,0,0,.08.07H4A.08.08,0,0,0,4,24.69Zm33.81-1.41a.09.09,0,0,0-.1.07c0,.22-.07.45-.12.67a.09.09,0,0,0,.07.1h0a.08.08,0,0,0,.08-.07l.12-.67A.09.09,0,0,0,37.84,23.28Zm-34.08.09-.09-.67a.09.09,0,0,0-.09-.08.1.1,0,0,0-.08.1c0,.22.06.45.1.67a.08.08,0,0,0,.08.08h0A.09.09,0,0,0,3.76,23.37ZM38,21.93a.08.08,0,0,0-.09.08c0,.22,0,.45-.07.67a.1.1,0,0,0,.08.1h0A.09.09,0,0,0,38,22.7c0-.22,0-.45.07-.68A.09.09,0,0,0,38,21.93ZM3.57,21.44v-.09a.11.11,0,0,0-.09-.08.08.08,0,0,0-.08.09v.12c0,.19,0,.37,0,.56a.08.08,0,0,0,.08.08h0A.11.11,0,0,0,3.61,22C3.59,21.83,3.58,21.64,3.57,21.44ZM38,20.54h0a.09.09,0,0,0-.09.09v0c0,.23,0,.45,0,.68,0,0,0,0,0,.05a.06.06,0,0,0,.06,0h0a.08.08,0,0,0,0-.07c0-.22,0-.45,0-.68v0A.09.09,0,0,0,38,20.54ZM3.48,19.92s-.08,0-.09.08v.06c0,.2,0,.4,0,.6v0a.09.09,0,0,0,.09.08.09.09,0,0,0,.08-.08v0c0-.19,0-.38,0-.57V20S3.53,19.92,3.48,19.92Zm34.58-.66a.08.08,0,1,0-.16,0c0,.22,0,.45,0,.67A.08.08,0,0,0,38,20h0a.09.09,0,0,0,.09-.08C38.1,19.72,38.08,19.49,38.06,19.26Zm-34.47-.7a.09.09,0,0,0-.09.08c0,.22,0,.45-.07.68a.11.11,0,0,0,.08.09h0a.09.09,0,0,0,.08-.08c0-.22,0-.45.07-.67A.1.1,0,0,0,3.59,18.56Zm34.41,0c0-.23-.06-.46-.1-.68a.07.07,0,0,0-.09-.07.08.08,0,0,0-.07.1l.09.67a.08.08,0,0,0,.08.07h0A.09.09,0,0,0,38,18.59ZM3.81,17.22a.08.08,0,0,0-.1.07L3.59,18v0a.1.1,0,0,0,.07.07h0A.1.1,0,0,0,3.76,18h0c0-.22.07-.45.12-.67A.1.1,0,0,0,3.81,17.22Zm34,0v-.08c0-.19-.09-.39-.13-.59h0a.1.1,0,0,0-.11-.06.09.09,0,0,0-.06.1h0c.05.2.09.4.13.59l0,.07a.08.08,0,0,0,.08.07h0A.08.08,0,0,0,37.78,17.24ZM4.13,15.9A.08.08,0,0,0,4,16c-.07.22-.12.44-.18.66a.1.1,0,0,0,.07.11h0A.08.08,0,0,0,4,16.66c.05-.21.11-.43.17-.65A.1.1,0,0,0,4.13,15.9Zm33.33,0c-.06-.21-.13-.43-.2-.65a.07.07,0,0,0-.1,0,.08.08,0,0,0-.06.1c.07.22.14.43.2.65a.08.08,0,0,0,.08.06h0A.08.08,0,0,0,37.46,15.91ZM4.57,14.62h0a.08.08,0,0,0-.1.05c-.08.22-.16.43-.23.65a.09.09,0,0,0,.06.11h0a.08.08,0,0,0,.08-.06l.21-.61v0A.08.08,0,0,0,4.57,14.62Zm32.47,0,0-.14c-.07-.17-.13-.33-.2-.49v0a0,0,0,0,0,0,0,.08.08,0,0,0-.08,0,.08.08,0,0,0,0,0,.08.08,0,0,0,0,.07.36.36,0,0,1,0,.09l.09.23.12.31a.09.09,0,0,0,.08.05h0A.09.09,0,0,0,37,14.62Zm-32-1.26a.08.08,0,0,0-.11,0c-.08.17-.16.35-.23.53h0l0,.1a.1.1,0,0,0,0,.11h0a.08.08,0,0,0,.08-.05c.06-.15.13-.3.2-.46s0-.1.07-.16A.08.08,0,0,0,5.08,13.36Zm31.44,0-.3-.61a.09.09,0,0,0-.12,0,.1.1,0,0,0,0,.12c.1.2.2.4.29.6a.1.1,0,0,0,.08.05h0A.08.08,0,0,0,36.52,13.36ZM5.7,12.15a.08.08,0,0,0-.11,0c-.11.2-.22.4-.32.61,0,0,0,0,0,0a.07.07,0,0,0,0,.07h0a.1.1,0,0,0,.08-.05l.2-.38.12-.21A.1.1,0,0,0,5.7,12.15Zm30.2,0,0-.07-.31-.52h0a.08.08,0,0,0-.12,0,.08.08,0,0,0,0,.1h0l.3.51a.43.43,0,0,0,0,.07.08.08,0,0,0,.07,0h0A.1.1,0,0,0,35.9,12.15ZM6.42,11a.08.08,0,0,0-.12,0l-.15.22c-.07.12-.14.24-.22.36a.08.08,0,0,0,0,.11H6s0,0,0,0l.36-.57A.07.07,0,0,0,6.42,11Zm28.76,0-.28-.41-.11-.15a.09.09,0,0,0-.14.1l0,.05.35.51a.09.09,0,0,0,.07,0h0A.08.08,0,0,0,35.18,11ZM7.22,9.9a.08.08,0,0,0-.12,0c-.14.17-.27.36-.41.54a.08.08,0,0,0,0,.12h0a.09.09,0,0,0,.07,0L7.24,10A.08.08,0,0,0,7.22,9.9Zm27.16,0c-.14-.18-.29-.35-.43-.52a.09.09,0,1,0-.13.11c.14.17.29.34.43.52a.07.07,0,0,0,.06,0l.06,0A.09.09,0,0,0,34.38,9.89Zm-26.27-1a.08.08,0,0,0-.12,0c-.15.17-.31.34-.45.51a.08.08,0,0,0,0,.12l0,0a.11.11,0,0,0,.07,0L8.11,9S8.14,8.91,8.11,8.87Zm25.38,0-.1-.12c-.12-.13-.25-.25-.37-.37a.08.08,0,0,0-.12,0,.09.09,0,0,0,0,.12c.12.11.23.23.35.35l.12.13a.07.07,0,0,0,.06,0l.06,0A.09.09,0,0,0,33.49,8.86ZM9.07,7.92a.08.08,0,0,0-.12,0l-.49.48a.09.09,0,0,0,0,.12l.06,0,.06,0c.16-.16.32-.32.49-.47A.09.09,0,0,0,9.07,7.92Zm23.46,0-.15-.13L32,7.44a.09.09,0,1,0-.11.13l.36.32.14.13.06,0a.07.07,0,0,0,.06,0A.09.09,0,0,0,32.53,7.89ZM10.11,7A.08.08,0,0,0,10,7c-.18.14-.36.28-.53.43a.09.09,0,0,0,.06.15l.05,0,.52-.43A.08.08,0,0,0,10.11,7ZM31.49,7,31,6.6a.08.08,0,0,0-.12,0,.07.07,0,0,0,0,.11l.53.41.06,0a.07.07,0,0,0,.06,0A.08.08,0,0,0,31.49,7ZM11.21,6.25l-.05,0h0a.08.08,0,0,0-.07,0l0,0h0l-.47.33h0l-.05,0a.07.07,0,0,0,0,.11.09.09,0,0,0,.07,0l.05,0,.3-.21h0l.25-.17A.1.1,0,0,0,11.21,6.25Zm19.18,0-.23-.15-.27-.17-.08,0a.09.09,0,0,0-.12,0,.08.08,0,0,0,0,.11l.17.11.27.17.13.09h.05a.08.08,0,0,0,.07,0A.09.09,0,0,0,30.39,6.21Zm-18-.67a.08.08,0,0,0-.11,0l-.59.35s0,0,0,0h0a.09.09,0,0,0,0,.07h0a.09.09,0,0,0,.08,0h0l.58-.34A.08.08,0,0,0,12.36,5.54Zm16.86,0-.6-.32a.1.1,0,0,0-.12,0,.08.08,0,0,0,0,.11l.6.32h0a.07.07,0,0,0,.07,0A.09.09,0,0,0,29.22,5.49ZM13.57,4.93a.08.08,0,0,0-.11,0l-.61.3a.08.08,0,0,0,0,.11.1.1,0,0,0,.08,0h0l.6-.29A.09.09,0,0,0,13.57,4.93ZM28,4.87l-.62-.27a.08.08,0,0,0-.11.05.08.08,0,0,0,0,.11c.21.08.42.17.62.27h0A.08.08,0,0,0,28,5,.08.08,0,0,0,28,4.87ZM14.82,4.42a.07.07,0,0,0-.1,0l-.64.25a.08.08,0,0,0,0,.11.08.08,0,0,0,.08,0h0l.62-.24A.08.08,0,0,0,14.82,4.42Zm11.92-.07-.21-.07-.44-.15a.07.07,0,0,0-.1,0,0,0,0,0,0,0,0,.09.09,0,0,0,.06.08l.06,0,.31.1.27.1h0a.11.11,0,0,0,.07-.06s0,0,0,0S26.77,4.37,26.74,4.35ZM16.12,4A.09.09,0,0,0,16,4l-.65.2a.07.07,0,0,0,0,.1.08.08,0,0,0,.08.06h0l.65-.2A.09.09,0,0,0,16.12,4Zm9.32-.07h0l-.35-.09-.3-.08a.08.08,0,0,0-.1.06.09.09,0,0,0,.06.11l.34.08.32.09h0A.11.11,0,0,0,25.5,4,.09.09,0,0,0,25.44,3.93Zm-8-.24a.09.09,0,0,0-.1-.06l-.67.14a.1.1,0,0,0-.06.11.08.08,0,0,0,.08.06h0l.66-.15A.08.08,0,0,0,17.44,3.69Zm6.67-.07c-.22-.05-.44-.09-.67-.12a.07.07,0,0,0-.09.07.08.08,0,0,0,.07.1l.66.11h0a.08.08,0,0,0,.08-.07A.08.08,0,0,0,24.11,3.62Zm-5.33-.13a.1.1,0,0,0-.1-.08l-.67.1a.07.07,0,0,0-.07.09s0,.08.08.08h0l.66-.09A.09.09,0,0,0,18.78,3.49Zm4-.08-.68-.07a.08.08,0,0,0-.09.08.08.08,0,0,0,.08.09l.67.07h0a.08.08,0,0,0,.08-.08A.08.08,0,0,0,22.77,3.41ZM20,3.31l-.68,0a.07.07,0,0,0-.07.09.09.09,0,0,0,.08.08h0c.22,0,.45,0,.67,0a.09.09,0,0,0,.08-.09A.08.08,0,0,0,20,3.31Zm1.37,0h-.68a.09.09,0,0,0-.09.09.09.09,0,0,0,.09.08h.67a.08.08,0,0,0,.09-.08A.11.11,0,0,0,21.41,3.3Z"/><path class="cls-2" d="M6.9,16.27a.56.56,0,0,0-.79-.33q-.74.24-1.44.54a10.81,10.81,0,0,0-1.76.9,2.52,2.52,0,0,0-.35.3c-.07.06,0,.12,0,.16l.13,0a7.68,7.68,0,0,0,.82.11h.22c.42,0,.84,0,1.26,0s1.08-.09,1.62-.15a.57.57,0,0,0,.48-.48A1.82,1.82,0,0,0,6.9,16.27Zm-.38,0,0,0a2.06,2.06,0,0,0-.89.19c-.42.16-.83.34-1.25.51H4.23s0,0,0,0l.06-.08.39-.17c.49-.17,1-.35,1.46-.51a.77.77,0,0,1,.4,0S6.53,16.26,6.52,16.26Z"/><path class="cls-2" d="M8.07,16.54c0-.08,0-.09-.11-.07a.25.25,0,0,1-.29-.07s-.07,0-.11,0l-.44.2L7,16.24,7.44,16a2.08,2.08,0,0,1,0-.3.15.15,0,0,1,.17-.16c0-.18.08-.3.28-.29,0,0,0,0,.06,0a.43.43,0,0,1,.1-.09,1,1,0,0,1,.65.09.33.33,0,0,0,.13,0c.22,0,.27.15.16.34.2.16.19.41-.2.5,0,.07.06.07.22,0a.77.77,0,0,1,.2.07,1.33,1.33,0,0,1,.19.14c.05,0,.08.11.12.14.23.13.25.27,0,.43a.27.27,0,0,1,0,.33c-.07.11-.16.13-.44.11-.11.27-.24.3-.4.1-.08.13-.15.27-.34.23a.23.23,0,0,1-.18-.25c-.17,0-.34-.05-.37-.28H7.2l0-.42.41-.05c.15,0,.28-.12.43-.11h.08a.17.17,0,0,0,.2.13c.18,0,.19-.16.2-.26a.75.75,0,0,0,.23,0s.07-.13.06-.14a.18.18,0,0,1-.29.06C8.41,16.61,8.3,16.67,8.07,16.54Z"/><path class="cls-2" d="M6.08,10.09,6,9.94a.58.58,0,0,0,0,.16.46.46,0,0,1-.3.36H5.56a.34.34,0,0,1,0-.1.3.3,0,0,0,0-.29,2.39,2.39,0,0,0-.13-.21l-.18.1a.32.32,0,0,0-.17.36s0,.07,0,.1a.24.24,0,0,1-.1-.05.58.58,0,0,1-.14-.63.59.59,0,0,0-.31.35A1.55,1.55,0,0,1,3.8,11a2.07,2.07,0,0,0-.24.17A1.11,1.11,0,0,0,3.84,13a1.48,1.48,0,0,0,1.42-.17,1.12,1.12,0,0,0,.2-.18,1.29,1.29,0,0,0,.16-.17,2.53,2.53,0,0,0,.53-1.24,1.36,1.36,0,0,0,0-.29A2.26,2.26,0,0,0,6.08,10.09ZM4.33,12.87l-.08,0a.95.95,0,0,1-.42-1.76h0l.1,0s0,0,0,0a.19.19,0,0,1,0,.09,1.2,1.2,0,0,0-.39.45A.85.85,0,0,0,4,12.72l.27.08s0,0,.06,0A0,0,0,0,1,4.33,12.87Z"/><path class="cls-2" d="M5.64,9.32a.46.46,0,0,1,.44.27.37.37,0,0,0,.36.22.45.45,0,0,1-.51,0c0,.26,0,.48-.29.57a1.79,1.79,0,0,0,0-.34,1.87,1.87,0,0,0-.17-.31l-.24.16a.34.34,0,0,0-.18.34v.06c-.2-.12-.23-.38-.11-.72l-.4.29a.46.46,0,0,1,.21-.46,1.21,1.21,0,0,1-.14-.32c.16.19.34.14.53.07a.25.25,0,0,1,.33.12A3.47,3.47,0,0,0,5.52,9c0-.13,0-.27,0-.4a.35.35,0,0,1,0-.06.89.89,0,0,1,.23,0c.06,0,.09,0,.09.11A1.23,1.23,0,0,1,5.64,9.32Z"/><path class="cls-2" d="M1.16,16a.41.41,0,0,0,.24-.42l.64.33a1.1,1.1,0,0,0-.49-.46l.07-.19.23,0a1.64,1.64,0,0,0-.14-.22A.58.58,0,0,0,2,14.62a.41.41,0,0,0,.34,0h.06a.42.42,0,0,0,.36.08l0,.66A1.54,1.54,0,0,0,3,14.66a.38.38,0,0,0,.47.14,2.1,2.1,0,0,0-.15.3,2,2,0,0,0-.13,1.12.09.09,0,0,0,0,.06h0s.05,0,.06-.05.05-.14.07-.2l.14.07c0,.17-.09.34-.14.52s0,.07,0,.1a.4.4,0,0,1-.25.39.63.63,0,0,1-.4.08.1.1,0,0,1-.07,0,2,2,0,0,0-.6-.67A3.93,3.93,0,0,0,1.22,16Z"/><path class="cls-2" d="M2.79,13.73c0-.14.07-.19.2-.2H3a.52.52,0,0,0,.36-.09.27.27,0,0,1,.38.15l0,.09a.38.38,0,0,1,.35.09c.1.09.1.19,0,.32s.1.06.13.11,0,.08-.06.14l0,0a.13.13,0,0,1-.1.21l-.2,0a.12.12,0,0,0-.13,0,.5.5,0,0,1-.58.13A1.26,1.26,0,0,1,3,14.52c-.13.07-.28.15-.42,0a.24.24,0,0,1,0-.32c-.16-.11-.15-.17,0-.27,0,0,0,0,0,0S2.67,13.74,2.79,13.73Z"/><path class="cls-2" d="M.34,16.21c-.14,0-.21-.08-.13-.19-.25-.09-.28-.34-.07-.53a.27.27,0,0,1,0-.34C.2,15,.32,15,.45,15c.06-.26.17-.32.35-.2,0,0,.09-.08.14-.09a.9.9,0,0,1,.16,0s.12-.11.21,0,0,.13,0,.19a.4.4,0,0,1,.16.08.24.24,0,0,1,.07.15q0,.21-.27.3c.1.27,0,.44-.39.55a.41.41,0,0,1-.06.16s-.09,0-.14,0c0,.18-.1.24-.23.22S.35,16.35.34,16.21Z"/><path class="cls-2" d="M2,14.53a.71.71,0,0,0,0-.2.25.25,0,0,0-.27-.27c-.06,0-.08,0-.1-.08a.32.32,0,0,0-.33-.23l-.21.09s0,0-.06,0a.29.29,0,0,0-.33.06L.7,14c-.09-.23.07-.4.44-.46a2,2,0,0,1,.09-.26.34.34,0,0,1,.34-.18.32.32,0,0,1,.27.23v0a1.47,1.47,0,0,1,.28-.18c.13,0,.2.07.27.15a.82.82,0,0,1,.17-.11c.08,0,.12,0,.15.1.2,0,.28,0,.29.16H3a.25.25,0,0,0-.22.17.09.09,0,0,1,0,0c-.1,0-.15.07-.14.14A1.38,1.38,0,0,0,2.4,14a.19.19,0,0,0,0,.15.18.18,0,0,1,0,.16.14.14,0,0,0,0,.09.11.11,0,0,1-.07.14A.32.32,0,0,1,2,14.53Z"/><path class="cls-2" d="M.8,14.76c-.09-.08-.13-.08-.31,0-.08-.09,0-.16.11-.3-.08-.19-.06-.26.12-.37A.12.12,0,0,0,.77,14,.23.23,0,0,1,1.16,14a.3.3,0,0,1,.32-.14c.14,0,.18.15.23.27a.24.24,0,0,1,.26.09.23.23,0,0,1,0,.33.19.19,0,0,0,0,.1c0,.24-.15.33-.37.33h0l-.12-.08v0a.17.17,0,0,0-.27-.13.09.09,0,0,1-.11,0C.94,14.65.88,14.71.8,14.76Z"/><path class="cls-2" d="M3.86,15.64c.08,0,.15,0,.16.12a.64.64,0,0,1-.07.16.13.13,0,0,1-.05.15H3.8c-.07,0-.13,0-.2,0h0c-.11,0-.34-.17-.34-.28a.19.19,0,0,1,0-.07s0-.05,0-.07a.14.14,0,0,1,.18-.13.11.11,0,0,0,.11,0C3.7,15.41,3.84,15.46,3.86,15.64Z"/><path class="cls-2" d="M6.91,14.63c0-.14,0-.28-.07-.42a.89.89,0,0,1,.06-.78l-.17.1.11-.36a3.45,3.45,0,0,0-.28.26c0-.1,0-.17.06-.26l-.18.11,0-.2a2.92,2.92,0,0,1-.52.28c-.24.09-.5.12-.74.2l-.16.07a1,1,0,0,0-.31.3h0a1,1,0,0,0-.17.69.51.51,0,0,0,0,.13,1,1,0,0,0,.09.21,1.62,1.62,0,0,0,.79.67A1,1,0,0,0,6.91,14.63ZM5,15a.82.82,0,0,1,0-.84,1,1,0,0,1,.86-.56,1.09,1.09,0,0,0-.76.5A1,1,0,0,0,5,15Zm1.09-1.39a2.19,2.19,0,0,0-.64.61,1.75,1.75,0,0,0-.28.86C5,14.72,5.55,13.78,6.05,13.65Zm-.74,1.62a3.34,3.34,0,0,1,.91-1.5c-.19.26-.37.49-.52.73S5.44,15,5.31,15.27Zm.24.22a5.45,5.45,0,0,0,.57-.72,5.42,5.42,0,0,0,.3-.82A2,2,0,0,1,5.55,15.49Zm1-.44a.9.9,0,0,1-.64.47c.71-.27.77-.84.7-1.47A1.43,1.43,0,0,1,6.53,15.05Z"/><path class="cls-2" d="M7.27,10.7a2.4,2.4,0,0,1,0,1.5,3.34,3.34,0,0,1,1.51-1.32A5.62,5.62,0,0,0,7.29,12.6a2.1,2.1,0,0,1,1.25-.68L8.39,12l-.16.09a4.53,4.53,0,0,0-1.18,1.13.59.59,0,0,1-.23.16L7,13l-.26.17v-.13l-.21.07a3,3,0,0,1,.09-.35,2.62,2.62,0,0,0,.12-1.21,1.84,1.84,0,0,1,.14,1A4.37,4.37,0,0,0,7.27,10.7Z"/><path class="cls-2" d="M5.08,15.56H5c0-.05,0-.19,0-.18s.33.21.46.3-.08,0-.11,0l0,.11-.08-.14-.16,0Z"/><circle class="cls-2" cx="13.84" cy="1.43" r="1.43"/><path class="cls-2" d="M16.85,3.82a7.17,7.17,0,0,0-1.4.22,7.08,7.08,0,0,0-1.61.63A6.37,6.37,0,0,0,12.22,4a7.63,7.63,0,0,0-1.39-.2,3.08,3.08,0,0,1,2.05-1,1.69,1.69,0,0,0,1.92,0A3.13,3.13,0,0,1,16.85,3.82Z"/><path class="cls-2" d="M16.16,6.51a.49.49,0,0,0,.22.4,1,1,0,0,0,.39.16,4.45,4.45,0,0,0,.63.07v.33a12,12,0,0,0-3.56.9,9.41,9.41,0,0,0-3.56-.9V7.14a4.45,4.45,0,0,0,.63-.07,1,1,0,0,0,.39-.16.46.46,0,0,0,.22-.4.87.87,0,0,0-.54-.7,2.09,2.09,0,0,0-.7-.25V4.07a6.61,6.61,0,0,1,3.56.9,6.77,6.77,0,0,1,3.56-.9V5.56a2.09,2.09,0,0,0-.7.25A.9.9,0,0,0,16.16,6.51Z"/><path class="cls-2" d="M9.86,5.78c.78,0,1.41.42,1.41.73s-.63.38-1.41.38Z"/><path class="cls-2" d="M17.82,5.78c-.78,0-1.4.42-1.4.73s.62.38,1.4.38Z"/><path class="cls-2" d="M29.56.85h-.1a.5.5,0,0,1,0,.12v.16h.09a.32.32,0,0,1,.32.32V6.51a.32.32,0,0,1-.32.33H25.75a.32.32,0,0,1-.32-.33V1.45a.32.32,0,0,1,.32-.32h.08V1a.49.49,0,0,1,0-.12h-.16a.6.6,0,0,0-.6.6v5a.6.6,0,0,0,.6.6h3.88a.6.6,0,0,0,.6-.6v-5A.6.6,0,0,0,29.56.85Z"/><rect class="cls-2" x="27.47" y="2.48" width="2.12" height="0.3" rx="0.15"/><rect class="cls-2" x="27.47" y="4.18" width="2.12" height="0.3" rx="0.15"/><path class="cls-2" d="M26.47,3.14a.19.19,0,0,1-.26,0l-.47-.4a.16.16,0,0,1,0-.22.15.15,0,0,1,.21,0l.35.3s.05,0,.06,0L27.07,2a.15.15,0,1,1,.22.2Z"/><path class="cls-2" d="M26.47,4.79a.19.19,0,0,1-.26,0l-.47-.4a.15.15,0,0,1,.2-.23l.35.31s.05,0,.06,0l.72-.78a.15.15,0,0,1,.22.2Z"/><path class="cls-2" d="M29,.83H28.3a.65.65,0,0,0-1.3,0h-.72a.14.14,0,0,0-.14.14v.58a.13.13,0,0,0,.14.13H29a.13.13,0,0,0,.14-.13V1A.14.14,0,0,0,29,.83Zm-1.37.35A.35.35,0,1,1,28,.83.35.35,0,0,1,27.65,1.18Z"/><path class="cls-2" d="M4.43,26.14l-.4.2-.24.11a.19.19,0,0,0-.06.07L3.2,27.6a.25.25,0,0,1-.23.15.25.25,0,0,1-.23-.12.28.28,0,0,1,0-.28c.21-.41.42-.83.62-1.25a.53.53,0,0,1,.27-.28c.29-.14.58-.27.85-.43a.82.82,0,0,1,.63-.1l.28.05a.53.53,0,0,1,.2.07.24.24,0,0,1,.11.26l-.3,2.11a.57.57,0,0,0,0,.25c.33.38.65.76,1,1.15a.69.69,0,0,1,.1.19L7,31.15a.27.27,0,0,1-.21.37l-.11,0a.27.27,0,0,1-.36-.21l-.39-1.47a.46.46,0,0,0-.09-.17L5.2,29l-.91-1.08a.31.31,0,0,1-.07-.26c.07-.45.13-.91.2-1.37A.41.41,0,0,1,4.43,26.14Z"/><path class="cls-2" d="M4.2,28c.12.13.23.26.34.4s.1.13.16.19,0,.05,0,.09c-.15.27-.3.55-.47.82a.34.34,0,0,1-.18.15c-.63.34-1.27.67-1.91,1a.28.28,0,0,1-.4-.12l0-.08a.29.29,0,0,1,.14-.43l.9-.47.75-.39a.32.32,0,0,0,.1-.1l.56-1A.21.21,0,0,1,4.2,28Z"/><path class="cls-2" d="M6.06,24.39a.72.72,0,0,1-.7.71.71.71,0,0,1,0-1.41A.71.71,0,0,1,6.06,24.39Z"/><path class="cls-2" d="M5.87,25.72l.56.64a.1.1,0,0,0,.14,0l1-.37a.24.24,0,0,1,.26.05.25.25,0,0,1,.07.25.23.23,0,0,1-.14.16L6.39,27a.22.22,0,0,1-.25-.06c-.12-.11-.23-.24-.34-.36a.11.11,0,0,1,0-.06C5.8,26.25,5.84,26,5.87,25.72Z"/><polygon class="cls-3" points="33.72 27.78 33.72 25.32 33.08 25.32 33.08 27.78 33.08 28.79 33.08 29.93 33.72 29.93 33.72 28.79 40.39 28.79 40.39 29.93 41.03 29.93 41.03 28.79 41.03 27.78 33.72 27.78"/><path class="cls-3" d="M36,26.4h3.82A1.17,1.17,0,0,1,41,27.57v0a0,0,0,0,1,0,0H36a0,0,0,0,1,0,0V26.4A0,0,0,0,1,36,26.4Z"/><path class="cls-3" d="M35.8,26.4h0a0,0,0,0,1,0,0v1.17a0,0,0,0,1,0,0h-.55a0,0,0,0,1,0,0v-.62A.55.55,0,0,1,35.8,26.4Z"/><circle class="cls-3" cx="34.46" cy="26.96" r="0.56"/><path class="cls-2" d="M40.33,11.57a1.24,1.24,0,0,0-.26-.57c.07-.09.08-.15,0-.19s-.1-.05-.2,0l0,0a1.22,1.22,0,0,0-1.5,0,.22.22,0,0,0,0,.36l.62.61s0,0-.05.05,0,0,0,.05a3.15,3.15,0,0,0-1.78-.67c0-.05,0-.07,0-.08a.43.43,0,0,0,.19-.62.51.51,0,0,0-.28-.2h-.14l0,0a.42.42,0,0,0-.33.38.43.43,0,0,0,.27.42s0,0,.07.08a3.15,3.15,0,0,0-1.32.35l-.15.08a3,3,0,0,0-.36.26L35,11.81l.1-.09.53-.53a.22.22,0,0,0,0-.34,1.29,1.29,0,0,0-.67-.27h-.21l-.36.09-.34.18c-.07-.06-.13-.06-.18,0s0,.1,0,.19l0,0a1.23,1.23,0,0,0,0,1.5.21.21,0,0,0,.35,0l.39-.38.22-.23.09.06-.06.07a3,3,0,0,0,.12,4.39c.06.05.07.09,0,.15-.11.23-.21.47-.31.7s0,.18.12.18a1.21,1.21,0,0,1,.19,0,.26.26,0,0,0,.31-.17c.08-.15.17-.29.26-.43a3,3,0,0,0,2.06.27l.17,0a3,3,0,0,0,.6-.23c.11.18.22.35.32.53a.13.13,0,0,0,.14.07h.3c.12,0,.17-.07.12-.18s-.2-.47-.31-.7c0-.07,0-.1,0-.15a3,3,0,0,0,1-2.59,2.92,2.92,0,0,0-.87-1.81l-.08,0,.1-.11.24.25.39.39a.21.21,0,0,0,.32,0A1.2,1.2,0,0,0,40.33,11.57Zm-.95,2.67a2.42,2.42,0,0,1-1.74,2.33l-.17,0a2.24,2.24,0,0,1-.52.06,2.43,2.43,0,0,1-1.24-4.51l.15-.08a2.26,2.26,0,0,1,1.1-.26A2.43,2.43,0,0,1,39.38,14.24Z"/><path class="cls-2" d="M37,12a2.21,2.21,0,1,0,2.2,2.19A2.22,2.22,0,0,0,37,12Zm1.24,3.42h-.08l0-.05-.93-.92a.08.08,0,0,0-.11,0l0,0a.22.22,0,0,1-.21-.09l0,0a.08.08,0,0,0-.07,0h-.9a.09.09,0,0,1-.09-.1.11.11,0,0,1,.08-.1h.91l.07,0,0-.06L36.64,14l0,0s0,0,0-.08h.08a.3.3,0,0,1,.08.08l0,0,0,0s0,0,.06,0,0,0,0-.06V12.81c0-.06,0-.11.08-.11s.08.05.08.11V14a.07.07,0,0,0,.05.08.23.23,0,0,1,.1.26.09.09,0,0,0,0,.11l.94.94,0,0Z"/><path class="cls-4" d="M27.33,41.29a5.54,5.54,0,0,0,.8.1,23.63,23.63,0,0,0,1.18-3.55A14.82,14.82,0,0,0,29.86,33c-.07-1.22-.95-6-1.35-8.06a3.32,3.32,0,0,0-2.85-2.72,3.17,3.17,0,0,1-.43-.13l.17.24.13.18c.41.56.53.78.39,2.23a29.38,29.38,0,0,1-.63,3.67c-.05.25-.1.47-.14.69v0a.84.84,0,0,1,.62.85.93.93,0,0,1-.94.87.86.86,0,0,1-.85-.9A.94.94,0,0,1,24.8,29h0c0-.23.09-.47.15-.73a31.72,31.72,0,0,0,.63-3.63c.12-1.38,0-1.53-.34-2l-.14-.18c-.11-.16-.2-.3-.29-.42a5.4,5.4,0,0,1-.51-.78s0-.1,0-.17a1.08,1.08,0,0,0-1.16-.9c-.76,0-.72.05-.76-.67.09,0,.2-.3.3-.81a2.31,2.31,0,0,0,.77-.85,1.74,1.74,0,0,0,.24-.47,3.37,3.37,0,0,0,.14-.46,1.23,1.23,0,0,0,0-.19v0a3.42,3.42,0,0,1,0,.45c0,.15-.05.31-.08.47a6.48,6.48,0,0,0-.13,1,2.48,2.48,0,0,0,.06.54,2.28,2.28,0,0,0,.21.51,3.16,3.16,0,0,0,.71.79,5.43,5.43,0,0,0,1.84,1,5.29,5.29,0,0,1-1.64-1.18,2.92,2.92,0,0,1-.53-.78h0a2,2,0,0,0,.34.42,2.19,2.19,0,0,0,.39.29,2.66,2.66,0,0,0,.47.3,3,3,0,0,0,.92.25,7.28,7.28,0,0,0,.93.07,8.43,8.43,0,0,1-.9-.19,2.63,2.63,0,0,1-.8-.35,1.34,1.34,0,0,1-.53-.58,1.39,1.39,0,0,1-.12-.36l0-.08,0,0a2.14,2.14,0,0,0,.48.47,1.89,1.89,0,0,0,1.28.36,1.73,1.73,0,0,1-1.19-.46,2,2,0,0,1-.62-1,1.57,1.57,0,0,1,0-.23,1.89,1.89,0,0,0,.31.25,2.58,2.58,0,0,0,.54.3,4.75,4.75,0,0,0,.57.18,8.86,8.86,0,0,0,1.15.17A8.18,8.18,0,0,1,26.37,19a2.49,2.49,0,0,1-.83-.61A2,2,0,0,1,25,17.07a2.34,2.34,0,0,0,.33.49,2.4,2.4,0,0,0,.53.48,2.65,2.65,0,0,0,.65.33A2.58,2.58,0,0,1,26,18a2.24,2.24,0,0,1-.4-.53,1.78,1.78,0,0,1-.22-.58,2.14,2.14,0,0,1-.05-.62c0-.21,0-.43,0-.65s0-.23,0-.35,0-.25,0-.37a2.4,2.4,0,0,0-.21-.76,1.09,1.09,0,0,0-.08-.15A1.21,1.21,0,0,0,25,13.8a2.51,2.51,0,0,0-.35-.64,3.33,3.33,0,0,0-.25-.28,2.43,2.43,0,0,0-.29-.26,1.74,1.74,0,0,0-.4-.23,1.72,1.72,0,0,0-.48-.1,2.16,2.16,0,0,0-.44,0h-.22a.86.86,0,0,0-.28.11A3,3,0,0,0,20,11.91c-3.72.63-2.92,3.53-2.82,3.86a8.64,8.64,0,0,1,.14,2.16,3,3,0,0,0,1.41,2.28,2.22,2.22,0,0,1-.1.8,11.92,11.92,0,0,1-.67,1,3.57,3.57,0,0,0-.87,1.69h0c1.09,0,1.26,1,1.34,1.67l0,.16-.09,0c0,.12,0,.25.05.42.08.61.18,1.44.26,1.94.1.75.16,1.68-.45,2.08a1.25,1.25,0,0,1-1,.2l-.1,0a.3.3,0,0,1-.29.07.25.25,0,0,1-.2-.29.28.28,0,0,1,.34-.15.26.26,0,0,1,.2.2,1.08,1.08,0,0,0,.91-.15c.53-.34.47-1.2.37-1.91-.07-.51-.18-1.33-.26-1.94a3.74,3.74,0,0,0-.05-.42h-.08l0-.17c-.12-.84-.29-1.48-1.21-1.37s-1.22,1.76-1.21,1.77h-.11l-.07.28a20.67,20.67,0,0,0-.6,2.82c0,.61.15,1.2.78,1.31a1.64,1.64,0,0,0,.49,0,.28.28,0,0,1,.26-.21.26.26,0,0,1,.3.21.27.27,0,0,1-.27.26.28.28,0,0,1-.24-.09,1.9,1.9,0,0,1-.58,0c-.84-.15-.89-1-.92-1.47a18.45,18.45,0,0,1,.61-2.87c0-.1.05-.18.06-.25h-.07c0-.08.18-1.83,1.42-2.07,0-.09,0-.18,0-.25a6,6,0,0,1,1.09-1.91c-.52.21-1.17.37-1.54.5a4.83,4.83,0,0,0-1.93,2.4,10.6,10.6,0,0,1-1,2.77,10.34,10.34,0,0,0-1.11,2.86,15.75,15.75,0,0,0,.45,4,18.44,18.44,0,0,0,.42,2.43.63.63,0,0,0,.66.26,4.28,4.28,0,0,0,.15.94,9.89,9.89,0,0,0,1,.64c-1,2.77-1.17,18.37-1.11,19.22s6,.66,6,.66.25,2,.45,4.75a32.27,32.27,0,0,1-.56,7,22.45,22.45,0,0,1-1.39,3.69c-.15.26-1.13.43-1.28.51s-.08.2.43.37c0,.32-1.09.76-1.11,1s3.29.26,4.25,0a1.2,1.2,0,0,0,1-1,2.33,2.33,0,0,0,.64-.47c0,.82-.1.86.19.89s.26-.16.34-1.65A3.42,3.42,0,0,1,24.72,72a5.35,5.35,0,0,1,0,2c-.1.36.3.27.34.25a12,12,0,0,0,.17-1.5c.08-.73.69-1.11.76-2s-.82-1.19-1.28-3.25,0-4.7-.15-6.24a17,17,0,0,0-.58-3,20.77,20.77,0,0,0,3.21-.42A7.26,7.26,0,0,1,29,57.4c.46,0,.38-2.64,0-5.18S27.33,41.29,27.33,41.29ZM24.25,19l.06.18c.05.14.1.27.16.41a1,1,0,0,0,.09.21,2.06,2.06,0,0,1-.3-.74S24.25,19,24.25,19Z"/></g></g></svg>