<svg xmlns="http://www.w3.org/2000/svg" viewBox="0 0 57.04 53.99"><defs><style>.cls-1{isolation:isolate;}.cls-2{fill:#fff;}.cls-3{fill:#51687f;}.cls-4,.cls-9{fill:#231f20;mix-blend-mode:multiply;}.cls-4{opacity:0.1;}.cls-5{fill:#2a435c;}.cls-6{fill:#e0edf9;}.cls-7{fill:#c2d3dc;}.cls-8{fill:#f15928;}.cls-9{opacity:0.3;}.cls-10{fill:#f27650;}.cls-11{fill:#ffd45d;}</style></defs><g class="cls-1"><g id="Layer_2" data-name="Layer 2"><g id="Layer_1-2" data-name="Layer 1"><path class="cls-2" d="M29.41,51.76h0c-.68,0-1.36,0-2-.1a.14.14,0,0,1-.13-.15.14.14,0,0,1,.15-.13c.66.06,1.34.09,2,.09a.15.15,0,0,1,.14.15A.14.14,0,0,1,29.41,51.76Zm2-.09a.15.15,0,0,1-.14-.13.15.15,0,0,1,.13-.16c.67-.06,1.33-.16,2-.28a.14.14,0,0,1,.16.11.13.13,0,0,1-.11.17c-.66.13-1.34.22-2,.29Zm-6-.3h0c-.66-.13-1.32-.29-2-.48a.14.14,0,0,1-.1-.18.15.15,0,0,1,.18-.09,18.45,18.45,0,0,0,2,.47.14.14,0,0,1,.11.17A.13.13,0,0,1,25.39,51.37Zm10-.46a.15.15,0,0,1-.14-.1.14.14,0,0,1,.1-.18c.64-.19,1.27-.41,1.89-.65a.14.14,0,1,1,.11.26c-.63.25-1.27.48-1.92.67Zm-13.87-.67h-.05c-.63-.26-1.25-.54-1.85-.85a.14.14,0,0,1-.06-.19.15.15,0,0,1,.19-.07c.59.31,1.21.59,1.82.84a.14.14,0,0,1,.08.19A.14.14,0,0,1,21.52,50.24Zm17.61-.82a.13.13,0,0,1-.12-.08.14.14,0,0,1,.06-.19c.59-.31,1.18-.65,1.74-1a.14.14,0,0,1,.19,0,.13.13,0,0,1,0,.19c-.57.37-1.16.71-1.76,1Zm-21.19-1-.08,0c-.57-.37-1.12-.77-1.65-1.18a.14.14,0,1,1,.17-.23c.53.41,1.08.81,1.64,1.17a.15.15,0,0,1,0,.2A.16.16,0,0,1,17.94,48.38Zm24.59-1.14a.14.14,0,0,1-.11-.06.14.14,0,0,1,0-.2A19,19,0,0,0,44,45.67a.14.14,0,0,1,.2,0,.15.15,0,0,1,0,.21c-.49.46-1,.91-1.54,1.33ZM14.77,45.88a.13.13,0,0,1-.1,0,19.45,19.45,0,0,1-1.4-1.47.14.14,0,0,1,0-.2.15.15,0,0,1,.21,0,19,19,0,0,0,1.38,1.46.13.13,0,0,1,0,.2A.12.12,0,0,1,14.77,45.88Zm30.68-1.42a.18.18,0,0,1-.09,0,.13.13,0,0,1,0-.2c.43-.5.85-1,1.24-1.58a.14.14,0,0,1,.23.17,19.25,19.25,0,0,1-1.26,1.6A.16.16,0,0,1,45.45,44.46ZM12.13,42.83a.14.14,0,0,1-.12-.06c-.39-.55-.76-1.12-1.1-1.71a.14.14,0,0,1,.05-.19.15.15,0,0,1,.2.05c.33.57.7,1.14,1.09,1.69a.13.13,0,0,1,0,.19A.11.11,0,0,1,12.13,42.83ZM47.8,41.17a.1.1,0,0,1-.07,0,.13.13,0,0,1,0-.19c.33-.58.64-1.18.92-1.78a.14.14,0,0,1,.19-.07.15.15,0,0,1,.07.19c-.28.61-.6,1.22-.93,1.8A.15.15,0,0,1,47.8,41.17ZM10.11,39.34a.14.14,0,0,1-.13-.09c-.28-.61-.53-1.25-.75-1.88a.15.15,0,0,1,.08-.19.16.16,0,0,1,.19.09,17.56,17.56,0,0,0,.74,1.86.14.14,0,0,1-.07.19Zm39.38-1.83h-.05a.14.14,0,0,1-.09-.18c.22-.63.41-1.28.57-1.93a.14.14,0,0,1,.17-.1.15.15,0,0,1,.11.17c-.16.66-.36,1.31-.58,1.95A.15.15,0,0,1,49.49,37.51Zm-40.7-2a.13.13,0,0,1-.13-.11c-.16-.65-.29-1.32-.39-2a.15.15,0,0,1,.13-.16.14.14,0,0,1,.16.12c.09.66.22,1.32.37,2a.15.15,0,0,1-.1.17Zm-.56-4a.15.15,0,0,1-.15-.14c0-.33,0-.67,0-1s0-.69,0-1a.14.14,0,0,1,.14-.14.15.15,0,0,1,.14.15c0,.34,0,.68,0,1s0,.66,0,1a.15.15,0,0,1-.14.15Zm.19-4h0a.14.14,0,0,1-.12-.16,19.57,19.57,0,0,1,.38-2,.15.15,0,0,1,.17-.11.15.15,0,0,1,.11.18,18.52,18.52,0,0,0-.38,2A.14.14,0,0,1,8.42,27.5Zm.95-3.92h0a.16.16,0,0,1-.09-.18c.22-.64.48-1.27.76-1.89a.14.14,0,1,1,.26.12q-.42.91-.75,1.86A.14.14,0,0,1,9.37,23.58Zm1.68-3.67-.07,0a.14.14,0,0,1-.06-.19A19.23,19.23,0,0,1,12,18a.14.14,0,0,1,.2,0,.15.15,0,0,1,0,.2c-.39.55-.75,1.11-1.09,1.69A.14.14,0,0,1,11.05,19.91Zm2.34-3.28a.18.18,0,0,1-.09,0,.14.14,0,0,1,0-.2c.45-.51.92-1,1.41-1.47a.14.14,0,0,1,.2,0,.17.17,0,0,1,0,.21,19,19,0,0,0-1.39,1.45A.16.16,0,0,1,13.39,16.63Zm2.92-2.79a.16.16,0,0,1-.11-.05.14.14,0,0,1,0-.2c.54-.42,1.09-.82,1.66-1.18a.14.14,0,0,1,.2,0,.16.16,0,0,1,0,.2c-.56.36-1.11.75-1.64,1.16A.14.14,0,0,1,16.31,13.84Zm3.4-2.18a.14.14,0,0,1-.07-.27c.6-.31,1.22-.6,1.85-.85a.15.15,0,0,1,.19.08.15.15,0,0,1-.08.19c-.62.25-1.24.53-1.83.83Z"/><circle class="cls-3" cx="29.43" cy="30.39" r="17.57"/><path class="cls-2" d="M25.7,23.05a0,0,0,0,1-.05,0V23a0,0,0,0,1,0,0l0-.06s0-.06,0-.07l-.17,0h0l-.14.07a0,0,0,0,1-.05,0l-.13-.14,0,0H25a0,0,0,0,1,0-.08l.19-.17a0,0,0,0,0,0-.05l0-.08a0,0,0,0,0-.08,0l-.43.43a0,0,0,0,0,0,0l-.1.34,0,0-.29.12s0,0,0,0v0a0,0,0,0,0,.05,0l.53,0h0l.07-.07H25l.15.06s0,.08,0,.09h0a0,0,0,0,0,0,.06l0,.07a0,0,0,0,0,.07,0l.47-.3h0l.09-.1A.05.05,0,0,0,25.7,23.05Z"/><path class="cls-2" d="M30.43,38.23l-.36,0h0l-.77-.51h-.69l-.17-.08h0l-.16,0h0l0,0s-.09,0-.09,0v-.19s0-.05,0-.05l-.29-.09-.49-.15a0,0,0,0,0-.06,0l-.18.23s0,0,0,0h-.1c-.05,0-.08-.06-.05-.09l0,0v0L27,37.2a.07.07,0,0,0,0-.07l0-.07a.05.05,0,0,0,0,0l-.42,0a.06.06,0,0,0-.06.06v.11a.07.07,0,0,1,0,.06l-.1,0h0l-.14.13H26s-.05,0-.05,0v0a0,0,0,0,1,0-.06l.17-.06,0,0,0-.14s0,0,0,0l.31-.32s0,0,0,0v-.09a.07.07,0,0,0,0-.06l-.11,0a.05.05,0,0,1-.05,0l0-.1a1.27,1.27,0,0,0-.56-.67,1.35,1.35,0,0,0-.61-.18l-.6,0s0,0,0,0l-.24-.22h0l-.08,0s-.06,0-.05-.05l0-.11a0,0,0,0,0,0,0l-.33-.24h-.46s0-.06,0-.08l.06,0a0,0,0,0,0,0,0l.05-.11a0,0,0,0,0,0,0l-.28-.09h0L23,34.38a0,0,0,0,1,0-.08h0s0-.06,0-.08l-.08,0h0l-.41.14h0l-.19.09h0l-.21-.14h-.54s0,0,0,0l-.06-.14,0,0L21.17,34H21l-.17.1h0l-.12.15a0,0,0,0,0,0,0l.12.15a0,0,0,0,1,0,0v.13s0,0,0,0l-.07,0s0,0-.05,0l-.17-.22a0,0,0,0,1,0,0l.06-.06v0l0-.19a0,0,0,0,0,0,0l0,0s0,0,0,0l0-.05,0,0h0a0,0,0,0,0,0,0v-.13a0,0,0,0,0,0-.05h-.13l-.37.29h0l-.13,0s0,0,0,0v0s0,.05-.06,0l-.09,0h0l-.12.1a0,0,0,0,0,0,0v.28l-.2.21a0,0,0,0,0,0,0v.05a0,0,0,0,1-.06,0l-.45-.32h0l-.28,0-.05,0-.12.1a.08.08,0,0,1-.09,0l-.2-.1,0,0-.36-.44a.14.14,0,0,1,0-.06l0-1.06s0,0-.05,0l-.1,0,0,0-.09-.16-.05,0H17.1l-.15,0h-.4a.05.05,0,0,1-.05-.07h0a.08.08,0,0,1,0,0h0a.07.07,0,0,0,0-.05v-.57s0,0,0,0L16.7,32a0,0,0,0,0,0,0v-.33a.08.08,0,0,1,0,0l.11-.06a.08.08,0,0,0,0,0l0-.19a0,0,0,0,0,0-.05h-.16l-.29,0h0l-.16.12s0,0,0,0l-.06.48,0,0-.09.06s0,0,0,0h0a.06.06,0,0,1-.1,0s0,0,0,0l-.09,0s0,0,0,0v0s0,0,0,0l-.13,0h0L15.14,32l0,0-.34-.82s0,0,0,0v-.94a.05.05,0,0,1,0,0l.08-.08a0,0,0,0,0,0,0l0-.48a0,0,0,0,1,0,0L15,29.2h0l.39-.33h0l.46-.07h.05l.13.12,0,0h.19a0,0,0,0,0,.06,0v-.13a.08.08,0,0,0,0,0l0,0a0,0,0,0,1,0-.09h.73l.05,0,.07.12s0,0,0,0h.11a.05.05,0,0,0,0,0,0,0,0,0,1,.08,0l.26.28a.08.08,0,0,1,0,0v.22h0l0,.12v0L18,30h0l.09.15s.06,0,.08,0l.14-.16a0,0,0,0,0,0,0v-.49l-.13-.32h0l-.09-.37h0L18,28.34s0,0,0,0l.72-.75a.09.09,0,0,1,.06,0l.16,0,0,0,.16-.19,0,0,.12,0a.07.07,0,0,0,0,0v-.06a.07.07,0,0,1,0-.05h.06s0,0,0,0v0a.06.06,0,0,0,0-.07h0a.06.06,0,0,1,0-.1l.05,0a.05.05,0,0,0,0-.05l0-.11v0l-.11-.09a0,0,0,0,1,0-.07l.1-.08a.06.06,0,0,0,0-.05v-.21l.05-.21a.06.06,0,0,1,.08,0,.07.07,0,0,1,0,.06l0,.12v.23l0,0a0,0,0,0,0,.08,0l.08-.12s0,0,0,0l0-.24a.07.07,0,0,1,0-.05h.05s0,0,0,0l.15-.21s0,0,0,0l0-.22a.05.05,0,0,1,0,0l.21-.14h.42a.09.09,0,0,0,.05,0l0-.07a.05.05,0,0,1,.05,0l.06,0a0,0,0,0,0,.06-.06l0-.17a.06.06,0,0,1,0,0l.38-.41h0l.53-.2h0l.29-.16h0l.39-.12h0l.25,0a.05.05,0,0,1,0,.09h-.3l-.29.16s0,0,0,0l-.05.2s0,.05,0,.06l.11,0h0l.15-.08h0l.21-.21,0,0,.38-.05h0l.23-.11a.06.06,0,0,0,0-.07l0-.07s0,0,0,0h-.28l-.4-.19a.09.09,0,0,1,0-.05v-.3a.05.05,0,0,0,0-.05l-.16-.08a.06.06,0,0,1,0-.1h0a0,0,0,0,1,0,0l.1,0h.05l.17-.1a.05.05,0,0,0,0,0V22.9a.06.06,0,0,0-.06,0h-.44l-.62.26h0l-.41.43,0,0a.06.06,0,0,1,0-.1l.69-.64,0,0h.24l.05,0,.16-.22.05,0h1.59s0,0,0,0l.45-.37H25l.31-.23a0,0,0,0,0,0-.06v0s0,0,0,0h-.05l.08-.17a0,0,0,0,0,0-.05l-.14-.15s0,0-.06,0l-.1.07v0s0,0,0,0h0s0-.07,0-.07l-.1,0h0l-.47.22s0,0-.05,0l0,0s0-.08,0-.08l.22,0h0l.27-.14h0a0,0,0,0,0,0-.09L24.7,21h0L24.3,21l0,0-.17-.33a0,0,0,0,1,0-.06l.09-.06a.06.06,0,0,0,0-.07l0-.08s0,0,0,0h0a0,0,0,0,1-.05,0v-.19h0l-.15-.39h0l0-.2s-.05-.05-.07,0l-.2.13h0l-.21.29h0L23,20A0,0,0,0,1,23,20l-.18-.15h0l-.22.05s0,0,0,0,0,0,0-.06l.08,0a0,0,0,0,0,0,0,2,2,0,0,1,.08-.39l.16-.11a0,0,0,0,0,0-.07l0,0h-.3a0,0,0,0,1,0,0l0-.14,0,0-.16-.11h0l-.08-.09h0l-.09,0h0l-.12.08h0l-.23-.05h0l-.07-.06h-.16l0,0-.06.09a0,0,0,0,0,0,0v.2a.05.05,0,0,1,0,0l-.15.09a.05.05,0,0,0,0,0l0,.35s0,0,0,0l-.39.29s0,.06,0,.07l.21.15s0,0,0,0l-.05.43a.05.05,0,0,1,0,0l-.59.49,0,0h-.14a.09.09,0,0,0-.09.09V22a.08.08,0,0,1,0,.07l-.21.13a0,0,0,0,1,0,0h-.16a.09.09,0,0,1-.08-.05l-.16-.36a.08.08,0,0,1,0-.08l.12-.22v0l.08-.33a.07.07,0,0,0-.06-.1l-.23-.06-.27-.05,0,0-.22-.24h0l-.24-.23a.14.14,0,0,0-.15,0h0a.09.09,0,0,1-.12-.1h0l.11-.33a0,0,0,0,0,0-.05l-.14,0a0,0,0,0,1,0-.07l.29-.4h0l.87-.74.05,0h.18a.08.08,0,0,0,.08-.08v-.08s0-.07.06-.08l.31-.07h0l.21-.14h0l.4-.4h0l.2-.18a.1.1,0,0,1,.07,0l.2.06h.22s0,0,0,0l.47-.24a.08.08,0,0,0,0-.07V17a.09.09,0,0,1,.08-.08H22a.07.07,0,0,0,.08-.07v-.13a.05.05,0,0,0,0-.06l-.12-.07a.05.05,0,0,0,0,0h-.21a.08.08,0,0,0-.07.07l0,.13,0,0-.18.18h0l-.23.12-.1.05a.07.07,0,0,1-.1-.09v-.05a.05.05,0,0,1,0,0l.17-.1a.07.07,0,0,0,0-.05v-.07a.08.08,0,0,0-.08-.09h0l-.05,0-.06.06a.08.08,0,0,1-.13,0v0l.05-.15s0,0,0,0l.3-.26a.07.07,0,0,0,0-.06v-.14a.11.11,0,0,1,0-.06l.29-.25h.26l.05,0,.3-.22a.08.08,0,0,0,0-.14l-.1,0h-.06l-.32.18h0L21,16h0l-.34.17,0,0-.2.26a.05.05,0,0,0,0,0v.17s0,0,0,.05l-.28.27h0l-.18.11s0,0,0,0l0,0a.07.07,0,0,1-.09,0l-.23-.09h-.32a.08.08,0,0,1-.06,0l-.07-.08,0,0-.14,0h-.06l-.17.12h-.45v-.09l.35-.17-.05-.11-.07,0,0-.09a17.61,17.61,0,0,0-6,9.25,1.51,1.51,0,0,0,0,.42v1l.15.24v1.13a0,0,0,0,0,0,0l.13.27s0,0,0,0v.31s0,.06-.08.05l0,0a.06.06,0,0,0-.07.08l.17.23s0,0,0,0l.14.49h0l.19.53a.07.07,0,0,0,.13,0v-.09L13,30.28v0L13,29.91h0v-.3l-.09-.29h0l-.08-.41h0l-.06-.36h0v-.21a0,0,0,0,1,0,0h.05a.07.07,0,0,1,0,0l.05.15V29s.21.63.23.7V30a.05.05,0,0,0,0,0l.14.13a.05.05,0,0,1,0,0v.17a0,0,0,0,0,0,0l.26.5a.43.43,0,0,1,0,.05v.63a.14.14,0,0,0,0,.07l.62.78h0l.75.43a0,0,0,0,0,.05,0l.28-.13a.06.06,0,0,1,.06,0l.23.14h0l.4.45h0l.5.21h0l.27,0a.06.06,0,0,1,.06.06v.16s0,0,0,0l.32.29a.11.11,0,0,1,0,.06v.22a.1.1,0,0,0,.05.08l.42.2a.1.1,0,0,1,0,.06l0,.13a.1.1,0,0,0,.08.06h.21l.05,0,.32.22a.07.07,0,0,0,.09,0,.08.08,0,0,0,0-.12l0,0a.08.08,0,0,1,0-.11l.06,0h0l.11-.06a.08.08,0,0,1,.09,0l.18.11a0,0,0,0,1,0,0v.18l.2.24v0l.17.71h0v.26s0,0,0,0l-.21.12,0,0,0,.18a.05.05,0,0,1,0,0l-.15.09,0,0,0,.7s0,0,0,0l.1.07h0l.05,0a0,0,0,0,1,.06,0l0,.09s0,0,0,0l-.22.2a0,0,0,0,0,0,.05l.06.15v0l.11.12h0l.06.14,0,0,.19.09a0,0,0,0,1,0,0l1.34,1.56,0,0,.05.14a.12.12,0,0,0,.05,0l1.35.74a.7.7,0,0,1,.19.15.77.77,0,0,1,.14.25l.63,1.9v0l.37.58h0l.2.54v.34a.05.05,0,0,0,0,0l.28.26v0l.1.32s0,0,0,0l.22.12s0,0,0,0h.08l0,0,.21.27s0,0,0,0H25s.05,0,.05,0l.07.14h0l.1.11v0l.1.2,0,0L26,47h0l.53.23h0l.7.18-.09-.1h0l-.59-.22,0,0-.24-.27a.08.08,0,0,1,0,0v-.21s0,0,0,0l-.06-.09a.05.05,0,0,0-.05,0H26l0,0-.13-.12s0,0,0,0v-.06a.06.06,0,0,1,.06,0h0A.06.06,0,0,0,26,46l-.12-.14a0,0,0,0,1,0,0l0-.08s0,0,0,0l-.15-.17a.05.05,0,0,1,0,0h0a.05.05,0,0,1,.07,0l.2,0a.06.06,0,0,0,.07-.06v-.09s0,0,0,0l-.08-.12a.06.06,0,0,1,0-.06l0-.06.05,0h.39L26.5,45s0,0,0,0l0-.22a.08.08,0,0,0,0-.06l-.16,0a.08.08,0,0,1,0,0v0l0,0-.18-.09,0,0a.07.07,0,0,1,.08-.07l.19.06h.52a.05.05,0,0,0,0,0l.18-.41v-.23s0,0,0,0l.45-.42a0,0,0,0,0,0,0v-.62a.05.05,0,0,1,0-.05l.73-.39h.49l.05,0,.41-.61v0l.25-.9h0V40a.05.05,0,0,1,0-.06l.2,0,0,0,.25-.39v0l.31-.24s0,0,0,0l.13-.3v0l0-.57A.06.06,0,0,0,30.43,38.23ZM16.7,21.51l-.06.22h0v.39l-.1.18s-.06,0-.06,0V22a0,0,0,0,0,0,0l-.08-.19s0,0,0,0l.07-.29,0,0h.17S16.71,21.49,16.7,21.51ZM19,24.94l0,0-.27.1h0l-.14.13,0,0-.23,0a.06.06,0,0,1-.05,0l-.08-.07s0-.05,0-.07h0a.07.07,0,0,1,.06,0h.14l.19-.19,0,0h.38A.06.06,0,0,1,19,24.94Zm.45-.52h.12s0,0,0,0v.1l.07-.06h0l0,0s0,0,0,0l.09.05s0,0,0,0l0,.15s0,0,0,0l-.29.07h-.09L19,24.7s0-.05,0-.06Zm-1.15-.65h.56l.17.13s0,0,0,0l.09.21a.05.05,0,0,1-.05.07h-.22l-.09,0a.05.05,0,0,0-.07,0l-.1.14a0,0,0,0,0,0,0v.22a.05.05,0,0,1,0,.05l-.1.06a.06.06,0,0,1-.09,0V24.5c0-.05-.06-.07-.09,0l-.05,0a0,0,0,0,1-.07,0,0,0,0,0,1,0-.07l.1-.12v0l.07-.14a.06.06,0,0,0,0-.07l-.21-.13A.06.06,0,0,0,18,24l-.34.38s0,0,0,0l-.13.57,0,0-.15.13a.05.05,0,0,1-.09,0l-.07-.25v0l.06-.22h0l.12-.28a0,0,0,0,0,0,0v-.08s0,0,0,0l.24-.26,0,0Zm-.81-.63.2-.2a.11.11,0,0,1,.12,0L18,23a.11.11,0,0,1,.08.1v0a.12.12,0,0,0,.09.11h0a.11.11,0,0,1,.1.11v.19a.11.11,0,0,1-.05.09l-.06.05a.12.12,0,0,1-.1,0l-.15,0a.06.06,0,0,0-.06,0l-.07,0a.12.12,0,0,1-.15-.1.12.12,0,0,0-.18-.09l-.14.1-.16.09a.14.14,0,0,1-.11,0h0a.11.11,0,0,1,0-.2l.47-.31Zm-1.2-4,.29-.19s0,0,0,0l0-.11,0,0a0,0,0,0,1,.06,0h0a0,0,0,0,0,.07,0l.19-.1h0l.18-.09a0,0,0,0,1,.06.05v.06a.08.08,0,0,1,0,0l-.46.23-.4.18h0S16.25,19.13,16.28,19.11Z"/><path class="cls-2" d="M23.49,22.67a0,0,0,0,0,0,0h-.31s0,0,0,0l.2.14h.26s0,0,0,0Z"/><path class="cls-2" d="M19.63,31.49l0,0-.17,0a.06.06,0,0,1-.05-.06v0a.06.06,0,0,0-.06-.06h-.11L19,31.2h0L18.71,31h-.2a.05.05,0,0,1-.06,0l0-.05s0,0,0,0L18,30.76h0l-.46,0a.05.05,0,0,0,0,0l-.09.15a.06.06,0,0,0,.06.09h.06a.05.05,0,0,0,0,0l.15-.15,0,0h.13a.06.06,0,0,1,0,.08v0a.06.06,0,0,0,0,.07l.42.18s0,0,0,0h.2a.05.05,0,0,1,.05,0l.1.15a.05.05,0,0,0,.05,0h.14a.05.05,0,0,1,0,0l0,0a.06.06,0,0,1,0,.09h0a.05.05,0,0,0,0,.05s0,.06.05.06h.69l.05,0a.06.06,0,0,0,0-.09Z"/><path class="cls-2" d="M18.92,32.06h-.07a.07.07,0,0,0,0,.13l0,0,.06,0a.07.07,0,0,0,.11,0h0l.17,0h.12L19,32.07S18.93,32.05,18.92,32.06Z"/><path class="cls-2" d="M21.22,32l-.53-.32h0l-.13,0s-.05,0-.06,0l-.05,0a.06.06,0,0,1-.06,0l-.07,0h0l-.08,0H20a.05.05,0,0,0,0,0l0,0,.15.06a.07.07,0,0,1,0,.06V32a.06.06,0,0,0,0,0h0a.06.06,0,0,1,0,.1h-.19l-.05,0,0,0a.07.07,0,0,0-.11,0,.1.1,0,0,0,0,.07l.07.06,0,0,.43,0,0,0,0,0,0,0h.08a.06.06,0,0,0,.06-.05v0a.06.06,0,0,1,.06-.05h.14l.19,0h0l.19,0a.06.06,0,0,0,.07,0h0A.09.09,0,0,0,21.22,32Z"/><path class="cls-2" d="M22,32.14l-.09,0h0l-.23,0a.07.07,0,0,0-.07,0l0,0a.1.1,0,0,0,0,.09l0,0,.05,0,.23,0s0,0,0,0l.1,0a.08.08,0,0,0,.05-.07A.07.07,0,0,0,22,32.14Z"/><path class="cls-2" d="M20.77,15.47l-.23.17h0l-.28.14a0,0,0,0,1-.06,0l0,0a.06.06,0,0,1,0-.06l.23-.33c-.46.28-.9.57-1.33.89l.05.08a0,0,0,0,0,0,0h.06a.06.06,0,0,1,.05.06v.06a.05.05,0,0,1-.07,0l-.17,0h0l-.23,0a.07.07,0,0,0,0,.05v.31a.05.05,0,0,0,.07,0l.12,0h0l.26-.13h.1a.05.05,0,0,1,0,0l0,.06a.07.07,0,0,0,.06,0l.17-.06a0,0,0,0,0,0,0l.14-.18,0,0,.18,0a0,0,0,0,0,0,0l.08-.31s0,0,0,0l.28-.23.47-.36a.06.06,0,0,0,0-.08A.06.06,0,0,0,20.77,15.47Z"/><path class="cls-2" d="M21.15,18.32l-.08,0a0,0,0,0,1,0-.06s0,0,0-.05L21,18h0l-.18-.11,0,0,0-.09a0,0,0,0,0-.06,0l-.12.15h0l-.27.27h0l-.18.11s0,0,0,0v0h.13l.06,0-.06,0a0,0,0,0,0,0,.06l.05,0h.12s0,0,0,0l.08-.13s0,0,0,0l.11-.06h0l.07-.08a0,0,0,0,1,.05,0l.09.06h0l.09.1h0l.17,0a0,0,0,0,0,0,0v-.08S21.16,18.32,21.15,18.32Z"/><path class="cls-2" d="M20.2,16.56h0a.09.09,0,0,0-.07,0l0,.07v0l-.15.14a0,0,0,0,0,0,0v.09A.06.06,0,0,0,20,17L20,17h0l.22-.15s0,0,0-.06v-.13A.06.06,0,0,0,20.2,16.56Z"/><path class="cls-2" d="M21.68,14.81h0l0,0-.13.13,0,0h0a.07.07,0,0,1-.07-.06h0v0l.1-.16-.53.29-.18.21a.05.05,0,0,0,0,.09,0,0,0,0,0,.05,0l.23-.2.05,0,.19,0h0l.33-.09,0,0,.06-.1A.06.06,0,0,0,21.68,14.81Z"/><path class="cls-2" d="M25.09,17.54l-.35-.1a0,0,0,0,1,0,0l0-.2s0,0,0,0l-.28-.09h0L24.14,17a0,0,0,0,1,0-.06l.08-.12h0l.27-.11a.05.05,0,0,0,0,0v-.12s0,0,0,0l-.1,0s0,0,0,0v-.05s0,0,0,0l-.18-.09a0,0,0,0,0,0,0l0,0a0,0,0,0,1,0,0l-.2-.15a0,0,0,0,1,0,0V16a0,0,0,0,0,0,0h0s0,0,0,0l.06-.18v0l-.06-.2s0,0,0,0h-.26s0,0,0,0l-.07.2v0l0,.1a0,0,0,0,1,0,.05l-.14,0H23a0,0,0,0,1,0-.08l.06,0,0,0,0-.15a0,0,0,0,0,0-.05L23,15.45h0l-.19.17h0l-.35.28h0l-.15.15s-.06,0-.06,0V16s0,0,0,0l.33-.27.19-.16s0-.07,0-.07h-.18l-.73.49h0l-.1.07a0,0,0,0,0,0,0l0,.05a0,0,0,0,1,0,.07h-.11s-.05,0,0,.05l.08.17a0,0,0,0,0,0,0l.24.07h.39l.24.12s0,0,.05,0l.19-.22s0,0,.06,0l.26.36h0l.2.44s0,0,0,0l-.12.21,0,0-.35.2v0l-.09.17,0,0-.3.07s0,0,0,0l0,0,0,0H22l-.19.16h0l0,0s0,.07,0,.07l.38,0h0l.09-.06h.22s0,0,0,0v.15l.08.05s0,0,0,0l.06.14h0l0,.14s0,0,0,0l.22,0h0l.41.16h0l.16,0a.06.06,0,0,0,0-.06l0-.13s0,0,0,0l-.21-.16s0,0,0,0,0,0,.06,0l.14.1s0,0,0,0l.36,0h0l.15-.06a.05.05,0,0,0,0,0v-.19L24,18.09h0L23.88,18a0,0,0,0,1,0,0l0-.14h0l0-.16s0,0,0,0l.1-.05s0,0,.05,0l.16.28s0,0,0,0l.21.11a0,0,0,0,0,0,0l.23-.12h0l.35-.24A0,0,0,0,0,25.09,17.54Z"/><path class="cls-2" d="M21.38,15.44l-.07,0a.11.11,0,0,0-.08,0l-.16.21a.09.09,0,0,1-.1,0,0,0,0,0,0-.06,0l-.15.06a.09.09,0,0,0,0,.06l0,.13a.08.08,0,0,0,.09.1h.08l.26-.14,0,0,.07-.14a.08.08,0,0,1,0,0l.1,0h0l0,0A.08.08,0,0,0,21.38,15.44Z"/><path class="cls-2" d="M22.34,14.7l-.08.07a.07.07,0,0,1-.1,0h0a0,0,0,0,0-.06,0l-.16,0a.06.06,0,0,0-.05.06v.12h0l0,.08s0,.08.06.08H22l.05,0,.16-.17h0l.18-.07a.06.06,0,0,0,0-.1A.05.05,0,0,0,22.34,14.7Z"/><path class="cls-2" d="M22.42,15a.07.07,0,0,0-.08,0l-.07,0h0l-.09.08a.07.07,0,0,0,0,.09.05.05,0,0,0,.05,0h.1l.11-.08a.08.08,0,0,0,0-.08Z"/><path class="cls-2" d="M23.84,14.9a0,0,0,0,0-.05,0l-.32,0h0l-.24.06h0l-.15,0s-.05,0-.05,0v0s0-.06.06-.06h.09l0-.08h0L23,14.66l-.08-.06a.08.08,0,0,0-.08,0l-.09.08a.06.06,0,0,0,0,.09l0,0a.07.07,0,0,1,0,.06L22.7,15l0,0-.08,0a.06.06,0,0,0,0,.11h0l.58,0h.42l.25-.2a.06.06,0,0,0,0-.09Z"/><path class="cls-2" d="M27.55,13.4a0,0,0,0,0,0,0l-.46-.14h0l-.68.11-.78.14h0l-.37,0,0,0-.13.16-.05,0h0a.07.07,0,0,1-.07-.05h0s-.05-.06-.08,0l-.31.1h0l-.41.22h0l-.28.23a.07.07,0,0,0,0,.1l0,0a.07.07,0,0,0,.06,0l.17-.05a.06.06,0,1,1,0,.12h-.15l-.33.14h0l-.06,0a.06.06,0,0,0,0,.11l.1,0h.81l.23-.18h0l.17-.15,0,0,.29,0,.05,0,.28-.28,0,0L26,14l0,0,.17-.15h0l.31,0h0l.36-.18h0l.26-.06h.32a.06.06,0,0,0,.06-.08Z"/><path class="cls-2" d="M32.3,15.32,32,15.25l0,0,0,0a.06.06,0,0,1,.05-.1h.17l0,0,0-.06a.07.07,0,0,0,0-.1l-.53-.09h0a.06.06,0,0,1,0-.1h.17l0,0h0a.06.06,0,0,0,0-.11l-.44-.13a.07.07,0,0,1,0-.06v-.24a0,0,0,0,0,0,0l-.11-.24a.06.06,0,0,1,0-.09l.25,0,.05,0,0-.08a.06.06,0,0,0,0-.09l-.42-.06h0l-.22.11H31l-.17-.07a.07.07,0,0,0-.06,0l-.06.05a.07.07,0,0,1-.1,0v0a.06.06,0,0,1,0-.09l.05,0a.06.06,0,0,0,0-.11l-.36-.19h0l-1.05.07,0,0-.23.22H27.89l-.3.2h-.06l-.25-.09h0l-.58.18a.07.07,0,0,0,0,.09l0,0a.06.06,0,0,1,0,.09l-.18,0,0,0-.12.12-.05,0h-.57l-.06.06a.06.06,0,0,0,0,.1l.19.05h0a.06.06,0,0,1,0,.12l-.36.05c-.05,0-.07.06,0,.09l.08.13a.06.06,0,0,0,.07,0l.26-.08h0l.59.09h0l.27.24h0l.17.23s0,0,0,0l-.07.42h0l-.1.21a.06.06,0,0,0,.06.09H27l.13-.07a.06.06,0,0,1,.07,0l.12.16a.06.06,0,0,1,0,.09l0,0h0l-.28-.1h-.05l-.05,0a.06.06,0,0,0,0,.1l.2.1h.27a.06.06,0,0,1,.06.07l0,.25h0l-.05.14a.07.07,0,0,1-.08,0L27,16.91a.06.06,0,0,0-.06,0l-.15.08s0,0,0,0l-.11.31v0l-.06.09a.06.06,0,0,0,0,.06l.14.24s0,0,0,0l0,.23a.05.05,0,0,0,.07.05L27,18H27a.06.06,0,0,1,0,.11l-.1.07a.06.06,0,0,0,0,.09l.14.19a.08.08,0,0,1,0,0v.13s0,0,0,0l.38.46a0,0,0,0,0,.05,0l.35,0a0,0,0,0,1,.06,0l.09.15a0,0,0,0,0,0,0l.35.11a.06.06,0,0,0,.07,0l.26-.41a.06.06,0,0,0,0,0l0-.26s0,0,0,0l.24-.23a.94.94,0,0,0,.21-.28l.15-.33a.07.07,0,0,1,.06,0h.33l.62-.21,0,0,.29-.54a0,0,0,0,1,.06,0l.38.05h0l.7-.11,0,0,.25-.29h0l.09-.05a.06.06,0,0,0,0-.11h-.39l-.11,0a.06.06,0,0,1,0-.1l.06-.07,0,0c0-.05.06-.07.1-.05l.24.19a.07.07,0,0,0,.06,0l.1-.05c.05,0,.05-.07,0-.1l-.38-.33h0l-.3-.09a.07.07,0,0,1,0-.06v-.14a.06.06,0,0,1,.07-.05l.23,0h.4a.06.06,0,0,0,.06,0l0-.14A.06.06,0,0,0,32.3,15.32Z"/><path class="cls-2" d="M41.54,17.67l-.1.27a.06.06,0,0,0,0,.06l.11.22a.06.06,0,0,1-.08.08l-.6-.32,0,0-.35-.37h.24l.29-.16a.07.07,0,0,0,0-.11l-.76-.41a1.42,1.42,0,0,1-.28-.2h0a1.6,1.6,0,0,0-1-.39.27.27,0,0,0-.28.28v.5l0,1.17a.57.57,0,0,1,0,.18l-.17.51a.69.69,0,0,0,.49.88l.37.09a.2.2,0,0,0,.2-.07.2.2,0,0,1,.3,0l.36.37h0l.41.55a.06.06,0,0,0,.1,0l.19-.24a.06.06,0,0,0,0-.07l-.23-.33a.08.08,0,0,1,0-.08l.16-.19s0,0,0,0l.06-.29s0-.05,0-.07l-.48-.21,0,0-.3-.44a0,0,0,0,1,0-.05l.11-.47L40,17.83h.38v.69s0,0,0,0l.51.64s0,0,0,0l.44.24h0l.4-.1a.05.05,0,0,1,.07,0l.11.25a.06.06,0,0,1-.06.09H41.7a.06.06,0,0,0,0,.1l.12.13h0l.15.23a.06.06,0,0,1-.08.09l-.19-.06s-.09,0-.08.07l0,.34s0,0,0,0l.24.35a.07.07,0,0,1-.07.1l-.31-.08a.07.07,0,0,0-.06,0l-.28.23a.06.06,0,0,1-.08,0l-.22-.19,0,0-.43,0,0,0-.2-.27a.08.08,0,0,1,0,0v-.28a.08.08,0,0,0,0-.05h0a.2.2,0,0,0-.31.07l0,.12a.22.22,0,0,0,0,.19l.35.5a.06.06,0,0,1,0,.1l-.43.07a.2.2,0,0,0-.16.16l-.07.38a.14.14,0,0,1,0,.06l-.43.54,0,0-.38.31a.12.12,0,0,1-.08,0h-.34a.13.13,0,0,0-.13.11.13.13,0,0,0,.08.14l.36.16.05,0,.38.52a.09.09,0,0,1,0,.06l0,.41a.21.21,0,0,1-.24.23l-1.1-.17h-.08l-.12,0a.21.21,0,0,0-.15.29l.15.34a.14.14,0,0,1,0,.09l0,.63a.22.22,0,0,0,0,.08l.05.14a.17.17,0,0,1,0,.07v.2a.22.22,0,0,0,.21.22h.17a.2.2,0,0,1,.13,0l.15.11a.22.22,0,0,0,.22,0l.23-.12.08,0,.36,0,.09,0,.22-.12a.27.27,0,0,0,.08-.07l.14-.24a.2.2,0,0,0,0-.26.23.23,0,0,1,0-.27l.18-.27a.1.1,0,0,1,0-.06l.36-.26a.12.12,0,0,0,0-.08v-.15a.12.12,0,0,1,.12-.1h.32a.09.09,0,0,0,.07,0l.44-.29a.12.12,0,0,1,.1,0l.15.05a.05.05,0,0,1,.05,0l.76.82a0,0,0,0,0,0,0l.4.27a.22.22,0,0,1,0,.08l0,.39a.13.13,0,0,1-.1.13l-.15,0a.14.14,0,0,0-.08,0h0a.13.13,0,0,0,.06.18l.37.12a.12.12,0,0,0,.15-.08l.07-.29v0l0-.35s0,0,0-.06l.06-.14a.13.13,0,0,0,0-.13l-.36-.31,0,0L42.33,25l0,0-.46-.55-.24-.27a.12.12,0,0,1,0-.18l.16-.08a.11.11,0,0,1,.14,0l.52.7a.1.1,0,0,0,0,0l.67.27a.11.11,0,0,1,.07.09l.09.59a0,0,0,0,0,0,0l.23.5a.1.1,0,0,0,.08.07l.23,0a.12.12,0,0,0,.13-.15l-.11-.3a.13.13,0,0,1,0-.12l.18-.18a.11.11,0,0,1,.08,0h.24a.11.11,0,0,1,.09.18l0,.06a.12.12,0,0,0,0,.1l.15.55,0,0,.22.3a.11.11,0,0,0,.13,0l.22-.07a.11.11,0,0,1,.11,0l.36.31a.09.09,0,0,1,0,.08v1a.11.11,0,0,1-.17.1.12.12,0,0,0-.13,0l-.21.15a.11.11,0,0,1-.12,0l-.34-.16h0l-.46-.26h0l-.37-.09a.08.08,0,0,0-.1.08v.33a.06.06,0,0,1,0,0l-.09.17a.08.08,0,0,1-.11,0l-.44-.26,0,0-.18-.27a.05.05,0,0,0,0,0l-.46-.07s0,0,0,0L42,27.56a.08.08,0,0,1,0-.07V26.8a.05.05,0,0,0,0-.05l-.18-.18a.08.08,0,0,0-.11,0l-.17.19a.08.08,0,0,1-.08,0l-.91-.26h0l-.84.39h0L39,27a.17.17,0,0,1-.1,0l-.34-.08a.23.23,0,0,0-.21.07l-.31.36-.41.47a.34.34,0,0,0-.08.23l.05.58a.3.3,0,0,1-.16.29l-.41.23,0,0-.51.38a.29.29,0,0,0-.12.18l-.11.51a.31.31,0,0,1-.13.19l-.18.13a.34.34,0,0,0-.09.08l-.26.42a.3.3,0,0,0,0,.34l.25.33a.31.31,0,0,1,.05.28l-.22.68a.36.36,0,0,0,0,.1v1a.3.3,0,0,0,.17.27l.22.12a.25.25,0,0,1,.13.12l.36.65a.22.22,0,0,0,.07.09l.87.71a.33.33,0,0,0,.3.06l.3-.11a.51.51,0,0,1,.4,0h0a.53.53,0,0,0,.39,0l.61-.21h0l.58-.12a.38.38,0,0,1,.23,0l.37.21,0,0,.38.3a.33.33,0,0,1,.08.44l-.24.38a.35.35,0,0,0,0,.18v2a.52.52,0,0,1,0,.11l-.28.8a.31.31,0,0,1-.12.16l-.53.39a.41.41,0,0,0-.13.19l-.35,1.54a.34.34,0,0,1-.11.18l-.38.33a.45.45,0,0,0-.11.19l-.08.47a.37.37,0,0,1,0,.11l-.23.36a.34.34,0,0,0,.19.5.35.35,0,0,0,.28,0l1.13-.74,0,0,.94-.89,1.11-1h0l.94-.77,0,0,.63-1h0l1.48-2.84,1-1.8a17.56,17.56,0,0,0-4.81-17.46Z"/><path class="cls-2" d="M38.87,21.75a.1.1,0,0,0-.08-.05h-.12a.09.09,0,0,1-.08,0l-.2-.33,0,0-.28-.16s0,0,0,0l-.15-.25a.08.08,0,0,0-.05-.05l-.1,0a.1.1,0,0,1-.06-.13l.06-.12v-.2a.09.09,0,0,0-.09-.09h-.2l-.13,0a.1.1,0,0,1-.06-.15.09.09,0,0,0-.06-.14l-.19,0a.1.1,0,0,0-.11.1l0,.23v0l-.09.28a.09.09,0,0,0,0,.11l.36.19a.1.1,0,0,1,0,.05l0,.12a.1.1,0,0,0,.11.06l.09,0,.07,0,.17.12a.09.09,0,0,1,0,.08v.18a.1.1,0,0,1-.07.08l0,0a.09.09,0,0,0-.06.11l0,.14a.08.08,0,0,1,0,.08h0a.09.09,0,0,0,0,.14l.09,0h0l.06.05a.09.09,0,0,1,0,.15l-.11.07s0,0,0,.06h0a.09.09,0,0,0,.1.12l.25-.05h0l.49-.15h.27a.1.1,0,0,0,.09-.14l0-.05a.11.11,0,0,1,0-.08l.07-.15a.09.09,0,0,0,0-.09Z"/><path class="cls-2" d="M37.15,21.37a.08.08,0,0,1,0-.08v0a.08.08,0,0,0,0-.1L36.93,21H36.7a.08.08,0,0,0-.08.07v0a.07.07,0,0,1,0,.07l-.12.05a.08.08,0,0,0-.05.05l0,.23a.07.07,0,0,0,0,.09l.11,0a.07.07,0,0,1,0,.12.11.11,0,0,0,0,.07l0,.19a.06.06,0,0,0,0,.06l.17.07a.08.08,0,0,0,.07,0l.22-.18h.11a.09.09,0,0,0,.08-.08v-.28a.05.05,0,0,0,0,0Z"/><path class="cls-2" d="M34.36,17.83l-.28-.07A.13.13,0,0,1,34,17.7l-.11-.15a.13.13,0,0,0-.17-.05l-.33.14-.26.11A.13.13,0,0,1,33,17.7l0-.07a.15.15,0,0,0-.11-.06h-.13a.1.1,0,0,0-.09,0,.14.14,0,0,0,0,.25h0a.13.13,0,0,1,.1.13v0a.15.15,0,0,0,.07.12l.37.21,0,0,.39.12a.17.17,0,0,0,.12,0l.25-.18,0,0,.34-.11a.14.14,0,0,0,.1-.13V18A.16.16,0,0,0,34.36,17.83Z"/><path class="cls-4" d="M40.59,16.82A17.57,17.57,0,0,1,15.86,41.54,17.57,17.57,0,1,0,40.59,16.82Z"/><path class="cls-5" d="M26.33,5.63,29,4.45l1.82.78h.3A2.28,2.28,0,0,1,29.25,7.4a4.66,4.66,0,0,0-2.45,1,3,3,0,0,1,1.45-1.54l1.56-1.35L28.89,5l-2.44.84Z"/><path class="cls-2" d="M31.09,5.23l.2-.07,0-.12V4.57a.14.14,0,0,1,.11-.14L32,4.34a.13.13,0,0,1,.15.06l.09.17v.21l.18.35-.18.06V5.6h-.46l0,.12S31.39,5.84,31.09,5.23Z"/><path class="cls-5" d="M31.69,5.72a1.86,1.86,0,0,1,.37.65c.18.46.52,1.36.52,1.36L34.67,7l.09.29L32.37,8.32,31.38,7a7,7,0,0,1-1.44.92S30.74,7.28,31,7A2.58,2.58,0,0,0,31.69,5.72Z"/><path class="cls-6" d="M31.09,5.23A2.28,2.28,0,0,1,29.25,7.4a6.93,6.93,0,0,0-1.55.43l1.86.41.38-.35S30.74,7.28,31,7a2.58,2.58,0,0,0,.67-1.3S31.39,5.84,31.09,5.23Z"/><path class="cls-5" d="M29.56,8.24,27.7,7.83h0L27.31,8s-.11,1.17,1.4,1.21a13.41,13.41,0,0,0,2.14-.06l-.26,2.93h.29l.81-3.3Z"/><path class="cls-5" d="M29.56,8.24,27.7,7.83h0L27.31,8s-.11,1.17,1.4,1.21a13.41,13.41,0,0,0,2.14-.06l-.26,2.93h.29l.81-3.3Z"/><path class="cls-5" d="M27.31,8,27,9.8,24.39,8.24l-.19.21L27,11l1.49-1.79h0C27.21,9.07,27.31,8,27.31,8Z"/><path class="cls-7" d="M31.09,5.23a2.65,2.65,0,0,1-.12.63h0l.52-.16.1.41a2.12,2.12,0,0,0,.1-.39S31.39,5.84,31.09,5.23Z"/><polygon class="cls-8" points="31.27 5.79 31.23 5.95 31.44 6.01 31.48 5.85 31.27 5.79"/><path class="cls-8" d="M31.28,6a1.48,1.48,0,0,1-1,1.14,1.82,1.82,0,0,0-1.07.62l.06.39.54,0a2,2,0,0,1,.68-.62A2.29,2.29,0,0,0,31.4,6Z"/><path class="cls-5" d="M31.39,4.44a.09.09,0,0,0-.06.08v.54l.21,0,.33-.24V4.5l.33.07-.11-.19a.09.09,0,0,0-.11,0Z"/><polygon class="cls-5" points="30.88 12.1 30.59 12.1 30.48 12.41 31.43 12.41 31.52 12.29 30.88 12.1"/><polygon class="cls-5" points="24.2 8.45 24.39 8.24 24.24 7.95 23.6 8.66 23.63 8.8 24.2 8.45"/><polygon class="cls-2" points="34.97 6.82 34.97 6.67 34.9 6.69 34.68 7 34.74 7.19 35.27 6.98 35.31 6.72 34.97 6.82"/><polygon class="cls-2" points="26.23 6.07 26.27 6.21 26.34 6.17 26.45 5.8 26.33 5.64 25.89 6.01 25.94 6.27 26.23 6.07"/><path class="cls-9" d="M28.37,9.2a1.12,1.12,0,0,1-1.06-1h0v0h0v0h0v0h0v0h0V8h0l-.07.44a1.2,1.2,0,0,0,1.2.81l0,0h0l-.12,0Z"/><circle class="cls-10" cx="50.85" cy="30.03" r="2.78"/><circle class="cls-11" cx="50.85" cy="30.03" r="1.95"/><circle class="cls-2" cx="50.85" cy="30.03" r="0.96"/><path class="cls-3" d="M50.85,30.14a.11.11,0,0,1-.11-.11v-5.1a.11.11,0,0,1,.22,0V30A.11.11,0,0,1,50.85,30.14Z"/><polygon class="cls-10" points="50.96 24.95 50.96 25.61 51.46 25.11 51.46 24.44 50.96 24.95"/><polygon class="cls-10" points="50.96 25.67 50.96 26.33 51.46 25.83 51.46 25.17 50.96 25.67"/><polygon class="cls-10" points="50.74 24.95 50.74 25.61 50.24 25.11 50.24 24.44 50.74 24.95"/><polygon class="cls-10" points="50.74 25.67 50.74 26.33 50.24 25.83 50.24 25.17 50.74 25.67"/><path class="cls-2" d="M8.05,8.1l-.16.15A1.74,1.74,0,0,0,7.71,8,1.51,1.51,0,0,0,5.25,9.68a1,1,0,0,0-.3.21,1.06,1.06,0,0,0-.1,1.4h0a.61.61,0,1,0,.86.86L8.91,9a.61.61,0,0,0-.86-.86Z"/><path class="cls-2" d="M49.94,50.57l-.16.16a1.24,1.24,0,0,1,.22.18,1.51,1.51,0,0,1-1.65,2.46,1,1,0,0,1-.21.3,1.06,1.06,0,0,1-1.4.1h0a.62.62,0,0,1-.87,0,.6.6,0,0,1,0-.86l3.2-3.2a.62.62,0,0,1,.87,0A.6.6,0,0,1,49.94,50.57Z"/><path class="cls-2" d="M56.34,24.87V25h.11a.59.59,0,0,1,.22,1.13.32.32,0,0,1,0,.14.42.42,0,0,1-.36.41h0a.24.24,0,1,1-.48,0V24.87a.24.24,0,0,1,.48,0Z"/><path class="cls-2" d="M.7,25.9v-.08H.59A.58.58,0,0,1,0,25.24a.59.59,0,0,1,.36-.54.59.59,0,0,1,0-.14.41.41,0,0,1,.36-.41h0a.23.23,0,0,1,.23-.24.24.24,0,0,1,.24.24V25.9a.24.24,0,0,1-.24.24A.23.23,0,0,1,.7,25.9Z"/><path class="cls-2" d="M4.16,35.89V35.8H4.05a.58.58,0,0,1-.59-.59.59.59,0,0,1,.36-.54.59.59,0,0,1,0-.14.41.41,0,0,1,.36-.41h0a.23.23,0,0,1,.23-.24.24.24,0,0,1,.24.24v1.76a.23.23,0,0,1-.24.23A.23.23,0,0,1,4.16,35.89Z"/><path class="cls-2" d="M24.86.7H25a.45.45,0,0,1,0-.11A.58.58,0,0,1,25.52,0a.57.57,0,0,1,.54.36l.15,0a.41.41,0,0,1,.41.36h0a.23.23,0,0,1,.24.23.24.24,0,0,1-.24.24H24.86a.24.24,0,0,1-.24-.24A.23.23,0,0,1,24.86.7Z"/><path class="cls-2" d="M48.87,5.88l-.16-.16a1.24,1.24,0,0,0,.22-.18,1.5,1.5,0,0,0,0-2.13,1.49,1.49,0,0,0-1.64-.33,1.29,1.29,0,0,0-.22-.3,1.07,1.07,0,0,0-1.4-.1h0a.62.62,0,0,0-.87.87L48,6.74a.62.62,0,0,0,.87,0A.6.6,0,0,0,48.87,5.88Z"/><path class="cls-2" d="M4.14,45l.23.23a2.08,2.08,0,0,0-.32.27,2.2,2.2,0,0,0,2.39,3.58,1.67,1.67,0,0,0,.31.44,1.58,1.58,0,0,0,2.05.14h0a.89.89,0,0,0,1.26-1.26L5.4,43.78A.89.89,0,1,0,4.14,45Z"/></g></g></g></svg>