<svg xmlns="http://www.w3.org/2000/svg" viewBox="0 0 64.38 69.07"><defs><style>.cls-1{fill:#faf8f7;}</style></defs><g id="Layer_2" data-name="Layer 2"><g id="Layer_1-2" data-name="Layer 1"><path class="cls-1" d="M16.51,48.05a4.34,4.34,0,0,0,2.55.83H58.61a1.4,1.4,0,0,0,1.4-1.4V45.16a1.4,1.4,0,0,0-1.4-1.4H38.92V22.41h3a.76.76,0,0,0,0-1.52h-3V18.47a.76.76,0,0,0-.76-.76.75.75,0,0,0-.75.76v2.42h-10a.76.76,0,0,0-.76.76v3.13H24.91a.76.76,0,0,0-.76.76v7.14a.76.76,0,0,0,.76.76h1.7a11.1,11.1,0,0,1-3,6.87,3.83,3.83,0,0,0,1.54.32h.19a12.65,12.65,0,0,0,2.77-7.19h1.76a.76.76,0,0,0,.76-.76V25.54a.76.76,0,0,0-.76-.76H28.16V22.41h9.25V43.76h-3a2.4,2.4,0,0,1-2.29,1.69H23.2a4.66,4.66,0,0,1-2.63-.81L12,38.76a6.52,6.52,0,0,1-2.64-2.57,6.31,6.31,0,0,1-.63-5,4.51,4.51,0,0,0-2.44,1.68l-.65.85-.1.14-2-1.43a1.38,1.38,0,0,0-1.94.31L.26,34.58a1.4,1.4,0,0,0,.32,2l3.87,2.8Z"/><path class="cls-1" d="M63.22,43.76a.76.76,0,0,0-1.52,0V50.4H2.47V39.87a.76.76,0,1,0-1.52,0V50.51a.49.49,0,0,0,0,.12v4.89H16.9v2.63h-11a.76.76,0,0,0-.76.76v2.63a3.8,3.8,0,1,0,4.54,4,2.44,2.44,0,0,0,0-.27,3.81,3.81,0,0,0-3-3.73V59.67H57.49v1.87a3.81,3.81,0,0,0-3.05,3.73,2.44,2.44,0,0,0,0,.27,3.8,3.8,0,1,0,4.56-4V58.91a.76.76,0,0,0-.76-.76h-11V55.52H63.22V50.4h0ZM5.94,67.55a2.28,2.28,0,1,1,2.27-2.28A2.28,2.28,0,0,1,5.94,67.55Zm52.29,0a2.28,2.28,0,1,1,2.28-2.28A2.28,2.28,0,0,1,58.23,67.55ZM45.77,58.07H18.41V55.52H45.77Z"/><path class="cls-1" d="M18.08,37.47a4.38,4.38,0,0,1-1.42,1.32,4.45,4.45,0,0,1-2.23.59h-.29L21,44.05a3.94,3.94,0,0,0,2.23.69h8.87a1.7,1.7,0,1,0,0-3.4h-6.9a4.61,4.61,0,0,1-2.64-.82Z"/><path class="cls-1" d="M10,35.84a5.68,5.68,0,0,0,3,2.55,3.82,3.82,0,0,0,5.26-3,5.71,5.71,0,0,0-.73-3.85A5.36,5.36,0,0,0,13,28.66a3.68,3.68,0,0,0-1.88.5C9.06,30.36,8.54,33.35,10,35.84Z"/><rect class="cls-1" x="11.3" y="5.56" width="46.07" height="4.5"/><path class="cls-1" d="M63.91,6.62,51.65.1a.88.88,0,0,0-1.28.81l.49,13.87a.87.87,0,0,0,1.33.71L64,8.13A.87.87,0,0,0,63.91,6.62Z"/></g></g></svg>