<svg xmlns="http://www.w3.org/2000/svg" viewBox="0 0 29.85 27.32"><defs><style>.cls-1{fill:#fff;}</style></defs><g id="Layer_2" data-name="Layer 2"><g id="Layer_1-2" data-name="Layer 1"><path class="cls-1" d="M29.85,10.54V16.8a.61.61,0,0,1-.63.58H19.91a.88.88,0,0,0-.92.84v8.51a.62.62,0,0,1-.64.59H11.51a.62.62,0,0,1-.64-.59V18.22a.89.89,0,0,0-.93-.84H.65A.62.62,0,0,1,0,16.8V10.54A.63.63,0,0,1,.65,10H9.94a.89.89,0,0,0,.93-.85V.59A.62.62,0,0,1,11.51,0h6.84A.62.62,0,0,1,19,.59V9.1a.89.89,0,0,0,.92.85h9.31A.61.61,0,0,1,29.85,10.54Z"/></g></g></svg>